<svg id="Capa_1" enable-background="new 0 0 512 512" height="512" viewBox="0 0 512 512" width="512" xmlns="http://www.w3.org/2000/svg"><g><circle cx="240.31" cy="444.389" fill="#26457d" r="45.551"/><path d="m240.31 398.838c-3.9 0-7.684.492-11.297 1.414 19.692 5.025 34.254 22.88 34.254 44.137s-14.562 39.112-34.254 44.137c3.613.922 7.397 1.414 11.297 1.414 25.157 0 45.551-20.394 45.551-45.551s-20.394-45.551-45.551-45.551z" fill="#21386b"/><circle cx="413.895" cy="444.389" fill="#26457d" r="45.551"/><path d="m413.895 398.838c-3.9 0-7.684.492-11.297 1.414 19.692 5.025 34.254 22.88 34.254 44.137s-14.562 39.112-34.254 44.137c3.613.922 7.397 1.414 11.297 1.414 25.157 0 45.551-20.394 45.551-45.551s-20.393-45.551-45.551-45.551z" fill="#21386b"/><path d="m421.142 324.545h-167.914c-5.844 0-10.582-4.738-10.582-10.582v-146.305c0-5.844 4.738-10.582 10.582-10.582h167.914c5.844 0 10.582 4.738 10.582 10.582v146.305c0 5.844-4.737 10.582-10.582 10.582z" fill="#ffd064"/><path d="m421.142 157.076h-21.802c5.844 0 10.582 4.738 10.582 10.582v146.305c0 5.844-4.738 10.582-10.582 10.582h21.802c5.844 0 10.582-4.738 10.582-10.582v-146.305c0-5.844-4.737-10.582-10.582-10.582z" fill="#ffc250"/><path d="m352.609 210.734h-30.848c-2.428 0-4.396-1.968-4.396-4.396v-49.262h39.641v49.262c0 2.428-1.968 4.396-4.397 4.396z" fill="#26457d"/><path d="m342.284 157.076v49.262c0 2.428-1.968 4.396-4.396 4.396h14.722c2.428 0 4.396-1.968 4.396-4.396v-49.262z" fill="#21386b"/><g><path d="m379.625 301.41c-2.013 0-4.023-.782-5.537-2.337-2.977-3.058-2.91-7.95.147-10.926l12.027-11.707-12.027-11.708c-3.057-2.976-3.124-7.868-.147-10.926 2.976-3.056 7.867-3.125 10.926-.147l17.715 17.244c1.494 1.455 2.337 3.451 2.337 5.536s-.843 4.082-2.337 5.536l-17.715 17.243c-1.502 1.463-3.447 2.192-5.389 2.192z" fill="#f9f6f6"/></g><g><path d="m494.053 309.565h-333.901v112.236c0 3.884 3.149 7.033 7.033 7.033h319.836c3.884 0 7.033-3.149 7.033-7.033v-112.236z" fill="#80b4fb"/><path d="m471.728 309.565h-311.576v27.88h301.938c5.323 0 9.638 4.315 9.638 9.638v74.718c0 3.884-3.148 7.032-7.032 7.032h22.325c3.884 0 7.032-3.149 7.032-7.032v-84.357-27.88h-22.325z" fill="#61a2f9"/></g><g><path d="m182.275 314.849c-3.06 0-5.958-1.831-7.17-4.845l-87.367-217.179c-.467-1.18-1.544-1.913-2.765-1.913h-39.973c-4.268 0-7.726-3.459-7.726-7.726 0-4.268 3.459-7.726 7.726-7.726h39.974c7.605 0 14.324 4.57 17.119 11.644l87.349 217.135c1.593 3.959-.326 8.459-4.285 10.051-.945.379-1.921.559-2.882.559z" fill="#21386b"/></g><path d="m49.401 98.588h-43.5c-3.259 0-5.901-2.642-5.901-5.901v-21.185c0-3.259 2.642-5.901 5.901-5.901h43.5c3.259 0 5.901 2.642 5.901 5.901v21.184c0 3.26-2.642 5.902-5.901 5.902z" fill="#26457d"/><path d="m390.704 157.076h-197.295c-6.15 0-11.135-4.985-11.135-11.135v-112.746c0-6.15 4.985-11.135 11.135-11.135h197.295c6.15 0 11.135 4.985 11.135 11.135v112.745c0 6.15-4.985 11.136-11.135 11.136z" fill="#f1cb86"/><path d="m390.704 22.06h-22.942c6.15 0 11.135 4.985 11.135 11.135v112.745c0 6.15-4.985 11.135-11.135 11.135h22.942c6.15 0 11.135-4.985 11.135-11.135v-112.745c0-6.15-4.986-11.135-11.135-11.135z" fill="#e7a561"/><path d="m308.287 57.919h-32.461c-2.555 0-4.626-2.071-4.626-4.626v-31.233h41.713v31.233c0 2.555-2.071 4.626-4.626 4.626z" fill="#26457d"/><path d="m297.421 22.06v31.233c0 2.555-2.071 4.626-4.626 4.626h15.492c2.555 0 4.626-2.071 4.626-4.626v-31.233z" fill="#21386b"/><g><path d="m347.016 132.327c-2.013 0-4.023-.782-5.538-2.337-2.976-3.058-2.909-7.95.148-10.927l12.955-12.608-12.955-12.61c-3.057-2.976-3.124-7.867-.147-10.926 2.975-3.055 7.866-3.124 10.926-.147l18.643 18.146c1.494 1.454 2.337 3.451 2.337 5.536 0 2.086-.843 4.082-2.337 5.537l-18.643 18.145c-1.503 1.463-3.448 2.191-5.389 2.191z" fill="#f9f6f6"/></g><g><path d="m260.006 121.858h-41.05c-4.268 0-7.726-3.459-7.726-7.726 0-4.268 3.459-7.726 7.726-7.726h41.05c4.268 0 7.726 3.459 7.726 7.726 0 4.268-3.459 7.726-7.726 7.726z" fill="#26457d"/></g><g><path d="m347.306 378.596h-40.407c-4.268 0-7.726-3.459-7.726-7.726 0-4.268 3.459-7.726 7.726-7.726h40.407c4.268 0 7.726 3.459 7.726 7.726.001 4.267-3.458 7.726-7.726 7.726z" fill="#61a2f9"/></g><path d="m505.557 319.867h-356.909c-3.558 0-6.443-2.885-6.443-6.443v-22.27c0-3.558 2.885-6.443 6.443-6.443h356.909c3.558 0 6.443 2.885 6.443 6.443v22.27c0 3.558-2.885 6.443-6.443 6.443z" fill="#5986cb"/><path d="m505.557 284.711h-24.249c3.558 0 6.443 2.885 6.443 6.443v22.27c0 3.558-2.885 6.443-6.443 6.443h24.249c3.558 0 6.443-2.885 6.443-6.443v-22.27c0-3.558-2.885-6.443-6.443-6.443z" fill="#4278c3"/></g></svg>