<svg id="Capa_1" enable-background="new 0 0 512 512" height="512" viewBox="0 0 512 512" width="512" xmlns="http://www.w3.org/2000/svg"><g><path d="m164.737 150.314h182.556v325.996h-182.556z" fill="#dd636e"/><path d="m164.737 165.588v14.484h150.474c6.719 0 12.166 5.447 12.166 12.166v268.798h19.917v-295.448z" fill="#da4a54"/><path d="m358.609 76.104-14.866 10.302h-179.006l-11.317-10.302-16.611-45.328c-1.23-3.356.443-7.083 3.766-8.398 75.303-29.801 152.226-29.89 230.769.049 3.371 1.285 5.088 5.042 3.847 8.429z" fill="#dd636e"/><path d="m371.344 22.427c-2.38-.907-4.759-1.784-7.136-2.637-2.374-.85-4.746-1.672-7.117-2.468.591 1.619.669 3.473.085 5.238l-17.719 53.543h19.152l16.582-45.248c1.242-3.385-.476-7.142-3.847-8.428z" fill="#da4a54"/><path d="m177.272 108.078h157.486v26.963h-157.486z" fill="#21386b"/><path d="m346.077 135.041h-180.125c-2.039 0-3.94 1.033-5.05 2.744l-12 18.512c-2.595 4.004.278 9.291 5.05 9.291h204.126c4.771 0 7.645-5.287 5.05-9.291l-12-18.512c-1.11-1.711-3.011-2.744-5.051-2.744z" fill="#f9f6f6"/><path d="m363.127 156.297-12-18.512c-1.109-1.711-3.01-2.744-5.05-2.744h-22.164c2.039 0 3.94 1.033 5.05 2.744l12 18.512c2.595 4.004-.278 9.291-5.05 9.291h22.164c4.772 0 7.646-5.288 5.05-9.291z" fill="#dddaec"/><path d="m153.42 76.104 10.006 27.303c1.028 2.805 3.698 4.67 6.685 4.67h171.808c2.987 0 5.657-1.865 6.685-4.67l10.006-27.303z" fill="#26457d"/><path d="m339.457 76.104-10.581 31.973h13.042c2.987 0 5.657-1.865 6.685-4.67l10.006-27.303z" fill="#21386b"/><g><path d="m286.328 50.36h-60.627c-4.268 0-7.726-3.459-7.726-7.726s3.459-7.726 7.726-7.726h60.627c4.268 0 7.726 3.459 7.726 7.726s-3.458 7.726-7.726 7.726z" fill="#26457d"/></g><path d="m358.3 512h-204.57c-1.405 0-2.543-1.139-2.543-2.543v-41.728c0-3.696 2.996-6.692 6.692-6.692h196.273c3.696 0 6.692 2.996 6.692 6.692v41.728c-.001 1.404-1.14 2.543-2.544 2.543z" fill="#26457d"/><path d="m354.151 461.036h-17.53c3.696 0 6.692 2.996 6.692 6.692v44.272h14.987c1.405 0 2.543-1.139 2.543-2.543v-41.729c0-3.696-2.996-6.692-6.692-6.692z" fill="#21386b"/><path d="m307.491 253.303c0 1.49-1.208 2.697-2.697 2.697h-97.558c-1.49 0-2.697-1.208-2.697-2.697v-23.71c0-1.49 1.208-2.697 2.697-2.697h97.558c1.49 0 2.697 1.208 2.697 2.697z" fill="#26457d"/><path d="m291.536 226.896v29.104h13.258c1.49 0 2.697-1.208 2.697-2.697v-23.71c0-1.49-1.208-2.697-2.697-2.697z" fill="#21386b"/><path d="m292.566 431.931c0 1.49-1.208 2.697-2.697 2.697h-67.708c-1.49 0-2.697-1.208-2.697-2.697v-93.294c0-1.49 1.208-2.697 2.697-2.697h67.708c1.49 0 2.697 1.208 2.697 2.697z" fill="#f9f6f6"/><path d="m276.611 335.94v98.688h13.258c1.49 0 2.697-1.208 2.697-2.697v-93.293c0-1.49-1.208-2.697-2.697-2.697h-13.258z" fill="#dddaec"/><g><path d="m270.94 309.552h-29.85c-4.268 0-7.726-3.459-7.726-7.726 0-4.268 3.459-7.726 7.726-7.726h29.85c4.268 0 7.726 3.459 7.726 7.726s-3.458 7.726-7.726 7.726z" fill="#da4a54"/></g></g></svg>