<svg id="Capa_1" enable-background="new 0 0 512 512" height="512" viewBox="0 0 512 512" width="512" xmlns="http://www.w3.org/2000/svg"><g><g><g><path d="m246.667 396.754c-3.436 0-6.553-2.342-7.393-5.83l-44.182-183.238c-.985-4.086 1.528-8.198 5.615-9.183 4.088-.988 8.199 1.529 9.183 5.615l44.182 183.238c.985 4.086-1.528 8.198-5.615 9.183-.6.146-1.199.215-1.79.215z" fill="#5986cb"/></g><g><path d="m265.334 396.754c-.591 0-1.19-.069-1.79-.214-4.087-.985-6.601-5.097-5.615-9.183l44.182-183.238c.985-4.086 5.096-6.604 9.183-5.615 4.087.985 6.601 5.097 5.615 9.183l-44.182 183.238c-.84 3.487-3.957 5.829-7.393 5.829z" fill="#5986cb"/></g><g><path d="m210.574 396.754c-2.81 0-5.511-1.562-6.835-4.254l-95.137-193.387c-1.856-3.772-.302-8.334 3.47-10.189 3.773-1.857 8.335-.302 10.189 3.47l95.137 193.387c1.856 3.772.302 8.334-3.47 10.189-1.081.533-2.226.784-3.354.784z" fill="#5986cb"/></g><g><path d="m301.427 396.754c-1.128 0-2.274-.252-3.354-.784-3.772-1.855-5.326-6.417-3.47-10.189l95.137-193.387c1.855-3.773 6.416-5.328 10.189-3.47 3.772 1.855 5.326 6.417 3.47 10.189l-95.137 193.387c-1.324 2.692-4.025 4.254-6.835 4.254z" fill="#5986cb"/></g></g><path d="m256 7.612c-83.239 0-150.718 67.478-150.718 150.718v43.749c0 .738.407 1.417 1.06 1.763s1.441.304 2.053-.109c31.092-20.955 62.454-20.524 94.095 2.17 35.673-23.29 71.347-23.29 107.02 0 32.374-21.711 63.796-23.979 94.049-2.348.608.435 1.409.493 2.074.152s1.084-1.027 1.084-1.774v-43.603c.001-83.24-67.478-150.718-150.717-150.718z" fill="#80b4fb"/><g><path d="m256 7.612c-4.959 0-9.859.247-14.695.715 76.342 7.388 136.023 71.722 136.023 150.003v32.434c8.836 2.382 17.582 6.608 26.232 12.792.609.435 1.41.494 2.075.151s1.082-1.028 1.082-1.777v-43.6c.001-83.24-67.478-150.718-150.717-150.718z" fill="#61a2f9"/></g><g><path d="m309.51 213.514c-4.204 0-7.612-3.407-7.612-7.612v-130.419c0-22.702-21.452-60.26-45.899-60.26-24.446 0-45.898 37.558-45.898 60.26v130.42c0 4.204-3.407 7.612-7.611 7.612s-7.611-3.407-7.611-7.612v-130.42c0-29.692 26.246-75.483 61.121-75.483 15.949 0 31.594 9.695 44.051 27.297 10.53 14.879 17.071 33.343 17.071 48.185v130.42c0 4.205-3.408 7.612-7.612 7.612z" fill="#5986cb"/></g><path d="m353.181 512h-194.362c-6.058 0-10.97-4.911-10.97-10.97v-111.068c0-6.058 4.911-10.97 10.97-10.97h194.362c6.059 0 10.97 4.911 10.97 10.97v111.069c0 6.058-4.912 10.969-10.97 10.969z" fill="#ffd064"/><path d="m353.181 378.992h-22.601c6.059 0 10.97 4.911 10.97 10.97v111.069c0 6.059-4.911 10.97-10.97 10.97h22.601c6.058 0 10.97-4.911 10.97-10.97v-111.069c0-6.059-4.912-10.97-10.97-10.97z" fill="#ffc250"/><path d="m271.989 414.318h-31.978c-2.517 0-4.557-2.04-4.557-4.557v-30.769h41.093v30.769c0 2.517-2.041 4.557-4.558 4.557z" fill="#26457d"/><path d="m261.285 378.992v30.769c0 2.517-2.04 4.557-4.557 4.557h15.261c2.517 0 4.557-2.04 4.557-4.557v-30.769z" fill="#21386b"/><g><path d="m310.143 487.62c-1.983 0-3.963-.769-5.455-2.302-2.933-3.013-2.867-7.832.145-10.763l12.762-12.422-12.762-12.42c-3.012-2.933-3.077-7.751-.146-10.764 2.932-3.011 7.75-3.079 10.764-.146l18.366 17.875c1.472 1.433 2.302 3.4 2.302 5.455s-.831 4.022-2.302 5.454l-18.366 17.876c-1.48 1.44-3.396 2.157-5.308 2.157z" fill="#f9f6f6"/></g><g><path d="m224.426 477.306h-40.44c-4.204 0-7.611-3.407-7.611-7.612s3.407-7.611 7.611-7.611h40.44c4.204 0 7.611 3.407 7.611 7.611s-3.407 7.612-7.611 7.612z" fill="#26457d"/></g></g></svg>