<svg id="Capa_1" enable-background="new 0 0 512 512" height="512" viewBox="0 0 512 512" width="512" xmlns="http://www.w3.org/2000/svg"><g><g><path d="m43.029 394.58h-35.529c-4.143 0-7.5-3.357-7.5-7.5s3.357-7.5 7.5-7.5h28.029v-24.44c0-4.143 3.357-7.5 7.5-7.5s7.5 3.357 7.5 7.5v31.94c0 4.143-3.357 7.5-7.5 7.5z" fill="#21386b"/></g><g><path d="m42.954 224.811c0 4.142-3.357 7.5-7.5 7.5h-22.954c-4.143 0-7.5-3.358-7.5-7.5s3.357-7.5 7.5-7.5h22.954c4.143 0 7.5 3.358 7.5 7.5z" fill="#21386b"/></g><path d="m410.059 112.776c.973-3.356-1.545-6.708-5.04-6.708h-362.487c-9.432 0-17.077 7.646-17.077 17.077v201.002h272.482v-139.304c0-5.393 4.372-9.765 9.765-9.765h80.359c2.335 0 4.39-1.544 5.04-3.787z" fill="#80b4fb"/><g fill="#61a2f9"><path d="m287.756 175.077c-5.393 0-9.765 4.372-9.765 9.765v139.305h19.946v-139.304c0-5.393 4.372-9.765 9.765-9.765h-19.946z"/><path d="m405.019 106.068h-19.946c3.495 0 6.013 3.352 5.04 6.708l-16.958 58.515c-.65 2.243-2.704 3.787-5.04 3.787h19.946c2.335 0 4.39-1.544 5.04-3.787l16.958-58.515c.973-3.357-1.545-6.708-5.04-6.708z"/></g><g><g><path d="m374.623 156.309c-.691 0-1.395-.096-2.092-.298-3.979-1.153-6.269-5.313-5.115-9.292l5.746-19.826c1.152-3.978 5.315-6.267 9.291-5.116 3.979 1.153 6.269 5.313 5.115 9.291l-5.746 19.826c-.95 3.282-3.947 5.415-7.199 5.415z" fill="#f9f6f6"/></g><g><path d="m349.626 156.309c-.691 0-1.395-.096-2.092-.298-3.979-1.153-6.269-5.313-5.115-9.292l5.746-19.826c1.152-3.978 5.315-6.267 9.291-5.116 3.979 1.153 6.269 5.313 5.115 9.291l-5.746 19.826c-.95 3.282-3.947 5.415-7.199 5.415z" fill="#f9f6f6"/></g><g><path d="m324.629 156.309c-.691 0-1.395-.096-2.092-.298-3.979-1.153-6.269-5.312-5.116-9.291l5.745-19.826c1.152-3.979 5.312-6.271 9.292-5.116 3.979 1.153 6.269 5.312 5.116 9.291l-5.745 19.826c-.951 3.281-3.947 5.414-7.2 5.414z" fill="#f9f6f6"/></g></g><path d="m504.5 304.249c0-4.667-1.271-9.247-3.677-13.246l-4.218-7.011-51.535-25.237c-3.042 0-5.508-2.466-5.508-5.508l-28.23-50.403h-77.084c-4.5 0-8.148 3.648-8.148 8.148v154.148h172.786c3.101 0 5.615-2.514 5.615-5.615v-55.276z" fill="#f9f6f6"/><path d="m504.5 359.525v-55.276c0-2.94-.507-5.845-1.481-8.592-.573-1.614-1.306-3.174-2.196-4.654l-4.218-7.011h-21.266l4.218 7.011c2.406 3.999 3.677 8.579 3.677 13.246v60.891h15.65c3.102 0 5.616-2.514 5.616-5.615z" fill="#dddaec"/><path d="m326.099 365.14h-303.606c-8.28 0-14.992-6.712-14.992-14.992v-23.054c0-1.627 1.319-2.946 2.946-2.946h315.653v40.992z" fill="#5986cb"/><path d="m309.376 324.148h16.723v40.992h-16.723z" fill="#4278c3"/><g><path d="m170.626 261.263c-9.333 9.084-24.263 8.882-33.347-.451l-5.331-5.478c-.683-.702-.668-1.825.034-2.508l37.908-36.898c.221-.215.346-.511.346-.82s-.125-.605-.346-.82l-37.908-36.899c-.702-.683-.717-1.806-.034-2.508l5.331-5.477c9.084-9.333 24.014-9.535 33.347-.451l35.074 34.14c1.819 1.77 3.299 3.886 4.167 6.271 2.306 6.335.587 13.133-3.97 17.568z" fill="#f9f6f6"/></g><path d="m443.177 202.843h-31.845v75.641c0 3.042 2.466 5.508 5.508 5.508h79.765l-46.446-77.201c-1.474-2.45-4.124-3.948-6.982-3.948z" fill="#e4f6ff"/><path d="m421.911 202.843c2.859 0 5.508 1.498 6.982 3.948l46.446 77.201h21.266l-46.446-77.201c-1.474-2.449-4.123-3.948-6.982-3.948h-31.845z" fill="#d3effb"/><g><g><path d="m382.616 271.784c-4.143 0-7.5-3.357-7.5-7.5v-24.538c0-4.142 3.357-7.5 7.5-7.5s7.5 3.358 7.5 7.5v24.538c0 4.142-3.358 7.5-7.5 7.5z" fill="#80b4fb"/></g><g><path d="m356.23 271.784c-4.143 0-7.5-3.357-7.5-7.5v-24.538c0-4.142 3.357-7.5 7.5-7.5s7.5 3.358 7.5 7.5v24.538c0 4.142-3.357 7.5-7.5 7.5z" fill="#80b4fb"/></g></g><g><path d="m504.5 324.734h-10.955c-4.143 0-7.5-3.357-7.5-7.5s3.357-7.5 7.5-7.5h10.955c4.143 0 7.5 3.357 7.5 7.5s-3.357 7.5-7.5 7.5z" fill="#da4a54"/></g><circle cx="408.511" cy="363.377" fill="#26457d" r="42.555"/><path d="m408.511 320.822c-2.761 0-5.457.272-8.071.774 19.641 3.773 34.484 21.039 34.484 41.781s-14.842 38.008-34.484 41.781c2.614.502 5.31.774 8.071.774 23.502 0 42.555-19.052 42.555-42.555 0-23.502-19.052-42.555-42.555-42.555z" fill="#21386b"/><g><path d="m408.511 373.982c-4.143 0-7.5-3.357-7.5-7.5v-6.209c0-4.143 3.357-7.5 7.5-7.5s7.5 3.357 7.5 7.5v6.209c0 4.142-3.358 7.5-7.5 7.5z" fill="#f9f6f6"/></g><circle cx="122.57" cy="363.377" fill="#26457d" r="42.555"/><path d="m122.57 320.822c-2.761 0-5.457.272-8.071.774 19.641 3.773 34.484 21.039 34.484 41.781s-14.842 38.008-34.484 41.781c2.614.502 5.31.774 8.071.774 23.502 0 42.555-19.052 42.555-42.555 0-23.502-19.052-42.555-42.555-42.555z" fill="#21386b"/><g><path d="m122.57 373.982c-4.143 0-7.5-3.357-7.5-7.5v-6.209c0-4.143 3.357-7.5 7.5-7.5s7.5 3.357 7.5 7.5v6.209c0 4.142-3.357 7.5-7.5 7.5z" fill="#f9f6f6"/></g><path d="m300.614 387.919h-52.202c-3.05 0-5.523-2.473-5.523-5.523v-17.256h63.247v17.257c0 3.05-2.472 5.522-5.522 5.522z" fill="#26457d"/><path d="m290.947 365.14v17.257c0 3.05-2.473 5.523-5.522 5.523h15.189c3.05 0 5.522-2.472 5.522-5.523v-17.257z" fill="#21386b"/></g></svg>