<svg id="Capa_1" enable-background="new 0 0 512 512" height="512" viewBox="0 0 512 512" width="512" xmlns="http://www.w3.org/2000/svg"><g><g><path d="m408.186 437.595h-304.372v-428.975c0-4.76 3.859-8.62 8.62-8.62h287.133c4.76 0 8.62 3.859 8.62 8.62v428.975z" fill="#80b4fb"/><path d="m399.566 0h-20.836c4.76 0 8.619 3.859 8.619 8.619v428.975h20.837v-428.974c0-4.761-3.859-8.62-8.62-8.62z" fill="#61a2f9"/></g><g><path d="m325.699 447.897h-139.399v-376.588c0-3.764 3.051-6.815 6.815-6.815h125.769c3.764 0 6.815 3.051 6.815 6.815z" fill="#5986cb"/><path d="m318.884 64.495h-22.107c3.764 0 6.815 3.051 6.815 6.815v376.587h22.108v-376.588c0-3.763-3.052-6.814-6.816-6.814z" fill="#4278c3"/></g><g><path d="m366.81 227.929c-4.268 0-7.726-3.459-7.726-7.726v-20.522c0-4.268 3.459-7.726 7.726-7.726s7.726 3.459 7.726 7.726v20.522c.001 4.267-3.458 7.726-7.726 7.726z" fill="#f9f6f6"/></g><path d="m440.448 416.991h-170.317v-125.867c0-5.264 4.268-9.532 9.532-9.532h151.253c5.264 0 9.532 4.268 9.532 9.532z" fill="#ffd064"/><path d="m430.916 281.592h-20.678c5.265 0 9.532 4.268 9.532 9.532v125.867h20.678v-125.867c0-5.264-4.268-9.532-9.532-9.532z" fill="#ffc250"/><path d="m369.183 329.926h-27.787c-2.187 0-3.96-1.773-3.96-3.96v-44.374h35.708v44.374c-.001 2.187-1.774 3.96-3.961 3.96z" fill="#26457d"/><path d="m359.882 281.592v44.374c0 2.187-1.773 3.96-3.96 3.96h13.261c2.187 0 3.96-1.773 3.96-3.96v-44.374z" fill="#21386b"/><g><path d="m393.519 396.918c-2.013 0-4.023-.781-5.537-2.337-2.977-3.058-2.91-7.95.147-10.926l10.27-9.996-10.27-9.997c-3.057-2.976-3.124-7.867-.147-10.926 2.976-3.057 7.867-3.125 10.926-.147l15.958 15.533c1.494 1.455 2.337 3.451 2.337 5.536s-.843 4.082-2.337 5.536l-15.958 15.532c-1.503 1.464-3.448 2.192-5.389 2.192z" fill="#f9f6f6"/></g><g><path d="m336.673 387.956h-35.141c-4.268 0-7.726-3.459-7.726-7.726s3.459-7.726 7.726-7.726h35.141c4.268 0 7.726 3.459 7.726 7.726s-3.459 7.726-7.726 7.726z" fill="#26457d"/></g><g><path d="m256 251.879c-4.268 0-7.726-3.459-7.726-7.726v-122.05c0-4.268 3.459-7.726 7.726-7.726 4.268 0 7.726 3.459 7.726 7.726v122.049c0 4.268-3.459 7.727-7.726 7.727z" fill="#4278c3"/></g><path d="m450.607 512h-389.214c-2.991 0-5.417-2.425-5.417-5.417v-84.176c0-2.991 2.425-5.417 5.417-5.417h389.214c2.991 0 5.417 2.425 5.417 5.417v84.176c0 2.992-2.425 5.417-5.417 5.417z" fill="#f9f6f6"/><path d="m431.244 416.991v95.009h19.363c2.991 0 5.417-2.425 5.417-5.417v-84.176c0-2.991-2.425-5.417-5.417-5.417h-19.363z" fill="#dddaec"/><g><path d="m325.216 472.222h-138.433c-4.268 0-7.726-3.459-7.726-7.726s3.459-7.726 7.726-7.726h138.433c4.268 0 7.726 3.459 7.726 7.726s-3.459 7.726-7.726 7.726z" fill="#dddaec"/></g></g></svg>