<svg id="Capa_1" enable-background="new 0 0 512 512" height="512" viewBox="0 0 512 512" width="512" xmlns="http://www.w3.org/2000/svg"><g><g><path d="m168.921 55.818c-4.204 0-7.611-3.407-7.611-7.611v-40.596c0-4.204 3.407-7.611 7.611-7.611s7.611 3.407 7.611 7.611v40.595c.001 4.204-3.407 7.612-7.611 7.612z" fill="#21386b"/></g><g><path d="m275.72 469.133h-156.404c-3.32 0-6.012-2.692-6.012-6.012v-45.884h168.428v45.884c0 3.32-2.692 6.012-6.012 6.012z" fill="#dd636e"/><path d="m265.119 417.236v45.884c0 3.32-2.692 6.012-6.012 6.012h16.612c3.32 0 6.012-2.692 6.012-6.012v-45.884z" fill="#da4a54"/></g><path d="m121.322 335.711h-43.138c-3.94 0-7.134-3.194-7.134-7.134v-102.713c0-3.94 3.194-7.134 7.134-7.134h43.138z" fill="#dd636e"/><path d="m129.811 146.357h42.426v48.209h-42.426z" fill="#26457d"/><path d="m228.515 155.695h-119.187c-2.653 0-4.804-2.151-4.804-4.804v-108.03c0-2.653 2.151-4.804 4.804-4.804h119.188c2.653 0 4.804 2.151 4.804 4.804v108.03c-.001 2.654-2.151 4.804-4.805 4.804z" fill="#80b4fb"/><path d="m228.515 38.057h-17.897c2.653 0 4.804 2.151 4.804 4.804v108.03c0 2.653-2.151 4.804-4.804 4.804h17.897c2.653 0 4.804-2.151 4.804-4.804v-108.03c0-2.653-2.15-4.804-4.804-4.804z" fill="#61a2f9"/><path d="m294.277 437.534h-191.065c-1.208 0-2.188-.98-2.188-2.188v-247.93c0-1.208.98-2.188 2.188-2.188h113.561c.653 0 1.272.292 1.688.795l78.004 94.543v154.779c0 1.209-.98 2.189-2.188 2.189z" fill="#80b4fb"/><path d="m216.773 185.228h-22.475l78.66 95.338v156.967h21.319c1.208 0 2.188-.98 2.188-2.188v-154.778l-78.004-94.543c-.416-.504-1.035-.796-1.688-.796z" fill="#61a2f9"/><circle cx="154.74" cy="484.51" fill="#26457d" r="27.489"/><circle cx="238.851" cy="484.51" fill="#26457d" r="27.489"/><path d="m154.74 457.021c-2.84 0-5.578.431-8.155 1.23 11.2 3.474 19.334 13.917 19.334 26.259s-8.134 22.784-19.334 26.259c2.577.8 5.316 1.23 8.155 1.23 15.182 0 27.489-12.307 27.489-27.489s-12.307-27.489-27.489-27.489z" fill="#21386b"/><path d="m238.851 457.021c-2.84 0-5.578.431-8.155 1.23 11.2 3.474 19.334 13.917 19.334 26.259s-8.134 22.784-19.334 26.259c2.577.8 5.316 1.23 8.155 1.23 15.182 0 27.489-12.307 27.489-27.489s-12.307-27.489-27.489-27.489z" fill="#21386b"/><g><path d="m215.983 412.071h-78.274c-4.204 0-7.611-3.407-7.611-7.611s3.407-7.612 7.611-7.612h78.274c4.204 0 7.611 3.407 7.611 7.612s-3.407 7.611-7.611 7.611z" fill="#f9f6f6"/></g><g><path d="m324.822 355.923h-90.669c-3.633 0-7.119-1.443-9.688-4.013l-45.214-45.214c-5.35-5.35-5.35-14.025 0-19.376 5.35-5.35 14.025-5.35 19.376 0l41.201 41.201h84.994z" fill="#26457d"/></g><g><path d="m305.067 328.521h19.755v27.401h-19.755z" fill="#21386b"/></g><path d="m377.951 364.768h-50.792c-1.29 0-2.336-1.046-2.336-2.336v-41.024c0-1.29 1.046-2.336 2.336-2.336h96.489c0 25.237-20.46 45.696-45.697 45.696z" fill="#80b4fb"/><path d="m404.606 319.071c0 25.238-20.459 45.697-45.697 45.697h19.042c25.238 0 45.697-20.459 45.697-45.697z" fill="#61a2f9"/><g><g><path d="m139.514 219.886h-9.959c-4.204 0-7.611-3.407-7.611-7.611s3.407-7.611 7.611-7.611h9.959c4.204 0 7.611 3.407 7.611 7.611s-3.407 7.611-7.611 7.611z" fill="#dd636e"/></g><g><path d="m139.514 243.887h-9.959c-4.204 0-7.611-3.407-7.611-7.611s3.407-7.611 7.611-7.611h9.959c4.204 0 7.611 3.407 7.611 7.611s-3.407 7.611-7.611 7.611z" fill="#dd636e"/></g><g><path d="m139.514 267.889h-9.959c-4.204 0-7.611-3.407-7.611-7.612s3.407-7.611 7.611-7.611h9.959c4.204 0 7.611 3.407 7.611 7.611s-3.407 7.612-7.611 7.612z" fill="#dd636e"/></g></g><g><path d="m205.421 240.842c-4.204 0-7.611-3.407-7.611-7.611v-14.501c0-4.204 3.407-7.611 7.611-7.611s7.611 3.407 7.611 7.611v14.501c0 4.204-3.407 7.611-7.611 7.611z" fill="#f9f6f6"/></g><g><path d="m201.388 82.786c-4.204 0-7.611-3.407-7.611-7.611v-5.521c0-4.204 3.407-7.611 7.611-7.611s7.612 3.406 7.612 7.61v5.521c0 4.205-3.408 7.612-7.612 7.612z" fill="#21386b"/></g><path d="m233.319 131.876h-36.335c-2.414 0-4.371-1.957-4.371-4.371v-15.958c0-2.414 1.957-4.371 4.371-4.371h36.335z" fill="#dd636e"/><path d="m215.422 107.176h17.897v24.7h-17.897z" fill="#da4a54"/><path d="m154.113 114.746h-17.525c-2.692 0-4.875-2.183-4.875-4.875v-32.582c0-2.692 2.183-4.875 4.875-4.875h17.525c2.692 0 4.875 2.183 4.875 4.875v32.582c0 2.692-2.182 4.875-4.875 4.875z" fill="#f9f6f6"/><path d="m431.559 319.071h-149.004c-5.186 0-9.391-4.204-9.391-9.391v-129.828c0-5.186 4.204-9.391 9.391-9.391h149.004c5.186 0 9.391 4.204 9.391 9.391v129.829c-.001 5.186-4.205 9.39-9.391 9.39z" fill="#ffd064"/><path d="m431.559 170.462h-19.347c5.186 0 9.391 4.204 9.391 9.391v129.829c0 5.186-4.204 9.39-9.391 9.39h19.347c5.186 0 9.391-4.204 9.391-9.39v-129.83c-.001-5.186-4.205-9.39-9.391-9.39z" fill="#ffc250"/><path d="m370.744 218.077h-27.374c-2.155 0-3.901-1.747-3.901-3.901v-43.714h35.177v43.714c-.001 2.155-1.748 3.901-3.902 3.901z" fill="#26457d"/><path d="m361.581 170.462v43.714c0 2.155-1.747 3.901-3.901 3.901h13.064c2.155 0 3.901-1.747 3.901-3.901v-43.714z" fill="#21386b"/><g><path d="m394.717 299.297c-1.983 0-3.963-.77-5.455-2.302-2.933-3.013-2.867-7.832.145-10.763l10.117-9.848-10.117-9.848c-3.012-2.932-3.077-7.75-.145-10.763 2.932-3.012 7.75-3.078 10.763-.145l15.72 15.302c1.472 1.432 2.302 3.399 2.302 5.454s-.831 4.022-2.302 5.454l-15.72 15.302c-1.479 1.44-3.395 2.157-5.308 2.157z" fill="#f9f6f6"/></g><g><path d="m338.716 290.469h-34.618c-4.204 0-7.611-3.407-7.611-7.611s3.407-7.612 7.611-7.612h34.618c4.204 0 7.612 3.407 7.612 7.612s-3.408 7.611-7.612 7.611z" fill="#26457d"/></g><g><path d="m167.518 382.288h-29.809c-4.204 0-7.611-3.407-7.611-7.612s3.407-7.612 7.611-7.612h29.809c4.204 0 7.611 3.407 7.611 7.612s-3.407 7.612-7.611 7.612z" fill="#f9f6f6"/></g></g></svg>