<svg id="Capa_1" enable-background="new 0 0 512 512" height="512" viewBox="0 0 512 512" width="512" xmlns="http://www.w3.org/2000/svg"><g><path d="m339.153 475.385c0 6.6-5.35 11.95-11.95 11.95h-315.253c-6.6 0-11.95-5.35-11.95-11.95v-293.904c0-6.6 5.35-11.95 11.95-11.95h315.254c6.6 0 11.95 5.35 11.95 11.95v293.904z" fill="#ffd064"/><path d="m303.095 169.532c6.491 0 11.754 5.262 11.754 11.754v306.049h12.354c6.6 0 11.95-5.35 11.95-11.95v-293.904c0-6.6-5.35-11.95-11.95-11.95h-24.108z" fill="#ffc250"/><g><path d="m258.091 438.326c-8.378 8.155-21.781 7.974-29.936-.405l-5.426-5.575c-.26-.267-.254-.694.013-.954l34.947-34.016c.13-.127.204-.301.204-.484 0-.182-.074-.357-.204-.484l-34.947-34.017c-.267-.26-.273-.687-.013-.954l5.426-5.575c8.155-8.378 21.558-8.559 29.936-.404l31.486 30.647c1.633 1.589 2.962 3.488 3.741 5.629 2.071 5.687.527 11.79-3.564 15.771z" fill="#f9f6f6"/></g><path d="m190.468 225.319h-41.783c-3.867 0-7.002-3.135-7.002-7.002v-48.785h55.787v48.785c0 3.867-3.135 7.002-7.002 7.002z" fill="#26457d"/><path d="m177.131 169.532v48.785c0 3.867-3.135 7.002-7.002 7.002h20.339c3.867 0 7.002-3.135 7.002-7.002v-48.785z" fill="#21386b"/><g><g><path d="m65.641 425.379c-4.268 0-7.726-3.459-7.726-7.726v-52.277c0-4.268 3.459-7.726 7.726-7.726s7.726 3.459 7.726 7.726v52.277c0 4.268-3.459 7.726-7.726 7.726z" fill="#26457d"/></g><g><path d="m43.589 386.463c-1.994 0-3.986-.767-5.497-2.297-2.999-3.036-2.968-7.929.067-10.927l22.051-21.778c3.01-2.972 7.85-2.973 10.858-.001l22.052 21.778c3.036 2.999 3.067 7.89.068 10.927-2.999 3.038-7.892 3.067-10.926.068l-16.624-16.415-16.622 16.415c-1.503 1.488-3.466 2.23-5.427 2.23z" fill="#26457d"/></g></g><g><g><path d="m136.299 425.379c-4.268 0-7.726-3.459-7.726-7.726v-52.277c0-4.268 3.459-7.726 7.726-7.726 4.268 0 7.726 3.459 7.726 7.726v52.277c.001 4.268-3.458 7.726-7.726 7.726z" fill="#26457d"/></g><g><path d="m158.351 386.463c-1.962 0-3.924-.742-5.43-2.229l-16.622-16.415-16.622 16.415c-3.037 2.999-7.93 2.968-10.927-.067-2.999-3.036-2.968-7.929.067-10.927l22.051-21.778c3.01-2.972 7.849-2.972 10.859 0l22.051 21.778c3.035 2.998 3.066 7.89.067 10.927-1.508 1.529-3.501 2.296-5.494 2.296z" fill="#26457d"/></g></g><path d="m244.008 69.447c-1.382.468-2.312 1.765-2.312 3.224v21.103c0 82.001 43.747 157.773 114.762 198.774l18.688 10.79c1.053.608 2.35.608 3.403 0l18.688-10.79c71.016-41.001 114.763-116.773 114.763-198.775v-21.103c0-1.459-.93-2.756-2.312-3.224l-131.749-44.601c-.708-.24-1.475-.24-2.183 0z" fill="#80b4fb"/><path d="m486.422 61.57v19.294c0 82.001-43.747 157.773-114.762 198.774l-18.742 10.821c1.173.705 2.352 1.402 3.54 2.089l18.688 10.79c1.053.608 2.35.608 3.403 0l18.688-10.79c71.016-41.001 114.763-116.773 114.763-198.774v-21.104c0-1.459-.93-2.756-2.312-3.224z" fill="#61a2f9"/><path d="m371.649 105.174c2.375-3.891 8.024-3.891 10.399 0l14.544 23.828c.846 1.385 2.209 2.376 3.788 2.752l27.156 6.469c4.434 1.056 6.18 6.429 3.213 9.89l-18.167 21.195c-1.056 1.232-1.577 2.835-1.447 4.453l2.239 27.826c.366 4.543-4.205 7.864-8.413 6.112l-25.772-10.728c-1.498-.624-3.184-.624-4.682 0l-25.772 10.729c-4.208 1.752-8.779-1.569-8.413-6.112l2.239-27.826c.13-1.618-.391-3.221-1.447-4.453l-18.167-21.195c-2.966-3.461-1.22-8.834 3.213-9.89l27.156-6.469c1.579-.376 2.942-1.367 3.788-2.752z" fill="#f9f6f6"/><path d="m430.749 148.113c2.966-3.461 1.22-8.834-3.213-9.89l-14.173-3.376c-10.441 14.601-32.74 39.636-72.336 57.987l-.704 8.753c-.366 4.544 4.205 7.864 8.413 6.113l25.772-10.728c1.498-.624 3.184-.624 4.682 0l25.772 10.728c4.208 1.752 8.779-1.569 8.413-6.113l-2.239-27.825c-.13-1.618.391-3.221 1.447-4.453z" fill="#dddaec"/></g></svg>