<svg id="Capa_1" enable-background="new 0 0 512 512" height="512" viewBox="0 0 512 512" width="512" xmlns="http://www.w3.org/2000/svg"><g><path d="m445.559 200.352c0 110.651-89.7 311.648-200.352 311.648s-200.352-200.997-200.352-311.648 89.701-200.352 200.352-200.352 200.352 89.701 200.352 200.352z" fill="#80b4fb"/><path d="m245.207 0c-5.079 0-10.113.193-15.096.564 103.599 7.718 185.255 94.215 185.255 199.788s-81.656 293.384-185.256 310.402c4.984.819 10.018 1.246 15.096 1.246 110.651 0 200.352-200.997 200.352-311.648s-89.699-200.352-200.351-200.352z" fill="#61a2f9"/><circle cx="245.207" cy="200.352" fill="#5986cb" r="83.53"/><path d="m245.207 116.822c-4.977 0-9.844.46-14.581 1.295 39.176 6.901 68.948 41.08 68.948 82.235s-29.772 75.334-68.948 82.235c4.738.835 9.604 1.295 14.581 1.295 46.132 0 83.53-37.397 83.53-83.53s-37.398-83.53-83.53-83.53z" fill="#4278c3"/><path d="m456.668 473.23h-166.245c-5.786 0-10.477-4.691-10.477-10.477v-144.851c0-5.786 4.691-10.477 10.477-10.477h166.245c5.786 0 10.477 4.691 10.477 10.477v144.851c0 5.786-4.691 10.477-10.477 10.477z" fill="#ffd064"/><path d="m456.668 307.425h-21.586c5.786 0 10.477 4.691 10.477 10.477v144.851c0 5.786-4.691 10.477-10.477 10.477h21.586c5.786 0 10.477-4.691 10.477-10.477v-144.851c0-5.786-4.691-10.477-10.477-10.477z" fill="#ffc250"/><path d="m388.816 360.55h-30.542c-2.404 0-4.353-1.949-4.353-4.353v-48.772h39.247v48.772c.001 2.404-1.948 4.353-4.352 4.353z" fill="#26457d"/><path d="m378.593 307.425v48.772c0 2.404-1.949 4.353-4.353 4.353h14.576c2.404 0 4.353-1.949 4.353-4.353v-48.772z" fill="#21386b"/><g><path d="m415.563 450.401c-2.013 0-4.023-.781-5.537-2.337-2.977-3.058-2.91-7.95.147-10.926l11.852-11.536-11.852-11.536c-3.057-2.976-3.124-7.867-.147-10.926 2.975-3.055 7.866-3.127 10.926-.147l17.54 17.072c1.494 1.454 2.337 3.451 2.337 5.536s-.843 4.082-2.337 5.536l-17.54 17.072c-1.503 1.464-3.447 2.192-5.389 2.192z" fill="#f9f6f6"/></g><g><path d="m353.083 440.551h-38.624c-4.268 0-7.726-3.459-7.726-7.726s3.459-7.726 7.726-7.726h38.624c4.268 0 7.726 3.459 7.726 7.726s-3.458 7.726-7.726 7.726z" fill="#26457d"/></g></g></svg>