<svg id="Capa_1" enable-background="new 0 0 512 512" height="512" viewBox="0 0 512 512" width="512" xmlns="http://www.w3.org/2000/svg"><g><path d="m465.338 451.756h-35.831v-229.183h18.811c9.4 0 17.02 7.62 17.02 17.02z" fill="#dddaec"/><path d="m46.662 443.514h30.68v-220.941h-13.66c-9.4 0-17.02 7.62-17.02 17.02z" fill="#dddaec"/><path d="m256 16.164-183.81 144.537v280.753h367.62v-280.753z" fill="#5986cb"/><path d="m259.656 19.039-3.656-2.875-3.656 2.875-180.154 141.662v39.173l178.156-140.09c3.318-2.609 7.991-2.609 11.309 0l151.512 119.14c6.965 5.477 11.031 13.847 11.031 22.708v239.822h15.612v-241.579-39.173z" fill="#4278c3"/><g><path d="m453.233 187.43c-3.497 0-7.019-1.129-9.98-3.459l-186.524-146.671c-.428-.336-1.03-.336-1.458 0l-186.524 146.671c-7.016 5.515-17.18 4.303-22.696-2.715-5.518-7.017-4.303-17.179 2.715-22.696l197.243-155.102c5.861-4.611 14.12-4.611 19.981 0l197.243 155.101c7.018 5.517 8.233 15.68 2.715 22.696-3.188 4.056-7.928 6.175-12.715 6.175z" fill="#80b4fb"/></g><g><path d="m465.949 181.256c5.518-7.017 4.303-17.179-2.715-22.696l-197.243-155.102c-5.861-4.611-14.12-4.611-19.981 0l-.503.395 196.74 154.706c7.018 5.517 8.233 15.68 2.715 22.696-.677.861-1.436 1.615-2.238 2.299l.529.416c2.961 2.33 6.483 3.459 9.98 3.459 4.787.001 9.527-2.118 12.716-6.173z" fill="#61a2f9"/></g><path d="m487.607 512h-463.214c-3.03 0-5.486-2.456-5.486-5.486v-59.574c0-3.03 2.456-5.486 5.486-5.486h463.215c3.03 0 5.486 2.456 5.486 5.486v59.574c0 3.03-2.457 5.486-5.487 5.486z" fill="#26457d"/><path d="m475.27 441.454v70.546h12.338c3.03 0 5.486-2.456 5.486-5.486v-59.574c0-3.03-2.456-5.486-5.486-5.486z" fill="#21386b"/><path d="m394.021 441.454h-276.042v-227.065c0-5.839 4.733-10.572 10.572-10.572h254.898c5.839 0 10.572 4.733 10.572 10.572z" fill="#f9f6f6"/><path d="m394.021 214.389c0-5.839-4.733-10.572-10.571-10.572h-18.734c5.838 0 10.572 4.733 10.572 10.572v227.065h18.734v-227.065z" fill="#dddaec"/><path d="m327.488 374.922h66.532v66.532h-66.532z" fill="#ffd064"/><path d="m378.377 374.923h15.644v66.53h-15.644z" fill="#ffc250"/><path d="m260.955 374.922h66.532v66.532h-66.532z" fill="#ffd064"/><path d="m311.847 374.923h15.644v66.53h-15.644z" fill="#ffc250"/><g><path d="m301.948 374.922v12.301c0 4.265-3.451 7.727-7.727 7.727-4.265 0-7.727-3.462-7.727-7.727v-12.301z" fill="#26457d"/></g><path d="m359.575 308.39c.651 0 1.179.528 1.179 1.179v65.353h-66.532v-66.532z" fill="#f1cb86"/><path d="m345.112 308.393v66.53h15.644v-65.351c0-.651-.528-1.179-1.179-1.179z" fill="#e7a561"/><g><path d="m335.214 308.39v12.301c0 4.265-3.462 7.727-7.727 7.727s-7.727-3.462-7.727-7.727v-12.301z" fill="#26457d"/></g><path d="m294.222 308.39v66.532h-66.522v-65.353c0-.651.528-1.179 1.179-1.179z" fill="#f1cb86"/><path d="m278.582 308.393h15.644v66.53h-15.644z" fill="#e7a561"/><g><path d="m268.692 308.39v12.301c0 4.265-3.462 7.727-7.727 7.727-4.275 0-7.727-3.462-7.727-7.727v-12.301z" fill="#26457d"/></g><path d="m260.955 374.922v66.532h-66.522v-65.353c0-.651.528-1.179 1.179-1.179z" fill="#ffd064"/><path d="m245.317 374.923h15.644v66.53h-15.644z" fill="#ffc250"/><g><path d="m235.426 374.922v12.301c0 4.265-3.461 7.727-7.727 7.727-4.275 0-7.727-3.462-7.727-7.727v-12.301z" fill="#26457d"/></g><path d="m256 236.536c4.268 0 7.727-3.459 7.727-7.727v-24.991h-15.453v24.991c-.001 4.268 3.458 7.727 7.726 7.727z" fill="#26457d"/><g><path d="m270.391 236.536h-28.781c-4.268 0-7.727-3.459-7.727-7.727s3.459-7.727 7.727-7.727h28.781c4.268 0 7.727 3.459 7.727 7.727-.001 4.268-3.46 7.727-7.727 7.727z" fill="#21386b"/></g><g><path d="m366.209 484.663h-220.418c-4.268 0-7.727-3.459-7.727-7.727s3.459-7.727 7.727-7.727h220.418c4.268 0 7.727 3.459 7.727 7.727s-3.459 7.727-7.727 7.727z" fill="#21386b"/></g><g><path d="m368.481 374.922v12.301c0 4.265-3.462 7.727-7.727 7.727s-7.727-3.462-7.727-7.727v-12.301z" fill="#26457d"/></g></g></svg>