<svg id="Capa_1" enable-background="new 0 0 512 512" height="512" viewBox="0 0 512 512" width="512" xmlns="http://www.w3.org/2000/svg"><g><path d="m482.589 448.32h-453.177v-23.154c0-7.085 5.743-12.828 12.828-12.828h427.52c7.085 0 12.828 5.743 12.828 12.828v23.154z" fill="#26457d"/><path d="m469.76 412.338h-25.355c7.085 0 12.828 5.743 12.828 12.828v23.154h25.355v-23.154c.001-7.085-5.743-12.828-12.828-12.828z" fill="#21386b"/><path d="m434.079 412.338h-356.158v-343.815c0-6.817 5.526-12.343 12.343-12.343h331.472c6.817 0 12.343 5.526 12.343 12.343z" fill="#ffd064"/><path d="m421.736 56.18h-25.522c6.817 0 12.343 5.526 12.343 12.343v343.815h25.522v-343.815c.001-6.817-5.526-12.343-12.343-12.343z" fill="#ffc250"/><g><path d="m504.5 455.82h-497c-4.143 0-7.5-3.357-7.5-7.5s3.357-7.5 7.5-7.5h497c4.143 0 7.5 3.357 7.5 7.5s-3.357 7.5-7.5 7.5z" fill="#95d6a4"/></g><path d="m277.939 114.764h-43.878c-4.061 0-7.353-3.292-7.353-7.353v-51.231h58.584v51.231c0 4.061-3.292 7.353-7.353 7.353z" fill="#26457d"/><path d="m263.934 56.18v51.231c0 4.061-3.292 7.353-7.353 7.353h21.359c4.061 0 7.353-3.292 7.353-7.353v-51.231z" fill="#21386b"/><path d="m314.624 224.997v-57.48c0-.632-.512-1.145-1.145-1.145h-114.959c-.632 0-1.145.512-1.145 1.145v57.48c0 26.932 18.165 49.609 42.909 56.478 2.809.78 4.778 3.298 4.778 6.212v48.969c0 1.488-1.206 2.694-2.694 2.694h-22.32c-7.724 0-13.986 6.262-13.986 13.986v7.664c0 .632.512 1.145 1.145 1.145h97.585c.632 0 1.145-.512 1.145-1.145v-7.663c0-7.724-6.262-13.986-13.986-13.986h-22.319c-1.488 0-2.694-1.206-2.694-2.694v-48.969c0-2.915 1.969-5.433 4.778-6.212 24.743-6.87 42.908-29.547 42.908-56.479z" fill="#f9f6f6"/><g fill="#dddaec"><path d="m305.937 353.337c0-7.724-6.262-13.986-13.986-13.986h-13.305c7.724 0 13.986 6.262 13.986 13.986v8.807h12.161c.632 0 1.145-.512 1.145-1.145v-7.662z"/><path d="m301.319 166.373v58.625c0 26.932-18.166 49.609-42.909 56.478-2.808.78-4.778 3.298-4.778 6.212v48.969c0 1.488 1.206 2.694 2.694 2.694h13.305c-1.488 0-2.694-1.206-2.694-2.694v-48.969c0-2.915 1.969-5.433 4.778-6.212 24.744-6.869 42.909-29.546 42.909-56.478v-57.48c0-.632-.512-1.145-1.145-1.145z"/></g><g><path d="m244.601 240.647c-1.76 0-3.526-.615-4.952-1.869-3.109-2.736-3.412-7.476-.676-10.585l17.3-19.66-19.073-12.677c-3.392-2.254-4.364-6.802-2.193-10.246l14.648-23.236c2.209-3.504 6.841-4.552 10.345-2.345 3.504 2.209 4.554 6.841 2.345 10.345l-10.744 17.043 20.127 13.378c1.804 1.198 3.001 3.118 3.284 5.265s-.375 4.311-1.805 5.937l-22.973 26.106c-1.482 1.683-3.553 2.544-5.633 2.544z" fill="#26457d"/></g><g><path d="m383.578 110.618h-33.474c-4.143 0-7.5-3.357-7.5-7.5s3.357-7.5 7.5-7.5h33.474c4.143 0 7.5 3.357 7.5 7.5s-3.357 7.5-7.5 7.5z" fill="#21386b"/></g><g><path d="m383.578 140.349h-53.474c-4.143 0-7.5-3.357-7.5-7.5s3.357-7.5 7.5-7.5h53.474c4.143 0 7.5 3.357 7.5 7.5s-3.357 7.5-7.5 7.5z" fill="#21386b"/></g><g><path d="m165.954 374.788h-50.15c-4.143 0-7.5-3.357-7.5-7.5s3.357-7.5 7.5-7.5h50.15c4.143 0 7.5 3.357 7.5 7.5s-3.357 7.5-7.5 7.5z" fill="#21386b"/></g><g><path d="m145.954 342.425h-30.15c-4.143 0-7.5-3.357-7.5-7.5s3.357-7.5 7.5-7.5h30.15c4.143 0 7.5 3.357 7.5 7.5s-3.357 7.5-7.5 7.5z" fill="#21386b"/></g><g><path d="m365.771 374.788c-1.954 0-3.905-.758-5.375-2.269-2.89-2.969-2.825-7.717.143-10.605l13.633-13.27-13.633-13.271c-2.968-2.889-3.032-7.637-.143-10.605s7.638-3.033 10.605-.143l19.154 18.645c1.45 1.411 2.269 3.35 2.269 5.374s-.818 3.963-2.269 5.374l-19.154 18.644c-1.457 1.419-3.345 2.126-5.23 2.126z" fill="#f9f6f6"/></g></g></svg>