<svg id="Capa_1" enable-background="new 0 0 512 512" height="512" viewBox="0 0 512 512" width="512" xmlns="http://www.w3.org/2000/svg"><g><g><path d="m213.791 158.369h-109.626c-4.204 0-7.611-3.407-7.611-7.611v-44.231c0-17.402 14.158-31.56 31.56-31.56h61.729c17.402 0 31.56 14.158 31.56 31.56v44.231c-.001 4.204-3.408 7.611-7.612 7.611zm-102.015-15.223h94.403v-36.619c0-9.008-7.329-16.337-16.337-16.337h-61.729c-9.008 0-16.337 7.329-16.337 16.337z" fill="#dddaec"/></g><g><path d="m42.828 390.617h-35.217c-4.204 0-7.611-3.407-7.611-7.611s3.407-7.612 7.611-7.612h27.605v-25.884c0-4.204 3.407-7.611 7.611-7.611s7.611 3.407 7.611 7.611v33.496c.001 4.203-3.406 7.611-7.61 7.611z" fill="#26457d"/></g><g><path d="m330.641 359.659h-302.994c-11.065 0-20.035-8.97-20.035-20.035v-37.872c0-1.611 1.306-2.917 2.917-2.917h320.112z" fill="#5986cb"/><path d="m290.912 298.834h39.729v60.824h-39.729z" fill="#4278c3"/></g><g><path d="m422.76 217.861-38.274-55.09h-64.445c-5.356 0-9.698 4.342-9.698 9.698v187.189h188.355v-8.827c4.116 0 7.453-3.336 7.453-7.453l5.849-70.433-79.363-45.207c-5.455 0-9.877-4.422-9.877-9.877z" fill="#95d6a4"/></g><path d="m492.094 263.442v88.763c0 4.115-3.335 7.451-7.449 7.453h19.903c2.058 0 3.921-.834 5.27-2.183s2.183-3.212 2.183-5.27v-79.26l-19.965-11.373c.038.622.058 1.245.058 1.87z" fill="#78c2a4"/><circle cx="413.636" cy="379.852" fill="#26457d" r="57.182"/><path d="m413.636 322.67c-3.238 0-6.409.283-9.501.8 27.056 4.527 47.681 28.039 47.681 56.382 0 28.342-20.625 51.855-47.681 56.382 3.091.517 6.262.8 9.501.8 31.581 0 57.182-25.601 57.182-57.182s-25.601-57.182-57.182-57.182z" fill="#21386b"/><circle cx="413.636" cy="379.852" fill="#f9f6f6" r="19.002"/><path d="m413.636 360.85c-2.766 0-5.387.605-7.758 1.667 6.623 2.969 11.244 9.606 11.244 17.334s-4.621 14.365-11.244 17.334c2.371 1.063 4.992 1.667 7.758 1.667 10.494 0 19.001-8.507 19.001-19.002 0-10.493-8.507-19-19.001-19z" fill="#dddaec"/><circle cx="121.953" cy="379.852" fill="#26457d" r="57.182"/><path d="m121.954 322.67c-3.238 0-6.409.283-9.501.8 27.056 4.527 47.681 28.039 47.681 56.382 0 28.342-20.625 51.855-47.681 56.382 3.091.517 6.262.8 9.501.8 31.581 0 57.182-25.601 57.182-57.182s-25.602-57.182-57.182-57.182z" fill="#21386b"/><circle cx="121.953" cy="379.852" fill="#f9f6f6" r="19.002"/><path d="m121.954 360.85c-2.766 0-5.387.605-7.758 1.667 6.623 2.969 11.244 9.606 11.244 17.334s-4.621 14.365-11.244 17.334c2.371 1.063 4.992 1.667 7.758 1.667 10.494 0 19.001-8.507 19.001-19.002 0-10.493-8.507-19-19.001-19z" fill="#dddaec"/><path d="m310.496 386.028h-66.863c-7.259 0-13.143-5.884-13.143-13.143v-13.226h93.149v13.226c0 7.259-5.884 13.143-13.143 13.143z" fill="#26457d"/><path d="m306.381 359.659v13.226c0 7.259-5.884 13.143-13.143 13.143h17.259c7.259 0 13.143-5.884 13.143-13.143v-13.226z" fill="#21386b"/><path d="m512 329.247h-14.82c-6.508 0-11.784-5.276-11.784-11.784 0-6.508 5.276-11.784 11.784-11.784h14.82z" fill="#da4a54"/><g><path d="m464.02 167.821c-1.7-3.113-4.964-5.05-8.512-5.05h-71.022v100.297c0 5.455 4.422 9.877 9.877 9.877h117.637v-9.503c0-5.098-1.281-10.115-3.724-14.589z" fill="#e4f6ff"/></g><path d="m508.276 248.853-44.256-81.033c-1.7-3.113-4.964-5.05-8.512-5.05h-19.906c3.547 0 6.811 1.937 8.512 5.05l44.256 81.032c2.444 4.474 3.724 9.491 3.724 14.589v9.503h19.906v-9.503c0-5.097-1.28-10.113-3.724-14.588z" fill="#d3effb"/><path d="m416.369 223.756c-.655-14.398-12.519-25.735-26.932-25.735h-4.95v65.047c0 5.455 4.422 9.877 9.877 9.877h24.244z" fill="#26457d"/><path d="m469.197 233.869c-2.973-2.971-7.792-2.971-10.765 0-2.972 2.973-2.972 7.792 0 10.765l28.311 28.311h21.53z" fill="#21386b"/><g><path d="m454.973 255.705c-1.947 0-3.896-.743-5.383-2.229-2.972-2.973-2.972-7.792 0-10.765l17.683-17.683c2.973-2.971 7.792-2.971 10.765 0 2.972 2.973 2.972 7.792 0 10.765l-17.683 17.683c-1.486 1.486-3.434 2.229-5.382 2.229z" fill="#26457d"/></g><g><path d="m345.894 245.982c-4.204 0-7.612-3.407-7.612-7.611v-26.446c0-4.204 3.407-7.611 7.612-7.611s7.611 3.407 7.611 7.611v26.446c0 4.204-3.407 7.611-7.611 7.611z" fill="#f9f6f6"/></g><path d="m284.9 298.835h-251.845v-19.607c0-3.855 3.125-6.98 6.98-6.98h237.885c3.855 0 6.98 3.125 6.98 6.98z" fill="#26457d"/><path d="m277.92 272.247h-18.023c3.855 0 6.98 3.125 6.98 6.98v19.607h18.023v-19.607c0-3.855-3.125-6.98-6.98-6.98z" fill="#21386b"/><path d="m262.673 272.247h-207.391v-128.973c0-7.077 5.737-12.814 12.814-12.814h181.763c7.077 0 12.814 5.737 12.814 12.814z" fill="#f9f6f6"/><path d="m249.859 130.461h-18.656c7.077 0 12.814 5.737 12.814 12.814v128.973h18.656v-128.974c0-7.077-5.737-12.813-12.814-12.813z" fill="#dddaec"/><path d="m189.144 203.413c8.899-8.899 8.899-23.327 0-32.225-8.899-8.899-23.327-8.899-32.225 0l-11.17 11.17 32.225 32.225z" fill="#95d6a4"/><path d="m189.144 171.188c-1.75-1.75-3.716-3.15-5.809-4.212 4.338 8.552 2.937 19.268-4.212 26.417l-11.17 11.17 10.021 10.021 11.17-11.17c8.898-8.899 8.898-23.327 0-32.226z" fill="#78c2a4"/><path d="m145.748 182.358-16.937 16.937c-8.899 8.899-8.899 23.327 0 32.225 8.899 8.899 23.326 8.899 32.225 0l16.937-16.937z" fill="#ffd064"/><path d="m167.953 204.563-16.937 16.937c-7.149 7.149-17.864 8.549-26.417 4.212 1.061 2.094 2.462 4.059 4.212 5.809 8.899 8.899 23.326 8.899 32.225 0l16.937-16.937z" fill="#ffc250"/></g></svg>