<svg id="Capa_1" enable-background="new 0 0 512 512" height="512" viewBox="0 0 512 512" width="512" xmlns="http://www.w3.org/2000/svg"><g><path d="m417.658 493.28c0 10.339-8.381 18.72-18.72 18.72h-285.877c-10.339 0-18.72-8.381-18.72-18.72v-474.56c0-10.339 8.381-18.72 18.72-18.72h285.877c10.339 0 18.72 8.381 18.72 18.72z" fill="#26457d"/><path d="m417.658 18.72c0-10.339-8.381-18.72-18.72-18.72h-17.97c10.339 0 18.72 8.381 18.72 18.72v474.56c0 10.339-8.381 18.72-18.72 18.72h17.97c10.339 0 18.72-8.381 18.72-18.72z" fill="#21386b"/><path d="m127.307 449.239c0 .525.425.95.95.95h255.485c.525 0 .95-.425.95-.95v-193.239l-26.791-20.604h-206.101l-24.493 20.604z" fill="#e4f6ff"/><path d="m357.902 235.396h-21.956l26.791 20.604v194.189h21.005c.525 0 .95-.425.95-.95v-193.239z" fill="#d3effb"/><path d="m127.307 256v-222.084c0-.525.425-.95.95-.95h255.485c.525 0 .95.425.95.95v222.084z" fill="#f9f6f6"/><path d="m362.737 32.966v223.034h21.956v-222.084c0-.525-.425-.95-.95-.95z" fill="#dddaec"/><path d="m317.192 197.637h-122.384c-4.26 0-7.713-3.453-7.713-7.713v-106.634c0-4.26 3.453-7.713 7.713-7.713h122.384c4.26 0 7.713 3.453 7.713 7.713v106.634c0 4.259-3.453 7.713-7.713 7.713z" fill="#ffd064"/><path d="m317.192 75.577h-15.891c4.26 0 7.713 3.453 7.713 7.713v106.634c0 4.26-3.453 7.713-7.713 7.713h15.891c4.26 0 7.713-3.453 7.713-7.713v-106.634c0-4.26-3.453-7.713-7.713-7.713z" fill="#ffc250"/><path d="m267.242 114.686h-22.484c-1.77 0-3.204-1.435-3.204-3.204v-35.905h28.892v35.904c0 1.77-1.434 3.205-3.204 3.205z" fill="#26457d"/><path d="m257.656 75.577v35.904c0 1.77-1.435 3.204-3.204 3.204h12.791c1.77 0 3.204-1.435 3.204-3.204v-35.904z" fill="#21386b"/><g><path d="m286.932 182.869c-2.013 0-4.023-.782-5.538-2.337-2.976-3.058-2.909-7.95.148-10.927l7.224-7.03-7.224-7.032c-3.057-2.976-3.124-7.867-.147-10.926 2.976-3.056 7.868-3.125 10.926-.147l12.912 12.568c1.494 1.454 2.337 3.451 2.337 5.536s-.843 4.083-2.337 5.537l-12.912 12.567c-1.502 1.463-3.447 2.191-5.389 2.191z" fill="#f9f6f6"/></g><g><path d="m240.936 175.619h-28.434c-4.268 0-7.726-3.459-7.726-7.726s3.459-7.726 7.726-7.726h28.434c4.268 0 7.726 3.459 7.726 7.726s-3.458 7.726-7.726 7.726z" fill="#21386b"/></g><path d="m320.341 413.136h-128.682c-3.889 0-7.042-3.153-7.042-7.042v-40.471c0-3.889 3.153-7.042 7.042-7.042h128.682c3.889 0 7.042 3.153 7.042 7.042v40.471c0 3.89-3.153 7.042-7.042 7.042z" fill="#95d6a4"/><path d="m320.341 358.582h-20.512c3.889 0 7.042 3.153 7.042 7.042v40.471c0 3.889-3.153 7.042-7.042 7.042h20.512c3.889 0 7.042-3.153 7.042-7.042v-40.471c0-3.889-3.153-7.042-7.042-7.042z" fill="#78c2a4"/><g><path d="m198.892 299.804h-27.656c-4.268 0-7.726-3.459-7.726-7.726s3.459-7.726 7.726-7.726h27.656c4.268 0 7.726 3.459 7.726 7.726s-3.458 7.726-7.726 7.726z" fill="#26457d"/></g><g><path d="m310.501 332.573h-109.001c-4.268 0-7.726-3.459-7.726-7.726 0-4.268 3.459-7.726 7.726-7.726h109.001c4.268 0 7.726 3.459 7.726 7.726 0 4.268-3.459 7.726-7.726 7.726z" fill="#26457d"/></g><g><path d="m270.781 488.795h-29.562c-4.268 0-7.726-3.459-7.726-7.726 0-4.268 3.459-7.726 7.726-7.726h29.562c4.268 0 7.726 3.459 7.726 7.726.001 4.267-3.458 7.726-7.726 7.726z" fill="#21386b"/></g></g></svg>