<svg id="Capa_1" enable-background="new 0 0 512 512" height="512" viewBox="0 0 512 512" width="512" xmlns="http://www.w3.org/2000/svg"><g><path d="m456.232 342.83h-242.379c-8.436 0-15.275-6.839-15.275-15.275v-211.187c0-8.436 6.839-15.275 15.275-15.275h242.379c8.436 0 15.275 6.839 15.275 15.275v211.187c0 8.436-6.839 15.275-15.275 15.275z" fill="#ffd064"/><path d="m448.277 116.368v211.187c0 8.436-6.839 15.275-15.275 15.275h23.232c8.435-.001 15.273-6.84 15.273-15.275v-211.187c0-8.436-6.839-15.275-15.275-15.275h-23.229c8.435 0 15.274 6.839 15.274 15.275z" fill="#ffc250"/><path d="m357.307 178.547h-44.529c-3.505 0-6.346-2.841-6.346-6.346v-71.108h57.221v71.108c0 3.505-2.842 6.346-6.346 6.346z" fill="#26457d"/><path d="m342.402 101.093v71.108c0 3.505-2.841 6.346-6.346 6.346h21.251c3.505 0 6.346-2.841 6.346-6.346v-71.108z" fill="#21386b"/><g><path d="m396.302 298.797c-2.013 0-4.023-.782-5.537-2.337-2.977-3.058-2.91-7.95.147-10.926l19.884-19.355-19.884-19.354c-3.057-2.976-3.124-7.867-.147-10.926 2.975-3.055 7.867-3.126 10.926-.147l25.572 24.89c1.494 1.454 2.337 3.451 2.337 5.536s-.843 4.082-2.337 5.536l-25.572 24.891c-1.502 1.464-3.447 2.192-5.389 2.192z" fill="#f9f6f6"/></g><g><path d="m305.209 291.648h-56.312c-4.267 0-7.726-3.459-7.726-7.726s3.459-7.726 7.726-7.726h56.312c4.268 0 7.726 3.459 7.726 7.726s-3.458 7.726-7.726 7.726z" fill="#26457d"/></g><path d="m120.079 410.907h-115.422c-2.572 0-4.657-2.085-4.657-4.657v-196.073c0-2.572 2.085-4.657 4.657-4.657h115.422c2.572 0 4.657 2.085 4.657 4.657v196.073c.001 2.572-2.084 4.657-4.657 4.657z" fill="#80b4fb"/><path d="m97.555 205.519v205.388h22.525c2.572 0 4.657-2.085 4.657-4.657v-196.073c0-2.572-2.085-4.657-4.657-4.657h-22.525z" fill="#61a2f9"/><path d="m173.408 376.944 13.512 3.898c110.196 31.792 228.98 7.228 317.528-65.663 9.686-7.973 10.12-22.656.922-31.187l-.418-.388c-9.38-8.701-23.268-10.103-34.098-3.514l-44.424 27.024c-44.974 27.358-99.785 33.296-149.574 16.205-20.55-7.054-24.435-34.435-6.658-46.927l46.202-32.467c8.713-6.123 10.953-18.077 5.048-26.94-4.484-6.73-12.638-10.02-20.538-8.287l-127.503 27.972-21.033 22.712v96.389z" fill="#f1d0a5"/><path d="m270.198 276.391 46.202-32.468c8.479-5.958 10.805-17.431 5.483-26.211-1.365 2.252-3.194 4.269-5.483 5.878l-46.202 32.467c-10.977 7.714-13.685 21.101-9.319 31.877 1.818-4.407 4.898-8.436 9.319-11.543z" fill="#f1b986"/><path d="m509.318 289.007c-1.217 2.162-2.824 4.156-4.87 5.84-75.167 61.876-172.122 88.921-267.117 76.234-24.907-3.327-43.502-24.591-43.502-49.719v-89.173l-20.422 4.48v119.942 20.333l13.512 3.898c2.294.662 4.594 1.29 6.895 1.904.005.001.01.003.014.004 108.231 28.83 223.918 3.8 310.619-67.57 7.982-6.569 9.665-17.687 4.871-26.173z" fill="#f1b986"/><path d="m124.737 391.312h40.46c4.535 0 8.211-3.676 8.211-8.211v-149.776c0-4.535-3.676-8.211-8.211-8.211h-40.46z" fill="#f9f6f6"/><path d="m164.693 225.114h-19.534c6.382 0 11.556 4.592 11.556 10.258v145.683c0 5.665-5.174 10.258-11.556 10.258h19.534c4.813 0 8.715-3.464 8.715-7.736v-150.727c0-4.273-3.902-7.736-8.715-7.736z" fill="#dddaec"/><g><path d="m75.497 377.441c-4.267 0-7.726-3.459-7.726-7.726v-14.816c0-4.268 3.459-7.726 7.726-7.726s7.726 3.459 7.726 7.726v14.816c0 4.268-3.459 7.726-7.726 7.726z" fill="#f9f6f6"/></g></g></svg>