<svg id="Capa_1" enable-background="new 0 0 512 512" height="512" viewBox="0 0 512 512" width="512" xmlns="http://www.w3.org/2000/svg"><g><g><path d="m300.993 205.464c-4.268 0-7.726-3.459-7.726-7.726v-70.097c0-4.268 3.459-7.726 7.726-7.726 4.268 0 7.726 3.459 7.726 7.726v70.097c.001 4.267-3.458 7.726-7.726 7.726z" fill="#26457d"/></g><g><path d="m211.007 205.464c-4.268 0-7.726-3.459-7.726-7.726v-70.097c0-4.268 3.459-7.726 7.726-7.726 4.268 0 7.726 3.459 7.726 7.726v70.097c0 4.267-3.459 7.726-7.726 7.726z" fill="#26457d"/></g><g><path d="m403.373 207.44c-4.268 0-7.726-3.459-7.726-7.726v-30.578c0-4.268 3.459-7.726 7.726-7.726s7.726 3.459 7.726 7.726v30.578c0 4.267-3.459 7.726-7.726 7.726z" fill="#61a2f9"/></g><g><path d="m108.627 207.44c-4.268 0-7.726-3.459-7.726-7.726v-30.578c0-4.268 3.459-7.726 7.726-7.726 4.268 0 7.726 3.459 7.726 7.726v30.578c.001 4.267-3.458 7.726-7.726 7.726z" fill="#61a2f9"/></g><path d="m449.093 512h-386.186c-2.559 0-4.634-2.075-4.634-4.634v-257.85h395.456v257.849c-.001 2.56-2.076 4.635-4.636 4.635z" fill="#f9f6f6"/><path d="m58.272 249.516v15.789h359.804c8.678 0 15.714 7.035 15.714 15.714v230.981h15.303c2.559 0 4.634-2.075 4.634-4.634v-257.85z" fill="#dddaec"/><path d="m442.598 186.198h-373.196c-2.118 0-4.088 1.089-5.214 2.883l-35.714 56.864c-.975 1.553.141 3.571 1.974 3.571h451.104c1.833 0 2.949-2.019 1.974-3.571l-35.714-56.864c-1.126-1.794-3.096-2.883-5.214-2.883z" fill="#80b4fb"/><path d="m442.598 186.198h-19.453l39.767 63.318h18.64c1.833 0 2.949-2.019 1.974-3.571l-35.714-56.864c-1.126-1.794-3.096-2.883-5.214-2.883z" fill="#61a2f9"/><path d="m339.467 139.18h-166.934c-1.702 0-3.082-1.38-3.082-3.082v-133.016c0-1.702 1.38-3.082 3.082-3.082h166.933c1.702 0 3.082 1.38 3.082 3.082v133.016c.001 1.702-1.379 3.082-3.081 3.082z" fill="#ffd064"/><path d="m339.467 0h-19.938c1.702 0 3.082 1.38 3.082 3.082v133.016c0 1.702-1.38 3.083-3.082 3.083h19.938c1.702 0 3.082-1.38 3.082-3.083v-133.016c0-1.702-1.38-3.082-3.082-3.082z" fill="#ffc250"/><path d="m270.471 61.678h-28.943c-3.019 0-5.466-2.447-5.466-5.466v-56.212h39.875v56.211c.001 3.019-2.447 5.467-5.466 5.467z" fill="#26457d"/><path d="m260.108 0v56.211c0 3.019-2.447 5.466-5.467 5.466h15.83c3.019 0 5.466-2.447 5.466-5.466v-56.211z" fill="#21386b"/><path d="m177.036 512h-86.001v-136.272c0-.781.633-1.415 1.415-1.415h83.172c.781 0 1.415.633 1.415 1.415v136.272z" fill="#b16e3d"/><path d="m161.055 374.313v137.687h15.981v-136.272c0-.781-.633-1.415-1.415-1.415z" fill="#934d36"/><path d="m416.245 447.384c0 1.49-1.208 2.697-2.697 2.697h-199.845c-1.49 0-2.697-1.208-2.697-2.697v-131.446c0-1.49 1.208-2.697 2.697-2.697h199.844c1.49 0 2.697 1.208 2.697 2.697v131.446z" fill="#e4f6ff"/><path d="m399.946 313.241v136.84h13.602c1.49 0 2.697-1.208 2.697-2.697v-131.446c0-1.49-1.208-2.697-2.697-2.697z" fill="#d3effb"/><path d="m306.797 450.081h-93.093c-1.49 0-2.697-1.208-2.697-2.697v-73.071h93.093c1.49 0 2.697 1.208 2.697 2.697z" fill="#ffd064"/><path d="m287.856 374.313v75.768h18.94v-73.071c0-1.49-1.208-2.697-2.697-2.697z" fill="#ffc250"/><path d="m416.245 447.384c0 1.49-1.208 2.697-2.697 2.697h-106.751v-53.535h109.448z" fill="#ffd064"/><path d="m400.045 396.546v53.535h13.502c1.49 0 2.697-1.208 2.697-2.697v-50.837h-16.199z" fill="#ffc250"/><path d="m258.902 396.996c4.268 0 7.726-3.459 7.726-7.726v-14.957h-15.453v14.957c.001 4.267 3.459 7.726 7.727 7.726z" fill="#26457d"/><path d="m353.794 396.546v14.621c0 4.268 3.459 7.726 7.726 7.726 4.268 0 7.726-3.459 7.726-7.726v-14.621z" fill="#26457d"/><g><path d="m153.15 455.722c-4.268 0-7.726-3.459-7.726-7.726v-4.84c0-4.268 3.459-7.726 7.726-7.726 4.268 0 7.726 3.459 7.726 7.726v4.84c.001 4.268-3.458 7.726-7.726 7.726z" fill="#ffd064"/></g><g><path d="m279.212 113.609h-46.424c-4.268 0-7.726-3.459-7.726-7.726s3.459-7.726 7.726-7.726h46.424c4.268 0 7.726 3.459 7.726 7.726s-3.459 7.726-7.726 7.726z" fill="#26457d"/></g><g><path d="m351.619 225.584h-191.238c-4.268 0-7.726-3.459-7.726-7.726 0-4.268 3.459-7.726 7.726-7.726h191.238c4.268 0 7.726 3.459 7.726 7.726s-3.458 7.726-7.726 7.726z" fill="#61a2f9"/></g></g></svg>