<svg id="Capa_1" enable-background="new 0 0 512 512" height="512" viewBox="0 0 512 512" width="512" xmlns="http://www.w3.org/2000/svg"><g><path d="m74.881 153.946h168.194v64.786h-168.194z" fill="#f9f6f6"/><path d="m222.007 153.945h21.067v64.786h-21.067z" fill="#dddaec"/><g><path d="m42.828 416.286h-35.217c-4.204 0-7.611-3.407-7.611-7.611s3.407-7.611 7.611-7.611h27.605v-25.884c0-4.204 3.407-7.611 7.611-7.611s7.611 3.407 7.611 7.611v33.496c.001 4.202-3.406 7.61-7.61 7.61z" fill="#26457d"/></g><g><path d="m330.641 385.327h-302.994c-11.065 0-20.035-8.97-20.035-20.035v-38.132c0-1.468 1.19-2.657 2.657-2.657h320.372z" fill="#5986cb"/><path d="m290.912 324.503h39.729v60.824h-39.729z" fill="#4278c3"/></g><g><path d="m418.607 245.878-34.121-57.439h-64.445c-5.356 0-9.698 4.342-9.698 9.698v187.189h190.39l.087-8.356c4.116 0 7.453-3.337 7.453-7.453l3.727-70.903-83.517-42.859c-5.454 0-9.876-4.422-9.876-9.877z" fill="#80b4fb"/></g><path d="m492.071 288.387c.006.241.023.482.023.724v88.763c0 4.115-3.335 7.451-7.451 7.453h19.904c2.486 0 4.682-1.222 6.035-3.093.138-.19.266-.387.386-.59.043-.073.091-.143.132-.218.574-1.056.9-2.266.9-3.553v-79.26z" fill="#61a2f9"/><circle cx="413.636" cy="405.52" fill="#26457d" r="57.182"/><path d="m413.636 348.338c-3.238 0-6.409.283-9.501.8 27.056 4.527 47.681 28.039 47.681 56.382s-20.625 51.855-47.681 56.382c3.091.517 6.262.8 9.501.8 31.581 0 57.182-25.601 57.182-57.182s-25.602-57.182-57.182-57.182z" fill="#21386b"/><circle cx="413.636" cy="405.52" fill="#f9f6f6" r="19.002"/><path d="m413.636 386.519c-2.766 0-5.387.605-7.758 1.667 6.623 2.969 11.244 9.606 11.244 17.334s-4.621 14.365-11.244 17.334c2.371 1.063 4.992 1.667 7.758 1.667 10.494 0 19.001-8.507 19.001-19.002s-8.507-19-19.001-19z" fill="#dddaec"/><circle cx="121.953" cy="405.52" fill="#26457d" r="57.182"/><path d="m121.953 348.338c-3.238 0-6.409.283-9.501.8 27.056 4.527 47.681 28.039 47.681 56.382s-20.625 51.855-47.681 56.382c3.091.517 6.262.8 9.501.8 31.581 0 57.182-25.601 57.182-57.182s-25.601-57.182-57.182-57.182z" fill="#21386b"/><circle cx="121.953" cy="405.52" fill="#f9f6f6" r="19.002"/><path d="m121.953 386.519c-2.766 0-5.387.605-7.758 1.667 6.623 2.969 11.244 9.606 11.244 17.334s-4.621 14.365-11.244 17.334c2.371 1.063 4.992 1.667 7.758 1.667 10.494 0 19.001-8.507 19.001-19.002s-8.506-19-19.001-19z" fill="#dddaec"/><path d="m310.496 411.697h-66.863c-7.259 0-13.143-5.884-13.143-13.143v-13.226h93.149v13.226c0 7.258-5.884 13.143-13.143 13.143z" fill="#26457d"/><path d="m306.381 385.327v13.226c0 7.259-5.884 13.143-13.143 13.143h17.259c7.259 0 13.143-5.884 13.143-13.143v-13.226z" fill="#21386b"/><path d="m512 354.915h-14.82c-6.508 0-11.784-5.276-11.784-11.784 0-6.508 5.276-11.784 11.784-11.784h14.82z" fill="#da4a54"/><g><path d="m464.02 193.489c-1.7-3.113-4.964-5.05-8.511-5.05h-71.022v100.297c0 5.455 4.422 9.877 9.877 9.877h117.636v-9.503c0-5.098-1.281-10.115-3.724-14.589z" fill="#e4f6ff"/></g><path d="m508.276 274.522-44.256-81.033c-1.7-3.113-4.964-5.05-8.512-5.05h-19.906c3.547 0 6.811 1.937 8.512 5.05l44.256 81.032c2.444 4.474 3.724 9.491 3.724 14.589v9.503h19.906v-9.503c0-5.097-1.28-10.114-3.724-14.588z" fill="#d3effb"/><path d="m416.369 249.425c-.655-14.398-12.519-25.735-26.932-25.735h-4.95v65.047c0 5.455 4.422 9.877 9.877 9.877h24.244z" fill="#26457d"/><path d="m469.197 259.538c-2.973-2.971-7.792-2.971-10.765 0-2.972 2.973-2.972 7.792 0 10.765l28.311 28.311h21.53z" fill="#21386b"/><g><path d="m454.973 281.373c-1.947 0-3.896-.743-5.383-2.229-2.972-2.973-2.972-7.792 0-10.765l17.683-17.683c2.973-2.971 7.792-2.971 10.765 0 2.972 2.973 2.972 7.792 0 10.765l-17.683 17.683c-1.486 1.486-3.434 2.229-5.382 2.229z" fill="#26457d"/></g><g><path d="m345.894 271.651c-4.204 0-7.612-3.407-7.612-7.612v-26.445c0-4.204 3.407-7.611 7.612-7.611s7.611 3.407 7.611 7.611v26.445c0 4.204-3.407 7.612-7.611 7.612z" fill="#f9f6f6"/></g><path d="m284.9 324.503h-251.845v-19.607c0-3.855 3.125-6.98 6.98-6.98h237.885c3.855 0 6.98 3.125 6.98 6.98z" fill="#26457d"/><path d="m277.92 297.916h-18.023c3.855 0 6.98 3.125 6.98 6.98v19.607h18.023v-19.607c0-3.855-3.125-6.98-6.98-6.98z" fill="#21386b"/><path d="m205.193 297.916h-92.431c-27.25 0-49.341-22.091-49.341-49.341v-30.634c0-5.083 4.121-9.204 9.204-9.204h172.705c5.083 0 9.204 4.121 9.204 9.204v30.634c0 27.25-22.09 49.341-49.341 49.341z" fill="#e4f6ff"/><path d="m245.33 208.737h-22.985c5.084 0 9.205 4.121 9.205 9.205v30.633c0 27.25-22.091 49.341-49.341 49.341h22.985c27.25 0 49.341-22.091 49.341-49.341v-30.633c-.001-5.084-4.122-9.205-9.205-9.205z" fill="#d3effb"/><path d="m183.146 89.85-8.962-10.149h-31.709l-6.482 10.149-63.882 26.8c-5.265 2.209-8.691 7.361-8.691 13.07v25.015c0 5.083 4.121 9.204 9.204 9.204h172.706c5.083 0 9.204-4.121 9.204-9.204v-25.075c0-5.679-3.39-10.81-8.613-13.038z" fill="#e4f6ff"/><path d="m245.921 116.623-62.775-26.773h-35.418l75.208 33.877c5.224 2.228 8.613 7.359 8.613 13.038v25.075c0 .723-.092 1.425-.25 2.1h14.03c5.083 0 9.204-4.121 9.204-9.204v-25.075c.001-5.679-3.388-10.81-8.612-13.038z" fill="#d3effb"/><path d="m183.146 89.85h-47.153v-32.315c0-4.549 3.688-8.237 8.237-8.237h30.678c4.549 0 8.237 3.688 8.237 8.237v32.315z" fill="#80b4fb"/><g><path d="m178.067 251.138h-38.18c-4.204 0-7.611-3.407-7.611-7.611s3.407-7.611 7.611-7.611h38.18c4.204 0 7.611 3.407 7.611 7.611s-3.407 7.611-7.611 7.611z" fill="#d3effb"/></g></g></svg>