<svg id="Capa_1" enable-background="new 0 0 512 512" height="512" viewBox="0 0 512 512" width="512" xmlns="http://www.w3.org/2000/svg"><g><path d="m440.651 175.854h7.293c9.237 0 16.726-7.488 16.726-16.726 0-9.237-7.488-16.726-16.726-16.726h-7.293z" fill="#ffd064"/><path d="m129.845 261.813h-97.478v-98.746c0-.797.646-1.443 1.443-1.443h94.592c.797 0 1.443.646 1.443 1.443z" fill="#ffd064"/><path d="m128.402 161.624h-17.986c.797 0 1.443.646 1.443 1.443v98.746h17.986v-98.746c0-.797-.646-1.443-1.443-1.443z" fill="#ffc250"/><path d="m91.527 185.406h-20.842c-.812 0-1.47-.658-1.47-1.47v-22.312h23.782v22.312c0 .812-.658 1.47-1.47 1.47z" fill="#26457d"/><g><path d="m97.704 246.933c-1.983 0-3.963-.77-5.455-2.302-2.933-3.012-2.867-7.832.145-10.764l4.335-4.22-4.335-4.221c-3.012-2.932-3.077-7.751-.145-10.763s7.75-3.077 10.763-.145l9.939 9.674c1.472 1.433 2.302 3.4 2.302 5.454 0 2.055-.831 4.021-2.302 5.454l-9.939 9.674c-1.48 1.442-3.396 2.159-5.308 2.159z" fill="#f9f6f6"/></g><g><path d="m167.468 269.425h-148.859c-10.261 0-18.609-8.348-18.609-18.609v-16.196c0-4.204 3.407-7.612 7.611-7.612s7.611 3.408 7.611 7.612v16.196c0 1.867 1.518 3.386 3.386 3.386h148.859c4.204 0 7.611 3.408 7.611 7.611.001 4.204-3.406 7.612-7.61 7.612z" fill="#21386b"/></g><g><path d="m332.256 424h-51.827c-4.204 0-7.612-3.407-7.612-7.612s3.407-7.611 7.612-7.611h44.215v-23.714c0-4.204 3.407-7.611 7.612-7.611s7.611 3.407 7.611 7.611v31.325c0 4.204-3.407 7.612-7.611 7.612z" fill="#21386b"/></g><circle cx="141.46" cy="380.083" fill="#26457d" r="58.312"/><path d="m83.148 380.082c0-32.205 26.107-58.312 58.312-58.312s58.312 26.107 58.312 58.312c0 5.363-.739 10.551-2.094 15.483-.986.119-1.987.187-3.005.187h-109.378c-1.389-4.987-2.147-10.238-2.147-15.67z" fill="#21386b"/><path d="m378.206 347.395h-78.872v-79.898c0-.645.523-1.168 1.168-1.168h76.537c.645 0 1.168.523 1.168 1.168v79.898z" fill="#ffd064"/><path d="m377.039 266.33h-14.553c.645 0 1.168.523 1.168 1.168v79.898h14.553v-79.898c-.001-.646-.523-1.168-1.168-1.168z" fill="#ffc250"/><path d="m348.731 290.713h-19.922c-.806 0-1.459-.653-1.459-1.459v-22.924h22.84v22.924c.001.806-.653 1.459-1.459 1.459z" fill="#26457d"/><g><path d="m346.266 336.808c-1.983 0-3.963-.77-5.455-2.302-2.933-3.013-2.867-7.832.145-10.763l2.438-2.374-2.438-2.374c-3.012-2.932-3.077-7.75-.145-10.763 2.932-3.012 7.751-3.078 10.763-.145l8.042 7.828c1.472 1.432 2.302 3.399 2.302 5.454s-.831 4.022-2.302 5.454l-8.042 7.828c-1.48 1.44-3.396 2.157-5.308 2.157z" fill="#f9f6f6"/></g><circle cx="446.499" cy="391.084" fill="#26457d" r="47.31"/><path d="m446.499 343.774c-3.036 0-6.001.297-8.877.844 21.884 4.156 38.433 23.374 38.433 46.467s-16.55 42.31-38.433 46.467c2.877.546 5.841.844 8.877.844 26.129 0 47.31-21.182 47.31-47.31.001-26.13-21.181-47.312-47.31-47.312z" fill="#21386b"/><circle cx="446.499" cy="391.084" fill="#f9f6f6" r="17.754"/><g><path d="m446.503 398.696c-2.197 0-4.378-.946-5.883-2.777l-27.92-33.952c-2.67-3.247-2.202-8.044 1.045-10.714 3.244-2.669 8.042-2.204 10.714 1.045l27.921 33.952c2.67 3.247 2.202 8.044-1.045 10.714-1.417 1.164-3.13 1.732-4.832 1.732z" fill="#dddaec"/></g><path d="m400.516 357.827c4.388-22.361 22.204-40.848 46.301-44.738 29.421-4.75 57.791 14.742 63.957 43.899 1.748 8.263 1.576 16.471-.191 24.18-.276 1.203-1.541 1.889-2.695 1.452-35.487-13.415-71.3-21.304-107.372-24.793z" fill="#5986cb"/><path d="m510.475 355.652c-6.613-27.963-33.713-46.621-62.189-42.78-4.837.653-9.429 1.895-13.725 3.634 27.341-1.267 52.238 17.603 57.723 45.266 1.045 5.272 1.297 10.514.87 15.615 4.917 1.646 9.829 3.382 14.734 5.233 1.155.436 2.419-.249 2.695-1.452 1.863-8.124 1.953-16.803-.108-25.516z" fill="#4278c3"/><circle cx="141.46" cy="380.083" fill="#f9f6f6" r="21.883"/><path d="m386.588 395.211c7.361 0 14.303-3.429 18.776-9.275l48.54-63.434c8.505-11.115 10.379-25.944 4.906-38.826l-40.139-101.674-17.906-15.301.442 124.476c.011 3.003-1.003 5.919-2.874 8.268l-34.375 43.159c-2.504 3.143-6.303 4.975-10.322 4.975h-80.134c-18.342 0-33.211-14.869-33.211-33.211 0-10.705 5.16-20.753 13.86-26.991l17.993-12.901c.651-.467 1.037-1.218 1.037-2.019v-10.646h-128.518c-13.162 0-25.032 7.919-30.086 20.072l-41.638 93.999h164.099c11.882 0 22.975 5.948 29.551 15.845 1.445 2.175 3.883 3.482 6.494 3.482h113.505z" fill="#80b4fb"/><g fill="#61a2f9"><path d="m235.593 287.378c-8.7 6.238-13.86 16.286-13.86 26.991 0 18.342 14.869 33.211 33.211 33.211h18.558c-18.342 0-33.211-14.869-33.211-33.211 0-10.705 5.16-20.753 13.86-26.991l17.993-12.901c.651-.467 1.037-1.218 1.037-2.019v-10.646h-18.558v6.285c0 3.538-1.705 6.859-4.581 8.921z"/><path d="m458.81 283.677-40.139-101.674-17.906-15.301.061 17.107 39.426 99.867c5.473 12.881 3.6 27.711-4.906 38.826l-48.54 63.434c-4.473 5.846-11.415 9.275-18.776 9.275h18.558c7.361 0 14.303-3.429 18.776-9.275l48.54-63.434c8.505-11.115 10.379-25.944 4.906-38.825z"/></g><path d="m273.181 261.813v-6.167c0-11.612-9.414-21.026-21.026-21.026h-78.513c-11.612 0-21.026 9.414-21.026 21.026v6.167z" fill="#26457d"/><path d="m273.181 255.646c0-11.612-9.414-21.026-21.026-21.026h-18.559c11.612 0 21.026 9.414 21.026 21.026v6.167h18.559z" fill="#21386b"/><path d="m73.234 381.01h121.439c13.756 0 24.908-11.152 24.908-24.908 0-29.594-20.931-55.056-49.966-60.783l-34.785-6.86c-30.743-6.063-61.277 11.359-71.7 40.91l-8.795 24.936c-4.598 13.037 5.075 26.705 18.899 26.705z" fill="#5986cb"/><path d="m169.615 295.319-5.484-1.082c19.892 12.767 33.033 38.103 33.033 66.604 0 7.748-2.396 14.812-6.333 20.168h3.842c13.756 0 24.908-11.152 24.908-24.908 0-29.594-20.931-55.056-49.966-60.782z" fill="#4278c3"/><path d="m407.101 184.291h33.551v-50.326h-33.551c-13.897 0-25.163 11.266-25.163 25.163 0 13.897 11.266 25.163 25.163 25.163z" fill="#5986cb"/><path d="m424.714 133.965h15.938v50.326h-15.938z" fill="#4278c3"/><g><path d="m440.651 196.758c-4.204 0-7.611-3.408-7.611-7.611v-60.037c0-4.204 3.407-7.611 7.611-7.611s7.612 3.408 7.612 7.611v60.037c0 4.203-3.408 7.611-7.612 7.611z" fill="#5986cb"/></g><g><g><path d="m156.94 352.78c-1.069 0-2.157-.227-3.191-.706-3.816-1.765-5.477-6.289-3.712-10.104l10.21-22.065c1.765-3.815 6.287-5.477 10.104-3.712 3.816 1.765 5.477 6.289 3.712 10.104l-10.21 22.065c-1.287 2.781-4.038 4.418-6.913 4.418z" fill="#80b4fb"/></g><g><path d="m130.249 352.78c-1.069 0-2.157-.227-3.191-.706-3.816-1.765-5.477-6.289-3.712-10.104l10.21-22.065c1.765-3.815 6.288-5.477 10.104-3.712s5.477 6.289 3.712 10.104l-10.21 22.065c-1.287 2.781-4.038 4.418-6.913 4.418z" fill="#80b4fb"/></g><g><path d="m103.557 352.78c-1.069 0-2.157-.227-3.191-.706-3.816-1.765-5.477-6.289-3.712-10.104l10.21-22.065c1.765-3.815 6.287-5.477 10.104-3.712 3.816 1.765 5.477 6.289 3.712 10.104l-10.21 22.065c-1.287 2.781-4.038 4.418-6.913 4.418z" fill="#80b4fb"/></g></g><g><path d="m386.663 366.373c-1.65 0-3.311-.533-4.708-1.634-3.301-2.603-3.867-7.389-1.265-10.69l42.077-53.369c2.604-3.302 7.388-3.868 10.69-1.265 3.301 2.603 3.867 7.389 1.265 10.69l-42.077 53.369c-1.502 1.905-3.731 2.899-5.982 2.899z" fill="#f9f6f6"/></g><g><path d="m415.607 160.219c-3.659 0-6.887-2.646-7.501-6.375l-6.707-40.702-30.53-13.163c-3.86-1.665-5.64-6.143-3.975-10.003s6.144-5.639 10.003-3.976l34.35 14.81c2.381 1.026 4.075 3.194 4.497 5.752l7.384 44.807c.683 4.148-2.125 8.064-6.273 8.748-.421.069-.837.102-1.248.102z" fill="#21386b"/></g><path d="m363.797 113.88h10.55c4.192 0 7.591-3.399 7.591-7.591v-25.093c0-4.192-3.399-7.591-7.591-7.591h-10.55c-1.729 0-3.131 1.402-3.131 3.131v34.012c-.001 1.73 1.401 3.132 3.131 3.132z" fill="#26457d"/></g></svg>