<svg id="Capa_1" enable-background="new 0 0 512.005 512.005" height="512" viewBox="0 0 512.005 512.005" width="512" xmlns="http://www.w3.org/2000/svg"><g><g><path d="m104.147 174.454h303.711v27.344h-303.711z" fill="#f9f6f6"/><g fill="#dddaec"><path d="m104.147 174.454h28.372v27.344h-28.372z"/><path d="m376.144 174.454h31.714v27.344h-31.714z"/></g></g><g><path d="m104.147 396.488h303.711v27.344h-303.711z" fill="#f9f6f6"/><g fill="#dddaec"><path d="m104.147 396.488h28.372v27.344h-28.372z"/><path d="m376.144 396.488h31.714v27.344h-31.714z"/></g></g><path d="m114.147 501.465c0 1.678-1.36 3.038-3.038 3.038h-98.193v-493.962c0-1.678 1.36-3.038 3.038-3.038h98.193z" fill="#26457d"/><path d="m94.731 7.503v497h16.377c1.678 0 3.038-1.36 3.038-3.038v-493.962z" fill="#21386b"/><g><path d="m7.537 512.005c-2.767 0-5.427-1.536-6.732-4.185-1.832-3.716-.306-8.212 3.409-10.044l98.359-48.501-98.359-48.502c-2.561-1.263-4.183-3.871-4.183-6.727s1.622-5.464 4.184-6.727l98.356-48.494-98.356-48.494c-2.562-1.263-4.184-3.871-4.184-6.727s1.622-5.464 4.184-6.727l98.356-48.493-98.356-48.491c-2.562-1.263-4.184-3.87-4.184-6.727 0-2.855 1.622-5.464 4.184-6.727l98.356-48.495-98.356-48.493c-2.562-1.263-4.184-3.871-4.184-6.727s1.622-5.464 4.184-6.727l112-55.222c3.716-1.835 8.212-.306 10.043 3.41 1.832 3.715.306 8.212-3.41 10.043l-98.357 48.497 98.356 48.493c2.562 1.263 4.184 3.871 4.184 6.727s-1.622 5.464-4.184 6.727l-98.356 48.495 98.356 48.492c2.562 1.263 4.184 3.871 4.184 6.727s-1.622 5.464-4.184 6.727l-98.356 48.493 98.356 48.495c2.562 1.263 4.184 3.871 4.184 6.727s-1.622 5.464-4.184 6.727l-98.357 48.492 98.358 48.502c2.561 1.263 4.183 3.871 4.183 6.727s-1.622 5.464-4.183 6.727l-112 55.228c-1.066.525-2.198.774-3.311.774z" fill="#21386b"/></g><path d="m335.069 174.454h-158.134v-116.863c0-4.888 3.962-8.85 8.85-8.85h140.433c4.888 0 8.85 3.962 8.85 8.85v116.863z" fill="#ffd064"/><path d="m326.219 48.74h-19.199c4.888 0 8.85 3.963 8.85 8.85v116.864h19.198v-116.863c.001-4.888-3.961-8.851-8.849-8.851z" fill="#ffc250"/><path d="m268.902 93.617h-25.8c-2.031 0-3.677-1.646-3.677-3.677v-41.2h33.153v41.2c.001 2.031-1.645 3.677-3.676 3.677z" fill="#26457d"/><path d="m260.266 48.74v41.2c0 2.031-1.646 3.677-3.677 3.677h12.313c2.031 0 3.677-1.646 3.677-3.677v-41.2z" fill="#21386b"/><g><path d="m291.496 156.144c-1.954 0-3.905-.759-5.376-2.269-2.889-2.969-2.824-7.717.144-10.606l9.296-9.047-9.296-9.047c-2.968-2.89-3.032-7.638-.144-10.606 2.889-2.966 7.637-3.033 10.606-.144l14.817 14.422c1.45 1.412 2.269 3.351 2.269 5.375s-.818 3.963-2.269 5.375l-14.817 14.422c-1.457 1.418-3.345 2.125-5.23 2.125z" fill="#f9f6f6"/></g><g><path d="m238.717 147.823h-32.627c-4.143 0-7.5-3.357-7.5-7.5s3.357-7.5 7.5-7.5h32.627c4.143 0 7.5 3.357 7.5 7.5s-3.358 7.5-7.5 7.5z" fill="#26457d"/></g><path d="m335.069 396.488h-158.134v-116.864c0-4.888 3.962-8.85 8.85-8.85h140.433c4.888 0 8.85 3.962 8.85 8.85v116.864z" fill="#ffd064"/><path d="m326.219 270.774h-19.199c4.888 0 8.85 3.963 8.85 8.85v116.864h19.198v-116.864c.001-4.888-3.961-8.85-8.849-8.85z" fill="#ffc250"/><path d="m268.902 315.65h-25.8c-2.031 0-3.677-1.646-3.677-3.677v-41.2h33.153v41.2c.001 2.031-1.645 3.677-3.676 3.677z" fill="#26457d"/><path d="m260.266 270.774v41.2c0 2.031-1.646 3.677-3.677 3.677h12.313c2.031 0 3.677-1.646 3.677-3.677v-41.2z" fill="#21386b"/><g><path d="m291.496 378.177c-1.954 0-3.905-.759-5.376-2.269-2.889-2.969-2.824-7.717.144-10.606l9.296-9.047-9.296-9.047c-2.968-2.89-3.032-7.638-.144-10.606 2.889-2.967 7.637-3.034 10.606-.144l14.817 14.422c1.45 1.412 2.269 3.351 2.269 5.375s-.818 3.963-2.269 5.375l-14.817 14.422c-1.457 1.418-3.345 2.125-5.23 2.125z" fill="#f9f6f6"/></g><g><path d="m238.717 369.856h-32.627c-4.143 0-7.5-3.357-7.5-7.5s3.357-7.5 7.5-7.5h32.627c4.143 0 7.5 3.357 7.5 7.5s-3.358 7.5-7.5 7.5z" fill="#26457d"/></g><path d="m499.089 501.465c0 1.678-1.36 3.038-3.038 3.038h-98.193v-493.962c0-1.678 1.36-3.038 3.038-3.038h98.193z" fill="#26457d"/><path d="m479.674 7.503v497h16.377c1.678 0 3.038-1.36 3.038-3.038v-493.962z" fill="#21386b"/><g><path d="m392.48 512.005c-2.767 0-5.427-1.536-6.732-4.185-1.832-3.716-.306-8.212 3.409-10.044l98.359-48.501-98.359-48.502c-2.561-1.263-4.183-3.871-4.183-6.727s1.622-5.464 4.184-6.727l98.356-48.494-98.356-48.495c-2.562-1.263-4.184-3.871-4.184-6.727s1.622-5.464 4.184-6.727l98.356-48.493-98.356-48.492c-2.562-1.263-4.184-3.87-4.184-6.727 0-2.855 1.622-5.464 4.184-6.727l98.356-48.495-98.356-48.493c-2.562-1.263-4.184-3.871-4.184-6.727s1.622-5.464 4.184-6.727l112-55.222c3.716-1.835 8.212-.306 10.043 3.41 1.832 3.715.306 8.212-3.41 10.043l-98.356 48.495 98.356 48.493c2.562 1.263 4.184 3.871 4.184 6.727s-1.622 5.464-4.184 6.727l-98.356 48.495 98.356 48.492c2.562 1.263 4.184 3.871 4.184 6.727s-1.622 5.464-4.184 6.727l-98.356 48.493 98.355 48.498c2.562 1.263 4.184 3.871 4.184 6.727s-1.622 5.464-4.184 6.727l-98.357 48.494 98.358 48.502c2.561 1.263 4.183 3.871 4.183 6.727s-1.622 5.464-4.183 6.727l-112 55.228c-1.066.524-2.198.773-3.311.773z" fill="#21386b"/></g></g></svg>