<svg id="Capa_1" enable-background="new 0 0 512 512" height="512" viewBox="0 0 512 512" width="512" xmlns="http://www.w3.org/2000/svg"><g><circle cx="128" cy="402.591" fill="#26457d" r="45.551"/><path d="m128 357.04c-3.9 0-7.684.492-11.297 1.414 19.692 5.025 34.254 22.88 34.254 44.137s-14.562 39.112-34.254 44.137c3.613.922 7.397 1.414 11.297 1.414 25.157 0 45.551-20.394 45.551-45.551s-20.394-45.551-45.551-45.551z" fill="#21386b"/><circle cx="384" cy="402.591" fill="#26457d" r="45.551"/><path d="m384 357.04c-3.9 0-7.684.492-11.297 1.414 19.692 5.025 34.254 22.88 34.254 44.137s-14.562 39.112-34.254 44.137c3.613.922 7.397 1.414 11.297 1.414 25.157 0 45.551-20.394 45.551-45.551s-20.394-45.551-45.551-45.551z" fill="#21386b"/><path d="m277.734 107.325h-43.467v-21.734c0-12.003 9.73-21.734 21.734-21.734 12.003 0 21.734 9.73 21.734 21.734v21.734z" fill="#80b4fb"/><g><path d="m473.145 334.309h-434.29v-38.775c0-107.117 86.836-193.953 193.953-193.953h46.384c107.117 0 193.953 86.836 193.953 193.953z" fill="#f9f6f6"/><path d="m473.145 295.534c0-107.117-86.836-193.953-193.953-193.953h-31.635c107.117 0 193.953 86.836 193.953 193.953v38.775h31.635z" fill="#dddaec"/></g><path d="m473.145 334.309h-434.29v-38.775c0-107.117 86.836-193.953 193.953-193.953h46.384c107.117 0 193.953 86.836 193.953 193.953z" fill="#e4f6ff"/><path d="m473.145 295.534c0-107.117-86.836-193.953-193.953-193.953h-31.635c107.117 0 193.953 86.836 193.953 193.953v38.775h31.635z" fill="#d3effb"/><path d="m483.568 378.885h-455.136c-15.702 0-28.432-12.73-28.432-28.433v-25.952c0-2.059 1.669-3.728 3.728-3.728h504.544c2.059 0 3.728 1.669 3.728 3.728v25.952c0 15.703-12.73 28.433-28.432 28.433z" fill="#80b4fb"/><path d="m482.146 320.772v29.68c0 15.703-12.729 28.432-28.432 28.432h29.854c15.703 0 28.432-12.73 28.432-28.432v-25.952c0-2.059-1.669-3.728-3.728-3.728z" fill="#61a2f9"/><g><path d="m316.897 357.555h-121.795c-4.268 0-7.726-3.459-7.726-7.726s3.459-7.726 7.726-7.726h121.795c4.268 0 7.726 3.459 7.726 7.726s-3.458 7.726-7.726 7.726z" fill="#61a2f9"/></g><path d="m369.559 320.772h-227.118c-19.829 0-35.904-16.075-35.904-35.904v-.717c0-.472.382-.854.854-.854h297.219c.472 0 .854.382.854.854v.717c0 19.829-16.075 35.904-35.905 35.904z" fill="#f9f6f6"/><path d="m372.703 283.298v1.57c0 19.829-16.075 35.904-35.904 35.904h32.76c19.829 0 35.904-16.075 35.904-35.904v-.717c0-.472-.382-.854-.854-.854h-31.906z" fill="#dddaec"/><path d="m390.899 283.298c-3.447-23.215-37.659-13.157-46.059-47.569-11.04-45.228-57.336-32.764-106.831-47.959-30.978-9.51-50.792 53.592-78.787 63.59-21.186 7.566-24.112 24.261-24.282 31.938z" fill="#ffd064"/><path d="m215.537 197.041c49.495 15.195 95.791 2.731 106.831 47.959 6.984 28.613 31.811 26.484 41.963 38.298h26.568c-3.447-23.215-37.659-13.157-46.059-47.569-11.04-45.228-57.336-32.764-106.831-47.959-9.654-2.964-18.224 1.126-26.295 8.462 1.256.152 2.529.412 3.823.809z" fill="#ffc250"/></g></svg>