<svg id="Capa_1" enable-background="new 0 0 512 512" height="512" viewBox="0 0 512 512" width="512" xmlns="http://www.w3.org/2000/svg"><g><g><path d="m42.828 399.282h-35.217c-4.204 0-7.611-3.407-7.611-7.612s3.407-7.611 7.611-7.611h27.605v-25.884c0-4.204 3.407-7.612 7.611-7.612s7.611 3.407 7.611 7.612v33.496c.001 4.204-3.406 7.611-7.61 7.611z" fill="#21386b"/></g><g><path d="m330.641 368.323h-302.994c-11.065 0-20.035-8.97-20.035-20.035v-35.301c0-3.031 2.457-5.488 5.488-5.488h317.541z" fill="#5986cb"/><path d="m290.912 307.499h39.729v60.824h-39.729z" fill="#4278c3"/></g><g><path d="m432.637 237.25c-5.455 0-9.877-4.422-9.877-9.877l-38.274-55.937h-64.445c-5.356 0-9.698 4.342-9.698 9.698v187.189h194.204c4.116 0 7.453-3.337 7.453-7.453v-79.26z" fill="#80b4fb"/></g><path d="m504.547 368.323c4.116 0 7.453-3.337 7.453-7.453v-79.26l-19.958-11.156c.1 1.845.029-4.207.052 90.416 0 4.116-3.337 7.453-7.453 7.453z" fill="#61a2f9"/><path d="m272.398 307.499h-234.671v-237.722c0-1.919 1.556-3.474 3.474-3.474h227.723c1.919 0 3.474 1.556 3.474 3.474z" fill="#ffd064"/><path d="m268.924 66.302h-27.612c1.919 0 3.474 1.556 3.474 3.474v237.722h27.612v-237.721c0-1.919-1.555-3.475-3.474-3.475z" fill="#ffc250"/><path d="m175.889 123.556h-41.654c-1.793 0-3.246-1.453-3.246-3.246v-54.008h48.146v54.008c.001 1.793-1.453 3.246-3.246 3.246z" fill="#26457d"/><path d="m161.192 66.302v54.008c0 1.793-1.453 3.246-3.246 3.246h17.943c1.793 0 3.246-1.453 3.246-3.246v-54.008z" fill="#21386b"/><g><path d="m215.315 230.518c-1.983 0-3.963-.77-5.455-2.302-2.933-3.012-2.867-7.832.145-10.764l14.041-13.667-14.041-13.667c-3.012-2.932-3.077-7.751-.145-10.764 2.932-3.012 7.751-3.077 10.763-.145l19.644 19.121c1.472 1.433 2.302 3.4 2.302 5.454s-.831 4.021-2.302 5.454l-19.644 19.121c-1.479 1.442-3.395 2.159-5.308 2.159z" fill="#f9f6f6"/></g><g><g><path d="m99.654 254.647c-2.083 0-4.159-.85-5.662-2.522l-9.856-10.961-9.856 10.961c-2.813 3.126-7.625 3.382-10.749.57-3.126-2.811-3.382-7.623-.571-10.749l15.516-17.254c1.444-1.605 3.501-2.522 5.66-2.522s4.216.917 5.66 2.522l15.516 17.254c2.811 3.126 2.555 7.939-.571 10.749-1.454 1.307-3.273 1.952-5.087 1.952z" fill="#21386b"/></g><g><path d="m84.136 278.396c-4.204 0-7.611-3.407-7.611-7.612v-34.959c0-4.204 3.407-7.612 7.611-7.612s7.611 3.408 7.611 7.612v34.959c0 4.205-3.407 7.612-7.611 7.612z" fill="#21386b"/></g></g><g><g><path d="m124.026 254.647c-1.813 0-3.632-.644-5.087-1.952-3.125-2.811-3.381-7.624-.569-10.749l15.517-17.254c1.443-1.605 3.501-2.522 5.659-2.522 2.159 0 4.216.917 5.66 2.522l15.516 17.254c2.811 3.126 2.555 7.939-.571 10.749-3.124 2.81-7.937 2.557-10.749-.57l-9.856-10.961-9.858 10.961c-1.503 1.671-3.578 2.522-5.662 2.522z" fill="#21386b"/></g><g><path d="m139.546 278.396c-4.204 0-7.611-3.407-7.611-7.612v-34.959c0-4.204 3.407-7.612 7.611-7.612s7.611 3.408 7.611 7.612v34.959c.001 4.205-3.407 7.612-7.611 7.612z" fill="#21386b"/></g></g><circle cx="413.636" cy="388.516" fill="#26457d" r="57.182"/><path d="m413.636 331.334c-3.238 0-6.409.283-9.501.8 27.056 4.527 47.681 28.039 47.681 56.382 0 28.342-20.625 51.855-47.681 56.382 3.091.517 6.262.8 9.501.8 31.581 0 57.182-25.601 57.182-57.182s-25.601-57.182-57.182-57.182z" fill="#21386b"/><circle cx="413.636" cy="388.516" fill="#f9f6f6" r="19.002"/><path d="m413.636 369.515c-2.766 0-5.387.605-7.758 1.667 6.623 2.969 11.244 9.606 11.244 17.334s-4.621 14.365-11.244 17.334c2.371 1.063 4.992 1.667 7.758 1.667 10.494 0 19.001-8.507 19.001-19.002 0-10.493-8.507-19-19.001-19z" fill="#dddaec"/><circle cx="121.953" cy="388.516" fill="#26457d" r="57.182"/><path d="m121.954 331.334c-3.238 0-6.409.283-9.501.8 27.056 4.527 47.681 28.039 47.681 56.382 0 28.342-20.625 51.855-47.681 56.382 3.091.517 6.262.8 9.501.8 31.581 0 57.182-25.601 57.182-57.182s-25.602-57.182-57.182-57.182z" fill="#21386b"/><circle cx="121.953" cy="388.516" fill="#f9f6f6" r="19.002"/><path d="m121.954 369.515c-2.766 0-5.387.605-7.758 1.667 6.623 2.969 11.244 9.606 11.244 17.334s-4.621 14.365-11.244 17.334c2.371 1.063 4.992 1.667 7.758 1.667 10.494 0 19.001-8.507 19.001-19.002 0-10.493-8.507-19-19.001-19z" fill="#dddaec"/><path d="m310.496 394.693h-66.863c-7.259 0-13.143-5.884-13.143-13.143v-13.226h93.149v13.226c0 7.258-5.884 13.143-13.143 13.143z" fill="#26457d"/><path d="m306.381 368.323v13.226c0 7.259-5.884 13.143-13.143 13.143h17.259c7.259 0 13.143-5.884 13.143-13.143v-13.226z" fill="#21386b"/><path d="m512 337.911h-14.82c-6.508 0-11.784-5.276-11.784-11.784 0-6.508 5.276-11.784 11.784-11.784h14.82z" fill="#da4a54"/><g><path d="m464.02 176.485c-1.7-3.113-4.964-5.05-8.512-5.05h-71.022v100.297c0 5.455 4.422 9.877 9.877 9.877h117.637v-9.503c0-5.098-1.281-10.115-3.724-14.589z" fill="#e4f6ff"/></g><path d="m512 272.107c0-5.098-1.281-10.115-3.724-14.589l-44.256-81.033c-1.7-3.113-4.964-5.05-8.512-5.05h-19.906c3.547 0 6.811 1.937 8.512 5.05l44.256 81.032c2.444 4.474 3.724 9.491 3.724 14.589v9.503h19.906z" fill="#d3effb"/><path d="m416.369 232.421c-.655-14.398-12.519-25.735-26.932-25.735h-4.95v65.047c0 5.455 4.422 9.877 9.877 9.877h24.244z" fill="#26457d"/><path d="m469.197 242.534c-2.973-2.972-7.792-2.972-10.765 0-2.972 2.972-2.972 7.792 0 10.764l28.311 28.312h21.53z" fill="#21386b"/><g><path d="m345.894 254.647c-4.204 0-7.612-3.408-7.612-7.611v-26.446c0-4.204 3.407-7.611 7.612-7.611s7.611 3.408 7.611 7.611v26.445c0 4.204-3.407 7.612-7.611 7.612z" fill="#f9f6f6"/></g><g><path d="m454.973 264.369c-1.947 0-3.896-.743-5.383-2.229-2.972-2.973-2.972-7.792 0-10.765l17.683-17.683c2.973-2.972 7.792-2.972 10.765 0 2.972 2.972 2.972 7.792 0 10.764l-17.683 17.683c-1.486 1.487-3.434 2.23-5.382 2.23z" fill="#26457d"/></g></g></svg>