<svg id="Capa_1" enable-background="new 0 0 512 512" height="512" viewBox="0 0 512 512" width="512" xmlns="http://www.w3.org/2000/svg"><g><g fill="#e2a770"><path d="m128.536 228.825h-8.461c-12.816 0-23.205-10.389-23.205-23.205v-4.814c0-12.816 10.389-23.205 23.205-23.205h8.461z"/><path d="m328.52 228.825h8.461c12.816 0 23.205-10.389 23.205-23.205v-4.814c0-12.816-10.389-23.205-23.205-23.205h-8.461z"/></g><path d="m379.468 512h-301.88c-4.396 0-7.96-3.564-7.96-7.96v-109.146c0-58.26 47.229-105.489 105.489-105.489h106.822c58.26 0 105.489 47.229 105.489 105.489v109.146c0 4.396-3.564 7.96-7.96 7.96z" fill="#80b4fb"/><path d="m281.939 289.405h-29.861c58.26 0 105.489 47.229 105.489 105.489v117.106h21.901c4.396 0 7.96-3.564 7.96-7.96v-109.146c0-58.26-47.229-105.489-105.489-105.489z" fill="#61a2f9"/><path d="m330.58 131.343h-204.104v-48.887c0-45.539 36.917-82.456 82.456-82.456h39.192c45.539 0 82.456 36.917 82.456 82.456z" fill="#80b4fb"/><path d="m248.124 0h-27.55c45.539 0 82.456 36.917 82.456 82.456v48.887h27.549v-48.887c.001-45.539-36.916-82.456-82.455-82.456z" fill="#61a2f9"/><g><path d="m220.557 78.616c-2.013 0-4.023-.782-5.538-2.337-2.976-3.058-2.909-7.95.148-10.927l10.257-9.982-10.257-9.984c-3.057-2.976-3.124-7.867-.147-10.926 2.976-3.057 7.867-3.125 10.926-.147l15.945 15.52c1.494 1.454 2.337 3.451 2.337 5.536 0 2.086-.843 4.082-2.337 5.537l-15.945 15.519c-1.503 1.462-3.447 2.191-5.389 2.191z" fill="#f9f6f6"/></g><path d="m228.528 378.83-31.647 23.095c-2.955 2.157-7.153.85-8.363-2.602l-35.423-109.918 19.989-22.585 15.62 43.034z" fill="#f9f6f6"/><path d="m228.528 378.83 31.647 23.095c2.955 2.157 7.153.85 8.363-2.602l35.423-109.918-19.989-22.585-15.62 43.034z" fill="#f9f6f6"/><path d="m228.528 378.83 39.823-68.976h-79.646z" fill="#e2a770"/><path d="m442.372 510.423c0 .871-.706 1.577-1.577 1.577h-124.303v-127.517c0-1.029.834-1.864 1.864-1.864h122.153c1.029 0 1.864.834 1.864 1.864v125.94z" fill="#ffd064"/><path d="m440.509 382.619h-23.226c1.029 0 1.864.834 1.864 1.864v127.517h21.649c.871 0 1.577-.706 1.577-1.577v-125.94c-.001-1.029-.835-1.864-1.864-1.864z" fill="#ffc250"/><path d="m395.33 421.535h-31.796c-1.286 0-2.329-1.043-2.329-2.329v-36.587h36.453v36.587c.001 1.286-1.042 2.329-2.328 2.329z" fill="#26457d"/><g><path d="m391.394 490.682c-2.013 0-4.023-.781-5.537-2.337-2.977-3.058-2.91-7.95.147-10.926l7.147-6.957-7.147-6.957c-3.057-2.976-3.124-7.867-.147-10.926 2.975-3.055 7.866-3.124 10.926-.147l12.835 12.493c1.494 1.454 2.337 3.451 2.337 5.536s-.843 4.082-2.337 5.536l-12.835 12.493c-1.503 1.464-3.447 2.192-5.389 2.192z" fill="#f9f6f6"/></g><path d="m228.528 326.307c-56.362 0-102.052-45.69-102.052-102.052v-92.912h204.104v92.912c0 56.362-45.69 102.052-102.052 102.052z" fill="#f1d0a5"/><path d="m139.302 131.343c-4.278.841-8.554 1.734-12.826 2.696v35.207c52.362-12.738 105.231-15.623 157.825-8.67 10.714 1.417 18.73 10.542 18.73 21.35v42.329c0 51.69-38.431 94.397-88.277 101.124 4.506.608 9.103.928 13.775.928 56.362 0 102.052-45.69 102.052-102.052v-92.911h-191.279z" fill="#f1b986"/><g><path d="m274.97 229.751c-4.268 0-7.726-3.459-7.726-7.726v-10.362c0-4.268 3.459-7.726 7.726-7.726s7.726 3.459 7.726 7.726v10.362c.001 4.268-3.458 7.726-7.726 7.726z" fill="#21386b"/></g><g><path d="m182.085 229.751c-4.268 0-7.726-3.459-7.726-7.726v-10.362c0-4.268 3.459-7.726 7.726-7.726s7.726 3.459 7.726 7.726v10.362c.001 4.268-3.458 7.726-7.726 7.726z" fill="#21386b"/></g><g><path d="m228.528 278.241c-8.06 0-16.122-2.973-23.959-8.921-3.398-2.579-4.063-7.427-1.484-10.826 2.58-3.398 7.425-4.062 10.826-1.484 10.109 7.672 19.125 7.67 29.233 0 3.398-2.578 8.245-1.915 10.826 1.484 2.579 3.399 1.915 8.245-1.484 10.826-7.836 5.948-15.897 8.921-23.958 8.921z" fill="#dd636e"/></g><g><path d="m116.057 153.862c-7.628 0-14.587-5.13-16.582-12.86-2.367-9.164 3.145-18.512 12.311-20.878 77.464-19.999 156.021-19.999 233.486 0 9.165 2.365 14.677 11.714 12.311 20.878-2.364 9.165-11.71 14.679-20.878 12.311-71.781-18.529-144.572-18.529-216.351 0-1.437.371-2.879.549-4.297.549z" fill="#f9f6f6"/></g><path d="m345.271 120.125c-4.76-1.229-9.525-2.381-14.293-3.459 3.043 8.797 4.289 20.427 2.929 31.93-.157 1.329-.347 2.62-.563 3.877 1.12.28 2.241.551 3.36.84 9.167 2.369 18.513-3.145 20.878-12.311 2.366-9.164-3.146-18.512-12.311-20.877z" fill="#dddaec"/><g><path d="m150.005 442.255c-4.268 0-7.726-3.459-7.726-7.726v-15.849c0-4.268 3.459-7.726 7.726-7.726 4.268 0 7.726 3.459 7.726 7.726v15.849c0 4.267-3.459 7.726-7.726 7.726z" fill="#21386b"/></g><path d="m182.275 476.424h-64.539c-3.404 0-6.164-2.76-6.164-6.164v-30.598c0-3.404 2.76-6.164 6.164-6.164h64.539c3.404 0 6.164 2.76 6.164 6.164v30.598c-.001 3.404-2.76 6.164-6.164 6.164z" fill="#f9f6f6"/><path d="m182.274 433.498h-19.039c3.404 0 6.164 2.76 6.164 6.164v30.598c0 3.404-2.76 6.164-6.164 6.164h19.039c3.404 0 6.164-2.76 6.164-6.164v-30.598c0-3.404-2.759-6.164-6.164-6.164z" fill="#dddaec"/></g></svg>