<svg id="Capa_1" enable-background="new 0 0 512 512" height="512" viewBox="0 0 512 512" width="512" xmlns="http://www.w3.org/2000/svg"><g><path d="m339.153 483.339c0 6.6-5.35 11.95-11.95 11.95h-315.253c-6.6 0-11.95-5.35-11.95-11.95v-293.904c0-6.6 5.35-11.95 11.95-11.95h315.254c6.6 0 11.95 5.35 11.95 11.95v293.904z" fill="#ffd064"/><path d="m303.096 177.485c6.491 0 11.754 5.262 11.754 11.754v306.05h12.354c6.6 0 11.95-5.35 11.95-11.95v-293.904c0-6.6-5.35-11.95-11.95-11.95z" fill="#ffc250"/><g><path d="m258.091 446.28c-8.378 8.155-21.781 7.974-29.936-.405l-4.91-5.044c-.545-.56-.533-1.456.027-2.001l33.872-32.97c.274-.266.428-.632.428-1.014s-.154-.748-.428-1.014l-33.872-32.97c-.56-.545-.572-1.441-.027-2.001l4.91-5.044c8.155-8.378 21.558-8.559 29.936-.404l31.486 30.647c1.633 1.589 2.962 3.488 3.741 5.629 2.071 5.687.527 11.79-3.564 15.771z" fill="#f9f6f6"/></g><path d="m190.468 233.272h-41.783c-3.867 0-7.002-3.135-7.002-7.002v-48.785h55.787v48.785c0 3.867-3.135 7.002-7.002 7.002z" fill="#26457d"/><path d="m177.131 177.485v48.785c0 3.867-3.135 7.002-7.002 7.002h20.339c3.867 0 7.002-3.135 7.002-7.002v-48.785z" fill="#21386b"/><g><g><path d="m65.641 433.333c-4.267 0-7.726-3.459-7.726-7.726v-52.277c0-4.268 3.459-7.726 7.726-7.726s7.726 3.459 7.726 7.726v52.277c0 4.268-3.459 7.726-7.726 7.726z" fill="#26457d"/></g><g><path d="m87.692 394.417c-1.961 0-3.923-.742-5.429-2.229l-16.622-16.415-16.622 16.415c-3.037 2.999-7.929 2.968-10.927-.067-2.998-3.036-2.968-7.929.068-10.927l22.051-21.778c3.009-2.972 7.849-2.972 10.858 0l22.051 21.778c3.036 2.998 3.067 7.89.068 10.927-1.51 1.529-3.502 2.296-5.496 2.296z" fill="#26457d"/></g></g><g><g><path d="m136.299 433.333c-4.267 0-7.726-3.459-7.726-7.726v-52.277c0-4.268 3.459-7.726 7.726-7.726s7.726 3.459 7.726 7.726v52.277c.001 4.268-3.459 7.726-7.726 7.726z" fill="#26457d"/></g><g><path d="m158.35 394.417c-1.961 0-3.923-.742-5.429-2.229l-16.622-16.415-16.623 16.415c-3.037 2.999-7.929 2.968-10.927-.067-2.998-3.036-2.968-7.929.068-10.927l22.052-21.778c3.01-2.972 7.85-2.973 10.858 0l22.051 21.778c3.036 2.998 3.067 7.89.068 10.927-1.509 1.529-3.502 2.296-5.496 2.296z" fill="#26457d"/></g></g><circle cx="381.942" cy="146.77" fill="#dd636e" r="130.058"/><path d="m512 146.77c0-71.829-58.229-130.058-130.058-130.058-4.237 0-8.425.21-12.558.606 65.936 6.318 117.501 61.86 117.501 129.453 0 67.592-51.564 123.134-117.501 129.453 4.133.396 8.321.606 12.558.606 71.829-.002 130.058-58.231 130.058-130.06z" fill="#da4a54"/><path d="m407.122 147.77c-.553-.553-.553-1.448 0-2.001l31.494-31.494c6.678-6.677 6.678-17.503 0-24.18-6.677-6.677-17.503-6.677-24.18 0l-31.494 31.494c-.553.553-1.448.553-2.001 0l-31.494-31.494c-6.677-6.677-17.503-6.677-24.18 0-6.678 6.677-6.678 17.503 0 24.18l31.494 31.494c.553.553.553 1.448 0 2.001l-31.494 31.494c-6.678 6.677-6.678 17.503 0 24.18 3.338 3.338 7.714 5.008 12.09 5.008s8.752-1.67 12.09-5.008l31.494-31.494c.553-.553 1.448-.553 2.001 0l31.494 31.494c3.338 3.338 7.714 5.008 12.09 5.008s8.752-1.67 12.09-5.008c6.678-6.677 6.678-17.503 0-24.18z" fill="#f9f6f6"/></g></svg>