<svg id="Capa_1" enable-background="new 0 0 512 512" height="512" viewBox="0 0 512 512" width="512" xmlns="http://www.w3.org/2000/svg"><g><g><path d="m42.827 415.081h-35.216c-4.204 0-7.611-3.407-7.611-7.611s3.407-7.612 7.611-7.612h27.604v-25.884c0-4.204 3.407-7.612 7.611-7.612s7.611 3.407 7.611 7.612v33.496c.001 4.204-3.406 7.611-7.61 7.611z" fill="#26457d"/></g><g><path d="m330.64 384.123h-302.994c-11.065 0-20.035-8.97-20.035-20.035v-36.936c0-2.128 1.725-3.853 3.853-3.853h319.176z" fill="#5986cb"/><path d="m290.911 323.299h39.729v60.824h-39.729z" fill="#4278c3"/></g><g><path d="m413.668 259.948-29.182-72.712h-64.445c-5.356 0-9.698 4.342-9.698 9.698v187.189h190.171l.305-7.758c4.116 0 7.453-3.337 7.453-7.453l3.728-71.502-88.455-27.585c-5.455 0-9.877-4.422-9.877-9.877z" fill="#80b4fb"/></g><path d="m492.093 376.67c0 4.116-3.337 7.453-7.453 7.453h19.907c3.087 0 5.736-1.877 6.867-4.552.094-.223.178-.451.251-.685.218-.7.335-1.445.335-2.217v-79.26l-19.906-6.208v85.469z" fill="#61a2f9"/><circle cx="413.635" cy="404.316" fill="#26457d" r="57.182"/><path d="m413.635 347.134c-3.238 0-6.409.283-9.501.8 27.056 4.527 47.681 28.039 47.681 56.382 0 28.342-20.625 51.855-47.681 56.382 3.091.517 6.262.8 9.501.8 31.581 0 57.182-25.601 57.182-57.182s-25.601-57.182-57.182-57.182z" fill="#21386b"/><circle cx="413.635" cy="404.316" fill="#f9f6f6" r="19.002"/><path d="m413.635 385.315c-2.766 0-5.387.605-7.758 1.667 6.623 2.969 11.244 9.606 11.244 17.334s-4.621 14.365-11.244 17.334c2.371 1.063 4.992 1.667 7.758 1.667 10.494 0 19.001-8.507 19.001-19.002s-8.507-19-19.001-19z" fill="#dddaec"/><circle cx="121.953" cy="404.316" fill="#26457d" r="57.182"/><path d="m121.953 347.134c-3.238 0-6.409.283-9.501.8 27.056 4.527 47.681 28.039 47.681 56.382 0 28.342-20.625 51.855-47.681 56.382 3.091.517 6.262.8 9.501.8 31.581 0 57.182-25.601 57.182-57.182s-25.602-57.182-57.182-57.182z" fill="#21386b"/><circle cx="121.953" cy="404.316" fill="#f9f6f6" r="19.002"/><path d="m121.953 385.315c-2.766 0-5.387.605-7.758 1.667 6.623 2.969 11.244 9.606 11.244 17.334s-4.621 14.365-11.244 17.334c2.371 1.063 4.992 1.667 7.758 1.667 10.494 0 19.001-8.507 19.001-19.002s-8.507-19-19.001-19z" fill="#dddaec"/><path d="m310.495 410.493h-66.863c-7.259 0-13.143-5.884-13.143-13.143v-13.226h93.149v13.226c.001 7.258-5.884 13.143-13.143 13.143z" fill="#26457d"/><path d="m306.38 384.123v13.226c0 7.259-5.884 13.143-13.143 13.143h17.259c7.259 0 13.143-5.884 13.143-13.143v-13.226z" fill="#21386b"/><path d="m512 353.711h-14.82c-6.508 0-11.784-5.276-11.784-11.784 0-6.508 5.276-11.784 11.784-11.784h14.82z" fill="#da4a54"/><g><path d="m464.019 192.285c-1.7-3.113-4.964-5.05-8.511-5.05h-71.022v100.297c0 5.455 4.422 9.877 9.877 9.877h117.637v-9.503c0-5.098-1.281-10.115-3.724-14.589z" fill="#e4f6ff"/></g><path d="m508.275 273.318-44.256-81.033c-1.7-3.113-4.964-5.05-8.512-5.05h-19.906c3.547 0 6.811 1.937 8.512 5.05l44.256 81.032c2.444 4.474 3.724 9.491 3.724 14.589v9.503h19.907v-9.503c0-5.097-1.281-10.114-3.725-14.588z" fill="#d3effb"/><path d="m416.368 248.221c-.655-14.398-12.519-25.735-26.932-25.735h-4.95v65.047c0 5.455 4.422 9.877 9.877 9.877h24.244z" fill="#26457d"/><path d="m469.196 258.334c-2.973-2.971-7.792-2.971-10.765 0-2.972 2.973-2.972 7.792 0 10.765l28.311 28.311h21.53z" fill="#21386b"/><g><path d="m454.972 280.169c-1.947 0-3.896-.743-5.383-2.229-2.972-2.973-2.972-7.792 0-10.765l17.683-17.683c2.973-2.971 7.792-2.971 10.765 0 2.972 2.973 2.972 7.792 0 10.765l-17.683 17.683c-1.486 1.486-3.434 2.229-5.382 2.229z" fill="#26457d"/></g><g><path d="m345.893 270.447c-4.204 0-7.612-3.407-7.612-7.612v-26.445c0-4.204 3.407-7.612 7.612-7.612s7.611 3.407 7.611 7.612v26.445c0 4.205-3.407 7.612-7.611 7.612z" fill="#f9f6f6"/></g><path d="m261.346 323.299h-218.519v-265.391c0-4.091 3.316-7.407 7.407-7.407h152.788l58.324 58.324z" fill="#f9f6f6"/><path d="m203.022 50.501h-17.608l58.324 58.325v214.473h17.608v-214.473z" fill="#dddaec"/><path d="m261.346 108.826h-54.383c-2.176 0-3.941-1.764-3.941-3.941v-54.384z" fill="#dad0cb"/><path d="m246.765 94.244-43.743-43.743v17.608l40.716 40.717h17.608z" fill="#beb9dd"/><g><path d="m165.254 107.851h-70.499c-4.204 0-7.611-3.407-7.611-7.611s3.407-7.611 7.611-7.611h70.499c4.204 0 7.611 3.407 7.611 7.611s-3.407 7.611-7.611 7.611z" fill="#21386b"/></g><g><path d="m216.239 162.841h-121.484c-4.204 0-7.611-3.407-7.611-7.611s3.407-7.611 7.611-7.611h121.484c4.204 0 7.611 3.407 7.611 7.611s-3.407 7.611-7.611 7.611z" fill="#21386b"/></g><g><path d="m216.239 217.833h-121.484c-4.204 0-7.611-3.407-7.611-7.611s3.407-7.611 7.611-7.611h121.484c4.204 0 7.611 3.407 7.611 7.611s-3.407 7.611-7.611 7.611z" fill="#21386b"/></g><g><path d="m216.239 272.823h-121.484c-4.204 0-7.611-3.407-7.611-7.611s3.407-7.612 7.611-7.612h121.484c4.204 0 7.611 3.407 7.611 7.612s-3.407 7.611-7.611 7.611z" fill="#21386b"/></g></g></svg>