<svg id="Capa_1" enable-background="new 0 0 512 512" height="512" viewBox="0 0 512 512" width="512" xmlns="http://www.w3.org/2000/svg"><g><path d="m420.185 500.43c0 6.39-5.18 11.57-11.57 11.57h-305.23c-6.39 0-11.57-5.18-11.57-11.57v-284.559c0-6.39 5.18-11.57 11.57-11.57h305.23c6.39 0 11.57 5.18 11.57 11.57z" fill="#ffd064"/><path d="m385.274 204.301c6.285 0 11.38 5.095 11.38 11.38v296.319h11.961c6.39 0 11.57-5.18 11.57-11.57v-284.559c0-6.39-5.18-11.57-11.57-11.57z" fill="#ffc250"/><g><path d="m341.7 464.549c-8.112 7.896-21.088 7.72-28.984-.392l-4.871-5.005c-.463-.475-.452-1.236.023-1.698l33.04-32.16c.232-.226.363-.536.363-.861 0-.324-.131-.635-.363-.861l-33.04-32.161c-.475-.463-.486-1.223-.023-1.698l4.871-5.005c7.895-8.112 20.872-8.287 28.984-.392l30.485 29.673c1.581 1.539 2.867 3.378 3.622 5.45 2.005 5.507.51 11.415-3.451 15.27z" fill="#f9f6f6"/></g><path d="m276.227 258.315h-40.454c-3.744 0-6.78-3.035-6.78-6.78v-47.234h54.013v47.234c.001 3.744-3.035 6.78-6.779 6.78z" fill="#26457d"/><path d="m263.315 204.301v47.234c0 3.744-3.035 6.779-6.78 6.779h19.692c3.744 0 6.779-3.035 6.779-6.779v-47.234z" fill="#21386b"/><g><g><path d="m155.369 452.285c-4.282 0-7.752-3.47-7.752-7.752v-50.615c0-4.282 3.47-7.752 7.752-7.752s7.752 3.47 7.752 7.752v50.615c-.001 4.282-3.471 7.752-7.752 7.752z" fill="#26457d"/></g><g><path d="m134.019 414.606c-1.999 0-3.999-.769-5.515-2.304-3.009-3.046-2.977-7.954.068-10.962l21.35-21.086c3.02-2.982 7.875-2.984 10.895 0l21.351 21.086c3.045 3.008 3.076 7.916.068 10.961-3.009 3.048-7.917 3.075-10.962.069l-15.904-15.706-15.903 15.706c-1.512 1.492-3.48 2.236-5.448 2.236z" fill="#26457d"/></g></g><g><g><path d="m223.78 452.285c-4.282 0-7.752-3.47-7.752-7.752v-50.615c0-4.282 3.47-7.752 7.752-7.752s7.752 3.47 7.752 7.752v50.615c0 4.282-3.47 7.752-7.752 7.752z" fill="#26457d"/></g><g><path d="m202.43 414.606c-1.999 0-3.999-.769-5.515-2.304-3.009-3.046-2.977-7.954.068-10.962l21.35-21.086c3.02-2.982 7.875-2.984 10.895 0l21.351 21.086c3.045 3.008 3.076 7.916.068 10.961-3.009 3.048-7.917 3.075-10.962.069l-15.904-15.706-15.903 15.706c-1.512 1.492-3.48 2.236-5.448 2.236z" fill="#26457d"/></g></g><path d="m311.673 53.408-52.785-52.221c-1.6-1.583-4.176-1.583-5.776 0l-52.785 52.221c-1.383 1.368-.414 3.724 1.531 3.724h20.897c3.421 0 6.195 2.773 6.195 6.195v92.778c0 2.56 2.076 4.636 4.636 4.636h44.828c2.56 0 4.636-2.076 4.636-4.636v-92.779c0-3.421 2.773-6.195 6.195-6.195h20.897c1.945.001 2.913-2.356 1.531-3.723z" fill="#95d6a4"/><g fill="#78c2a4"><path d="m261.596 63.326v97.414h16.818c2.56 0 4.636-2.076 4.636-4.636v-92.778c0-3.421 2.773-6.195 6.195-6.195h-21.454c-3.421.001-6.195 2.774-6.195 6.195z"/><path d="m253.112 1.187-7.839 7.755 48.71 48.189h16.159c1.945 0 2.913-2.356 1.531-3.724l-52.785-52.22c-1.6-1.583-4.176-1.583-5.776 0z"/></g><g><g><g><path d="m164.728 182.167c-4.282 0-7.752-3.47-7.752-7.752v-75.096c0-4.282 3.47-7.752 7.752-7.752s7.752 3.47 7.752 7.752v75.096c0 4.282-3.47 7.752-7.752 7.752z" fill="#95d6a4"/></g><g><path d="m187.044 115.987c-1.697 0-3.404-.554-4.834-1.696l-17.482-13.967-17.482 13.967c-3.346 2.673-8.222 2.127-10.895-1.217-2.673-3.345-2.128-8.223 1.217-10.895l22.321-17.833c2.83-2.261 6.847-2.261 9.677 0l22.321 17.833c3.345 2.672 3.89 7.55 1.217 10.895-1.529 1.915-3.784 2.913-6.06 2.913z" fill="#95d6a4"/></g></g><g><g><path d="m347.272 182.167c-4.282 0-7.752-3.47-7.752-7.752v-75.096c0-4.282 3.47-7.752 7.752-7.752s7.752 3.47 7.752 7.752v75.096c0 4.282-3.47 7.752-7.752 7.752z" fill="#95d6a4"/></g><g><path d="m369.588 115.987c-1.697 0-3.404-.554-4.834-1.696l-17.482-13.967-17.482 13.967c-3.346 2.673-8.222 2.127-10.895-1.217-2.673-3.345-2.128-8.223 1.217-10.895l22.321-17.833c2.83-2.261 6.847-2.261 9.677 0l22.321 17.833c3.345 2.672 3.89 7.55 1.217 10.895-1.529 1.915-3.784 2.913-6.06 2.913z" fill="#95d6a4"/></g></g></g></g></svg>