<svg id="Capa_1" enable-background="new 0 0 512 512" height="512" viewBox="0 0 512 512" width="512" xmlns="http://www.w3.org/2000/svg"><g><path d="m417.218 500.64c0 6.274-5.086 11.361-11.361 11.361h-299.714c-6.274 0-11.361-5.086-11.361-11.361v-279.418c0-6.274 5.086-11.361 11.361-11.361h299.715c6.274 0 11.361 5.086 11.361 11.361v279.418z" fill="#ffd064"/><path d="m382.938 209.862c6.172 0 11.175 5.003 11.175 11.174v290.964h11.745c6.274 0 11.361-5.086 11.361-11.361v-279.417c0-6.274-5.086-11.361-11.361-11.361h-22.92z" fill="#ffc250"/><g><path d="m340.152 465.407c-7.965 7.753-20.707 7.581-28.46-.385l-4.783-4.915c-.454-.467-.444-1.213.023-1.668l32.443-31.579c.228-.222.357-.527.357-.845s-.129-.623-.357-.845l-32.443-31.58c-.467-.454-.477-1.201-.023-1.668l4.783-4.914c7.753-7.965 20.495-8.138 28.46-.385l29.935 29.137c1.552 1.511 2.816 3.316 3.556 5.352 1.968 5.407.501 11.209-3.389 14.994z" fill="#f9f6f6"/></g><path d="m275.862 262.899h-39.723c-3.677 0-6.657-2.98-6.657-6.657v-46.38h53.037v46.38c0 3.676-2.981 6.657-6.657 6.657z" fill="#26457d"/><path d="m263.183 209.862v46.38c0 3.677-2.98 6.657-6.657 6.657h19.336c3.677 0 6.657-2.98 6.657-6.657v-46.38z" fill="#21386b"/><g><g><path d="m157.187 453.365c-4.204 0-7.611-3.407-7.611-7.612v-49.701c0-4.204 3.407-7.612 7.611-7.612s7.611 3.407 7.611 7.612v49.701c.001 4.204-3.407 7.612-7.611 7.612z" fill="#26457d"/></g><g><path d="m136.223 416.367c-1.963 0-3.927-.755-5.415-2.263-2.954-2.991-2.924-7.811.066-10.764l20.964-20.705c2.965-2.928 7.732-2.93 10.698 0l20.965 20.705c2.99 2.953 3.021 7.773.066 10.763-2.954 2.993-7.774 3.02-10.764.067l-15.616-15.422-15.615 15.422c-1.484 1.465-3.417 2.197-5.349 2.197z" fill="#26457d"/></g></g><g><g><path d="m224.363 453.365c-4.204 0-7.611-3.407-7.611-7.612v-49.701c0-4.204 3.407-7.612 7.611-7.612s7.611 3.407 7.611 7.612v49.701c0 4.204-3.407 7.612-7.611 7.612z" fill="#26457d"/></g><g><path d="m203.398 416.367c-1.963 0-3.927-.755-5.415-2.263-2.954-2.991-2.924-7.811.066-10.764l20.964-20.705c2.965-2.928 7.732-2.93 10.698 0l20.965 20.705c2.99 2.953 3.021 7.773.066 10.763-2.954 2.993-7.774 3.02-10.764.067l-15.616-15.422-15.615 15.422c-1.484 1.465-3.416 2.197-5.349 2.197z" fill="#26457d"/></g></g><path d="m313.069 124.056-55.545 54.952c-.844.835-2.203.835-3.047 0l-55.545-54.952c-.475-.47-.142-1.28.526-1.28h23.899c3.359 0 6.083-2.723 6.083-6.083v-93.274c0-1.314 1.066-2.38 2.38-2.38h48.363c1.314 0 2.38 1.066 2.38 2.38v93.274c0 3.359 2.723 6.083 6.083 6.083h23.899c.667 0 1 .81.524 1.28z" fill="#dd636e"/><g fill="#da4a54"><path d="m261.495 116.693v-95.654h18.687c1.314 0 2.38 1.066 2.38 2.38v93.274c0 3.359 2.723 6.083 6.083 6.083h-21.067c-3.36 0-6.083-2.723-6.083-6.083z"/><path d="m254.477 179.008-9.01-8.913 47.829-47.318h19.247c.668 0 1.001.81.526 1.28l-55.545 54.952c-.844.834-2.203.834-3.047-.001z"/></g><g><g><g><path d="m345.623 88.962c-4.204 0-7.611-3.407-7.611-7.611v-73.74c0-4.204 3.407-7.611 7.611-7.611s7.612 3.407 7.612 7.611v73.739c0 4.205-3.408 7.612-7.612 7.612z" fill="#dd636e"/></g><g><path d="m345.623 97.719c-1.681 0-3.362-.555-4.751-1.665l-21.918-17.511c-3.284-2.623-3.82-7.413-1.195-10.698 2.622-3.284 7.412-3.82 10.698-1.195l17.166 13.716 17.167-13.716c3.285-2.624 8.073-2.088 10.698 1.195 2.624 3.284 2.089 8.074-1.195 10.698l-21.918 17.511c-1.39 1.11-3.071 1.665-4.752 1.665z" fill="#dd636e"/></g></g><g><g><path d="m166.377 88.962c-4.204 0-7.611-3.407-7.611-7.611v-73.74c0-4.204 3.407-7.611 7.611-7.611s7.611 3.407 7.611 7.611v73.739c.001 4.205-3.406 7.612-7.611 7.612z" fill="#dd636e"/></g><g><path d="m166.377 97.719c-1.681 0-3.362-.555-4.751-1.665l-21.918-17.511c-3.284-2.623-3.82-7.413-1.195-10.698 2.622-3.284 7.412-3.82 10.698-1.195l17.167 13.716 17.167-13.716c3.286-2.624 8.073-2.088 10.698 1.195 2.624 3.284 2.089 8.074-1.195 10.698l-21.918 17.511c-1.391 1.11-3.072 1.665-4.753 1.665z" fill="#dd636e"/></g></g></g></g></svg>