<svg id="Capa_1" enable-background="new 0 0 512 512" height="512" viewBox="0 0 512 512" width="512" xmlns="http://www.w3.org/2000/svg"><g><g><g><path d="m281.74 426.889c-4.204 0-7.611-3.407-7.611-7.611v-46.007c0-4.204 3.407-7.611 7.611-7.611s7.612 3.407 7.612 7.611v46.007c-.001 4.204-3.408 7.611-7.612 7.611z" fill="#26457d"/></g><g><path d="m286.803 426.889h-10.127c-4.204 0-7.612-3.407-7.612-7.611s3.407-7.612 7.612-7.612h10.127c4.204 0 7.612 3.407 7.612 7.612s-3.408 7.611-7.612 7.611z" fill="#26457d"/></g></g><g><g><path d="m281.74 331.535c-4.204 0-7.611-3.407-7.611-7.611v-46.008c0-4.204 3.407-7.611 7.611-7.611s7.612 3.407 7.612 7.611v46.008c-.001 4.204-3.408 7.611-7.612 7.611z" fill="#26457d"/></g><g><path d="m286.803 285.528h-10.127c-4.204 0-7.612-3.407-7.612-7.612s3.407-7.611 7.612-7.611h10.127c4.204 0 7.612 3.407 7.612 7.611s-3.408 7.612-7.612 7.612z" fill="#26457d"/></g></g><g><path d="m153.796 191.295c-4.204 0-7.611-3.408-7.611-7.611v-7.676c0-4.204 3.408-7.611 7.611-7.611 4.204 0 7.611 3.408 7.611 7.611v7.676c.001 4.203-3.407 7.611-7.611 7.611z" fill="#21386b"/></g><path d="m128.193 184.698h-96.894v-98.153c0-.792.642-1.435 1.435-1.435h94.024c.792 0 1.435.642 1.435 1.435z" fill="#ffd064"/><path d="m126.758 85.111h-17.878c.792 0 1.435.642 1.435 1.435v98.153h17.878v-98.154c0-.792-.642-1.434-1.435-1.434z" fill="#ffc250"/><path d="m90.104 108.75h-20.716c-.807 0-1.462-.654-1.462-1.462v-22.177h23.639v22.178c.001.807-.653 1.461-1.461 1.461z" fill="#26457d"/><g><path d="m96.244 169.953c-1.982 0-3.963-.77-5.455-2.302-2.932-3.012-2.867-7.832.145-10.764l4.276-4.162-4.276-4.162c-3.012-2.932-3.077-7.751-.145-10.764 2.933-3.012 7.751-3.076 10.764-.145l9.879 9.616c1.472 1.433 2.302 3.4 2.302 5.454 0 2.055-.831 4.021-2.302 5.454l-9.879 9.616c-1.48 1.442-3.395 2.159-5.309 2.159z" fill="#f9f6f6"/></g><g fill="#26457d"><path d="m312.358 208.55h-56.71c-7.613 0-13.785-6.172-13.785-13.785v-10.067h84.279v10.067c0 7.613-6.171 13.785-13.784 13.785z"/><circle cx="436.323" cy="342.563" r="75.677"/><circle cx="120.677" cy="342.563" r="75.677"/></g><path d="m512 342.563c0-41.795-33.882-75.677-75.677-75.677-3.517 0-6.972.26-10.362.724 36.89 5.054 65.315 36.675 65.315 74.953s-28.425 69.899-65.315 74.953c3.39.464 6.845.724 10.362.724 41.795 0 75.677-33.882 75.677-75.677z" fill="#21386b"/><path d="m196.354 342.563c0-41.795-33.882-75.677-75.677-75.677-3.517 0-6.972.26-10.362.724 36.89 5.054 65.315 36.675 65.315 74.953s-28.425 69.899-65.315 74.953c3.39.464 6.845.724 10.362.724 41.796 0 75.677-33.882 75.677-75.677z" fill="#21386b"/><g><path d="m369.452 385.686c-5.607 2.372-12.053-.254-14.454-5.849-3.713-8.652-8.049-20.646-8.054-37.247-.014-49 38.833-88.594 87.827-89.392 24.716-.402 41.786 8.88 52.074 15.529 5.105 3.299 6.57 10.105 3.287 15.22l-7.378 11.496c-.408.636-1.053 1.084-1.792 1.245s-1.511.022-2.147-.387c-7.853-5.047-20.855-15.913-43.102-15.712-34.159.309-61.368 27.815-61.368 61.975 0 15.962 5.653 25.603 9.175 34.099.599 1.446-.08 3.105-1.522 3.715z" fill="#80b4fb"/></g><g><path d="m490.132 283.947c3.283-5.115 1.818-11.921-3.287-15.22-4.597-2.971-10.559-6.464-17.942-9.388.294.187.603.379.887.563 5.105 3.299 6.569 10.105 3.287 15.22l-8.045 12.535c5.835 3.046 10.313 6.413 13.784 8.643.636.409 1.408.548 2.147.387s1.383-.609 1.792-1.245z" fill="#61a2f9"/></g><circle cx="436.323" cy="342.563" fill="#f9f6f6" r="29.273"/><path d="m465.596 342.563c0-16.167-13.106-29.273-29.273-29.273-2.94 0-5.777.438-8.454 1.245 12.044 3.628 20.819 14.801 20.819 28.029s-8.775 24.4-20.819 28.029c2.677.806 5.514 1.245 8.454 1.245 16.167-.002 29.273-13.108 29.273-29.275z" fill="#dddaec"/><g><path d="m53.807 385.686c-5.607 2.372-12.053-.254-14.454-5.849-3.713-8.652-8.049-20.646-8.054-37.247-.014-49 38.833-88.594 87.827-89.392 24.716-.402 41.786 8.88 52.074 15.529 5.105 3.299 6.57 10.105 3.287 15.22l-7.378 11.496c-.408.636-1.053 1.084-1.792 1.245s-1.511.022-2.147-.387c-7.853-5.047-20.855-15.913-43.102-15.712-34.159.309-61.368 27.815-61.368 61.975 0 15.962 5.653 25.603 9.175 34.099.599 1.446-.08 3.105-1.522 3.715z" fill="#80b4fb"/></g><g><path d="m171.2 268.727c-4.597-2.971-10.559-6.464-17.942-9.388.294.187.603.379.887.563 5.105 3.299 6.57 10.105 3.287 15.22l-8.045 12.535c5.835 3.046 10.313 6.413 13.784 8.643.636.409 1.408.548 2.147.387s1.383-.609 1.791-1.245l7.378-11.496c3.283-5.115 1.818-11.92-3.287-15.219z" fill="#61a2f9"/></g><circle cx="120.677" cy="342.563" fill="#f9f6f6" r="19.59"/><g><path d="m281.704 356.684c-2.905 0-5.557-1.653-6.835-4.262l-73.852-150.702-73.559 144.298c-1.299 2.548-3.917 4.154-6.778 4.155-.001 0-.002 0-.003 0-2.86 0-5.478-1.603-6.778-4.15l-80.633-157.863c-1.912-3.744-.428-8.329 3.316-10.241 3.743-1.914 8.328-.428 10.241 3.316l73.848 144.58 73.7-144.575c1.309-2.569 3.948-4.189 6.841-4.154 2.883.022 5.506 1.672 6.775 4.262l73.719 150.429 73.729-150.429c1.279-2.61 3.932-4.262 6.835-4.262h.065c2.928.025 5.582 1.727 6.826 4.379l74.053 157.864c1.785 3.806.148 8.339-3.658 10.124-3.81 1.787-8.339.147-10.124-3.658l-67.314-143.495-73.58 150.123c-1.278 2.608-3.929 4.261-6.834 4.261z" fill="#5986cb"/></g><path d="m386.596 142.821c-1.87-6.225-6.276-11.465-12.087-14.377l-10.605-5.313c-3.758-1.882-8.332-.362-10.214 3.396-1.883 3.759-.363 8.332 3.395 10.215l10.605 5.313c2.111 1.057 3.647 2.885 4.327 5.146.679 2.261.404 4.632-.774 6.677l-13.373 23.208h-149.107v-13.494c0-4.204-3.408-7.611-7.611-7.611-4.204 0-7.611 3.408-7.611 7.611v13.494h-178.318v-18.734c0-4.204-3.408-7.611-7.611-7.611s-7.612 3.407-7.612 7.611v19.063c0 8.213 6.681 14.894 14.894 14.894h347.345c.008 0 .015.001.023.001 2.757 0 5.285-1.524 6.602-3.813l15.57-27.02c3.244-5.63 4.032-12.431 2.162-18.656z" fill="#5986cb"/><path d="m225.312 163.592h-54.127c-.988 0-1.788-.801-1.788-1.788v-14.464c0-5.457 4.777-9.682 10.193-9.015l30.013 3.695c9.992 1.23 17.498 9.717 17.498 19.784-.001.988-.801 1.788-1.789 1.788z" fill="#80b4fb"/><circle cx="281.74" cy="349.073" fill="#f9f6f6" r="24.198"/><path d="m281.74 324.875c-2.49 0-4.891.377-7.151 1.075 9.873 3.05 17.047 12.248 17.047 23.123s-7.174 20.073-17.047 23.123c2.26.698 4.662 1.075 7.151 1.075 13.364 0 24.198-10.834 24.198-24.198s-10.834-24.198-24.198-24.198z" fill="#dddaec"/><path d="m281.757 380.882c17.533-.009 31.793-14.275 31.793-31.809 0-17.498-14.202-31.738-31.684-31.807-.012 0-.023-.002-.035-.002l-161.063-1.902c-.03-.001-.059-.001-.088-.001h-.001s0 0-.001 0h-.001c-.001 0-.001 0-.002 0-14.997.002-27.198 12.203-27.198 27.201 0 14.858 11.976 26.965 26.781 27.192.102.007 161.025 11.129 161.483 11.129h.005.003c.002-.001.005-.001.008-.001zm-26.944-48.714c-3.088 4.901-4.883 10.696-4.883 16.905 0 5.269 1.295 10.239 3.573 14.619l-109.275-7.543c2.317-4.001 3.651-8.64 3.651-13.586 0-4.182-.951-8.145-2.644-11.688zm-146.114 10.394c0-6.604 5.373-11.978 11.978-11.978h.003c6.604.001 11.977 5.374 11.977 11.978 0 6.606-5.374 11.979-11.979 11.979-6.606 0-11.979-5.373-11.979-11.979zm173.194 23.09-2.435-.168c-8.067-1.118-14.304-8.041-14.304-16.411 0-9.146 7.44-16.587 16.586-16.587s16.587 7.441 16.587 16.587c0 9.094-7.359 16.495-16.434 16.579z" fill="#21386b"/></g></svg>