<svg id="Capa_1" enable-background="new 0 0 512 512" height="512" viewBox="0 0 512 512" width="512" xmlns="http://www.w3.org/2000/svg"><g><g><path d="m96.817 458.019h-30.9c-4.142 0-7.5-3.357-7.5-7.5s3.358-7.5 7.5-7.5h23.4v-22.721c0-4.143 3.358-7.5 7.5-7.5s7.5 3.357 7.5 7.5v30.221c0 4.142-3.358 7.5-7.5 7.5z" fill="#21386b"/></g><g><path d="m72.359 246.044h-44.859c-4.142 0-7.5-3.357-7.5-7.5s3.358-7.5 7.5-7.5h44.859c4.142 0 7.5 3.357 7.5 7.5s-3.358 7.5-7.5 7.5z" fill="#5986cb"/></g><path d="m433.855 80.781h-96.947v-42.81c0-5.103 4.137-9.239 9.239-9.239h78.469c5.103 0 9.239 4.137 9.239 9.239z" fill="#ffd064"/><path d="m424.616 28.732h-21.112c5.103 0 9.239 4.136 9.239 9.239v42.81h21.112v-42.81c0-5.103-4.137-9.239-9.239-9.239z" fill="#ffc250"/><circle cx="385.381" cy="176.918" fill="#f9f6f6" r="119.119"/><path d="m385.381 57.799c-4.241 0-8.429.226-12.556.658 59.885 6.274 106.563 56.914 106.563 118.461 0 61.546-46.678 112.187-106.563 118.461 4.127.432 8.315.658 12.556.658 65.788 0 119.119-53.331 119.119-119.119s-53.331-119.119-119.119-119.119z" fill="#dddaec"/><g><path d="m385.381 102.819c-4.143 0-7.5-3.357-7.5-7.5v-10.082c0-4.143 3.357-7.5 7.5-7.5s7.5 3.357 7.5 7.5v10.082c0 4.143-3.357 7.5-7.5 7.5z" fill="#21386b"/></g><g><path d="m477.061 184.418h-10.081c-4.143 0-7.5-3.357-7.5-7.5s3.357-7.5 7.5-7.5h10.081c4.143 0 7.5 3.357 7.5 7.5s-3.357 7.5-7.5 7.5z" fill="#21386b"/></g><g><path d="m311.283 176.918c0 4.143-3.357 7.5-7.5 7.5h-10.082c-4.143 0-7.5-3.357-7.5-7.5s3.357-7.5 7.5-7.5h10.082c4.142 0 7.5 3.357 7.5 7.5z" fill="#21386b"/></g><g><path d="m504.5 353.663c0-4.812-1.8-9.45-5.046-13.003l-13.364-14.624-96.911-26.203c-4.194 0-7.594-3.4-7.594-7.594l-40.803-70.464h-267.654c-5.948 0-10.769 4.822-10.769 10.769v190.974c0 3.744 3.035 6.78 6.779 6.78h421.996c7.381 0 13.365-5.984 13.365-13.365v-63.27z" fill="#80b4fb"/></g><path d="m504.5 416.933v-63.269c0-4.819-1.805-9.457-5.047-13.003l-13.364-14.624-29.238-7.906 20.589 22.53c3.246 3.552 5.046 8.191 5.046 13.003v63.269c0 7.381-5.984 13.365-13.365 13.365h22.014c7.381 0 13.365-5.984 13.365-13.365z" fill="#61a2f9"/><path d="m396.561 228.069c-3.664-4.01-8.846-6.294-14.278-6.294h-41.503v96.667c0 4.194 3.4 7.594 7.594 7.594h137.714z" fill="#e4f6ff"/><path d="m374.547 228.069 89.528 97.968h22.014l-89.528-97.968c-3.664-4.01-8.846-6.294-14.278-6.294h-22.014c5.432 0 10.614 2.284 14.278 6.294z" fill="#d3effb"/><g><path d="m504.5 402.898h-442.141c-4.142 0-7.5-3.357-7.5-7.5s3.358-7.5 7.5-7.5h442.141c4.143 0 7.5 3.357 7.5 7.5s-3.358 7.5-7.5 7.5z" fill="#5986cb"/></g><g><path d="m504.5 376.801h-13.282c-4.143 0-7.5-3.357-7.5-7.5s3.357-7.5 7.5-7.5h13.282c4.143 0 7.5 3.357 7.5 7.5s-3.358 7.5-7.5 7.5z" fill="#da4a54"/></g><circle cx="418.275" cy="433.143" fill="#26457d" r="50.125"/><path d="m418.275 383.018c-2.839 0-5.618.248-8.328.702 23.717 3.968 41.797 24.579 41.797 49.423 0 24.845-18.079 45.455-41.797 49.423 2.71.453 5.489.702 8.328.702 27.683 0 50.125-22.442 50.125-50.125s-22.442-50.125-50.125-50.125z" fill="#21386b"/><circle cx="418.275" cy="433.143" fill="#f9f6f6" r="16.656"/><path d="m418.275 416.486c-2.425 0-4.722.53-6.801 1.462 5.806 2.603 9.856 8.421 9.856 15.195s-4.051 12.592-9.856 15.195c2.078.932 4.376 1.462 6.801 1.462 9.199 0 16.656-7.457 16.656-16.657s-7.457-16.657-16.656-16.657z" fill="#dddaec"/><circle cx="168.58" cy="433.143" fill="#26457d" r="50.125"/><path d="m168.581 383.018c-2.839 0-5.618.248-8.328.702 23.717 3.968 41.797 24.579 41.797 49.423 0 24.845-18.079 45.455-41.797 49.423 2.71.453 5.489.702 8.328.702 27.683 0 50.125-22.442 50.125-50.125s-22.442-50.125-50.125-50.125z" fill="#21386b"/><circle cx="168.58" cy="433.143" fill="#f9f6f6" r="16.656"/><path d="m168.581 416.486c-2.425 0-4.722.53-6.801 1.462 5.806 2.603 9.856 8.421 9.856 15.195s-4.051 12.592-9.856 15.195c2.078.932 4.376 1.462 6.801 1.462 9.199 0 16.656-7.457 16.656-16.657s-7.457-16.657-16.656-16.657z" fill="#dddaec"/><g><path d="m293.434 437.798c-4.143 0-7.5-3.357-7.5-7.5v-208.524c0-4.143 3.357-7.5 7.5-7.5s7.5 3.357 7.5 7.5v208.523c0 4.143-3.357 7.501-7.5 7.501z" fill="#5986cb"/></g><g><g><path d="m182.921 343.17c-8.295 8.074-21.564 7.895-29.638-.401l-5.04-5.178c-.441-.453-.431-1.178.022-1.618l33.908-33.005c.221-.215.346-.511.346-.82s-.125-.605-.346-.82l-33.908-33.005c-.453-.441-.463-1.166-.022-1.618l5.04-5.178c8.074-8.295 21.343-8.474 29.638-.4l31.174 30.343c1.616 1.573 2.932 3.454 3.704 5.573 2.05 5.631.522 11.673-3.529 15.615z" fill="#f9f6f6"/></g></g><g><path d="m410.887 184.418h-25.506c-4.143 0-7.5-3.357-7.5-7.5v-54.206c0-4.143 3.357-7.5 7.5-7.5s7.5 3.357 7.5 7.5v46.706h18.006c4.143 0 7.5 3.357 7.5 7.5s-3.357 7.5-7.5 7.5z" fill="#26457d"/></g><g><path d="m264.762 105.319c0 4.143-3.357 7.5-7.5 7.5h-129.141c-4.142 0-7.5-3.357-7.5-7.5s3.358-7.5 7.5-7.5h129.141c4.143 0 7.5 3.358 7.5 7.5z" fill="#5986cb"/></g><g><path d="m238.369 144.066c0 4.143-3.358 7.5-7.5 7.5h-134.052c-4.142 0-7.5-3.357-7.5-7.5s3.358-7.5 7.5-7.5h134.052c4.142 0 7.5 3.358 7.5 7.5z" fill="#5986cb"/></g><g><path d="m247.713 178.621c0 4.143-3.358 7.5-7.5 7.5h-66.705c-4.142 0-7.5-3.357-7.5-7.5s3.358-7.5 7.5-7.5h66.705c4.142 0 7.5 3.358 7.5 7.5z" fill="#5986cb"/></g><g><path d="m151.066 178.621c0 4.143-3.358 7.5-7.5 7.5h-33.292c-4.142 0-7.5-3.357-7.5-7.5s3.358-7.5 7.5-7.5h33.292c4.142 0 7.5 3.358 7.5 7.5z" fill="#5986cb"/></g><g><path d="m34.93 289.405h-27.43c-4.142 0-7.5-3.357-7.5-7.5s3.358-7.5 7.5-7.5h27.43c4.142 0 7.5 3.357 7.5 7.5s-3.358 7.5-7.5 7.5z" fill="#5986cb"/></g><g><path d="m102.359 333.536h-94.859c-4.142 0-7.5-3.357-7.5-7.5s3.358-7.5 7.5-7.5h94.859c4.142 0 7.5 3.357 7.5 7.5s-3.358 7.5-7.5 7.5z" fill="#5986cb"/></g><g><path d="m27.5 370.47h-20c-4.142 0-7.5-3.357-7.5-7.5s3.358-7.5 7.5-7.5h20c4.142 0 7.5 3.357 7.5 7.5s-3.358 7.5-7.5 7.5z" fill="#5986cb"/></g><g><path d="m115.733 306.959h-26.748c-4.142 0-7.5-3.357-7.5-7.5s3.358-7.5 7.5-7.5h26.748c4.142 0 7.5 3.357 7.5 7.5s-3.358 7.5-7.5 7.5z" fill="#5986cb"/></g><g><path d="m102.359 370.47h-47.429c-4.142 0-7.5-3.357-7.5-7.5s3.358-7.5 7.5-7.5h47.43c4.142 0 7.5 3.357 7.5 7.5s-3.359 7.5-7.501 7.5z" fill="#5986cb"/></g></g></svg>