<svg id="Capa_1" enable-background="new 0 0 512 512" height="512" viewBox="0 0 512 512" width="512" xmlns="http://www.w3.org/2000/svg"><g><path d="m300.733 375.657c-2.693 0-7.277-10.302-13.056-10.302-18.882 0-50.522 0-70.654 0-7.188 0-12.909 10.302-16.058 10.302 2.689 22.108-14.683 44.217-31.512 66.324.954 0 6.922 20.604 16.053 20.604h122.715c13.551 0 22.815-20.604 24.025-20.604-16.83-22.107-34.202-44.216-31.513-66.324z" fill="#26457d"/><path d="m200.965 375.657c.717 5.898-.004 11.795-1.75 17.693h103.269c-1.747-5.897-2.467-11.795-1.75-17.693-14.638 0-85.1 0-99.769 0z" fill="#21386b"/><path d="m494.772 375.657h-477.544c-9.515 0-17.228-7.713-17.228-17.228v-307.179c0-9.515 7.713-17.228 17.228-17.228h477.545c9.515 0 17.228 7.713 17.228 17.228v307.179c-.001 9.515-7.714 17.228-17.229 17.228z" fill="#26457d"/><path d="m494.772 34.023h-17.963c9.515 0 17.228 7.713 17.228 17.228v307.179c0 9.515-7.713 17.228-17.228 17.228h17.963c9.514 0 17.228-7.713 17.228-17.228v-307.18c0-9.514-7.713-17.227-17.228-17.227z" fill="#21386b"/><path d="m263.271 342.692-30.905-31.498v-208.396l30.905-35.809h215.763v275.703z" fill="#e4f6ff"/><path d="m460.236 66.989h18.798v275.703h-18.798z" fill="#d3effb"/><path d="m32.965 66.989h230.306v275.703h-230.306z" fill="#f9f6f6"/><path d="m244.049 66.989h19.223v275.703h-19.223z" fill="#dddaec"/><path d="m385.736 477.977h-259.472c-2.092 0-3.789-1.696-3.789-3.789v-10.298c0-12.1 9.809-21.908 21.908-21.908h223.233c12.1 0 21.908 9.809 21.908 21.908v10.299c.001 2.092-1.696 3.788-3.788 3.788z" fill="#f9f6f6"/><path d="m367.616 441.981h-23.537c12.1 0 21.908 9.809 21.908 21.908v14.088h19.749c2.092 0 3.789-1.696 3.789-3.789v-10.298c0-12.1-9.809-21.909-21.909-21.909z" fill="#dddaec"/><path d="m209.31 245.267h-122.384c-4.26 0-7.713-3.453-7.713-7.713v-106.634c0-4.26 3.453-7.713 7.713-7.713h122.384c4.26 0 7.713 3.453 7.713 7.713v106.634c0 4.259-3.453 7.713-7.713 7.713z" fill="#ffd064"/><path d="m209.31 123.207h-15.89c4.26 0 7.713 3.453 7.713 7.713v106.634c0 4.26-3.453 7.713-7.713 7.713h15.891c4.26 0 7.713-3.453 7.713-7.713v-106.634c-.001-4.26-3.454-7.713-7.714-7.713z" fill="#ffc250"/><path d="m159.36 162.315h-22.484c-1.77 0-3.204-1.435-3.204-3.204v-35.904h28.892v35.904c0 1.77-1.434 3.204-3.204 3.204z" fill="#26457d"/><path d="m149.774 123.207v35.904c0 1.77-1.435 3.204-3.204 3.204h12.791c1.77 0 3.204-1.435 3.204-3.204v-35.904z" fill="#21386b"/><g><path d="m179.051 230.5c-2.013 0-4.023-.782-5.537-2.337-2.977-3.058-2.91-7.95.147-10.926l7.224-7.032-7.224-7.032c-3.057-2.976-3.124-7.867-.147-10.926 2.976-3.056 7.867-3.125 10.926-.147l12.912 12.568c1.494 1.454 2.337 3.451 2.337 5.536s-.843 4.082-2.337 5.536l-12.912 12.568c-1.503 1.464-3.447 2.192-5.389 2.192z" fill="#f9f6f6"/></g><g><path d="m133.054 223.248h-28.434c-4.268 0-7.726-3.459-7.726-7.726s3.459-7.726 7.726-7.726h28.434c4.268 0 7.726 3.459 7.726 7.726s-3.458 7.726-7.726 7.726z" fill="#26457d"/></g><g><path d="m329.106 110.525h-27.657c-4.268 0-7.726-3.459-7.726-7.726 0-4.268 3.459-7.726 7.726-7.726h27.657c4.268 0 7.726 3.459 7.726 7.726.001 4.267-3.458 7.726-7.726 7.726z" fill="#26457d"/></g><g><path d="m427.849 151.536h-109c-4.268 0-7.726-3.459-7.726-7.726s3.459-7.726 7.726-7.726h109c4.268 0 7.726 3.459 7.726 7.726s-3.459 7.726-7.726 7.726z" fill="#26457d"/></g><g><path d="m427.849 184.22h-109c-4.268 0-7.726-3.459-7.726-7.726 0-4.268 3.459-7.726 7.726-7.726h109c4.268 0 7.726 3.459 7.726 7.726 0 4.268-3.459 7.726-7.726 7.726z" fill="#26457d"/></g><g><path d="m427.849 216.904h-109c-4.268 0-7.726-3.459-7.726-7.726 0-4.268 3.459-7.726 7.726-7.726h109c4.268 0 7.726 3.459 7.726 7.726 0 4.268-3.459 7.726-7.726 7.726z" fill="#26457d"/></g><path d="m437.69 311.194h-128.682c-3.889 0-7.042-3.153-7.042-7.042v-40.47c0-3.889 3.153-7.042 7.042-7.042h128.682c3.889 0 7.042 3.153 7.042 7.042v40.47c-.001 3.889-3.153 7.042-7.042 7.042z" fill="#95d6a4"/><path d="m437.69 256.64h-20.512c3.889 0 7.041 3.153 7.041 7.042v40.471c0 3.889-3.153 7.041-7.041 7.041h20.512c3.889 0 7.042-3.153 7.042-7.041v-40.471c-.001-3.889-3.153-7.042-7.042-7.042z" fill="#78c2a4"/><g><path d="m195.504 297.749h-94.771c-4.268 0-7.726-3.459-7.726-7.726s3.459-7.726 7.726-7.726h94.771c4.268 0 7.726 3.459 7.726 7.726s-3.459 7.726-7.726 7.726z" fill="#26457d"/></g></g></svg>