<svg id="Capa_1" enable-background="new 0 0 512 512" height="512" viewBox="0 0 512 512" width="512" xmlns="http://www.w3.org/2000/svg"><g><path d="m420.421 365.434-19.327-3.02-33.779 33.779 3.02 19.327 81.206 81.206c13.831 13.831 36.255 13.831 50.086 0 13.831-13.831 13.831-36.255 0-50.086z" fill="#80b4fb"/><path d="m395.149 368.359 92.557 92.201c11.415 11.415 13.399 28.679 5.973 42.139 2.849-1.572 5.532-3.556 7.948-5.973 13.831-13.831 13.831-36.255 0-50.087l-81.206-81.206z" fill="#61a2f9"/><g><path d="m475.534 478.36c-1.978 0-3.955-.755-5.464-2.264l-4.908-4.909c-3.017-3.018-3.017-7.909.001-10.927 3.016-3.017 7.908-3.016 10.927.001l4.908 4.909c3.017 3.018 3.017 7.909-.001 10.927-1.508 1.509-3.486 2.263-5.463 2.263z" fill="#5986cb"/></g><path d="m379.604 370.147c0 7.929-6.428 14.357-14.357 14.357h-350.89c-7.929 0-14.357-6.428-14.357-14.357v-352.091c0-7.266 5.89-13.156 13.156-13.156h353.293c7.266 0 13.156 5.89 13.156 13.156v352.091z" fill="#ffd064"/><path d="m366.448 4.9h-27.202c7.266 0 13.156 5.89 13.156 13.156v366.448h12.846c7.929 0 14.357-6.428 14.357-14.357v-352.091c-.001-7.266-5.891-13.156-13.157-13.156z" fill="#ffc250"/><path d="m213.185 67.341h-46.766c-4.328 0-7.837-3.509-7.837-7.837v-54.604h62.441v54.603c-.001 4.329-3.509 7.838-7.838 7.838z" fill="#26457d"/><path d="m198.258 4.9v54.603c0 4.328-3.509 7.837-7.837 7.837h22.765c4.328 0 7.837-3.509 7.837-7.837v-54.603z" fill="#21386b"/><g><g><path d="m41.078 305.267c-4.267 0-7.726-3.459-7.726-7.726v-47.056c0-4.268 3.459-7.726 7.726-7.726s7.726 3.459 7.726 7.726v47.056c0 4.268-3.459 7.726-7.726 7.726z" fill="#26457d"/></g><g><path d="m80.275 305.267c-4.267 0-7.726-3.459-7.726-7.726v-47.056c0-4.268 3.459-7.726 7.726-7.726s7.726 3.459 7.726 7.726v47.056c0 4.268-3.459 7.726-7.726 7.726z" fill="#26457d"/></g><g><path d="m111.943 305.267c-4.267 0-7.726-3.459-7.726-7.726v-47.056c0-4.268 3.459-7.726 7.726-7.726s7.726 3.459 7.726 7.726v47.056c.001 4.268-3.459 7.726-7.726 7.726z" fill="#26457d"/></g></g><path d="m428.337 357.518-65.919 65.919c-3.773 3.773-9.891 3.773-13.665 0l-33.356-33.356 79.584-79.584 33.356 33.356c3.774 3.773 3.774 9.891 0 13.665z" fill="#5986cb"/><path d="m378.94 326.539 33.356 33.356c3.773 3.773 3.773 9.891 0 13.665l16.042-16.042c3.773-3.773 3.773-9.891 0-13.665l-33.356-33.356z" fill="#4278c3"/><circle cx="278.059" cy="273.158" fill="#26457d" r="130.09"/><path d="m186.071 181.171c-3.257 3.257-6.301 6.645-9.14 10.144 51.092-41.451 126.285-38.406 173.831 9.14s50.591 122.74 9.14 173.831c3.5-2.839 6.888-5.884 10.144-9.14 50.803-50.803 50.804-133.172 0-183.976s-133.172-50.803-183.975.001z" fill="#21386b"/><circle cx="278.059" cy="273.158" fill="#e4f6ff" r="84.845"/><path d="m218.064 213.164c-2.973 2.973-5.667 6.117-8.107 9.391 33.222-24.749 80.436-22.055 110.598 8.107 30.161 30.161 32.856 77.376 8.107 110.598 3.274-2.439 6.418-5.134 9.391-8.107 33.134-33.134 33.134-86.855 0-119.988s-86.855-33.135-119.989-.001z" fill="#d3effb"/><g><g><path d="m238.488 305.267c-4.267 0-7.726-3.459-7.726-7.726v-47.056c0-4.268 3.459-7.726 7.726-7.726s7.726 3.459 7.726 7.726v47.056c0 4.268-3.459 7.726-7.726 7.726z" fill="#26457d"/></g><g><path d="m272.293 305.267c-4.268 0-7.726-3.459-7.726-7.726v-47.056c0-4.268 3.459-7.726 7.726-7.726s7.726 3.459 7.726 7.726v47.056c.001 4.268-3.458 7.726-7.726 7.726z" fill="#26457d"/></g><g><path d="m322.779 305.267c-4.268 0-7.726-3.459-7.726-7.726v-47.056c0-4.268 3.459-7.726 7.726-7.726s7.726 3.459 7.726 7.726v47.056c.001 4.268-3.458 7.726-7.726 7.726z" fill="#26457d"/></g></g><g><path d="m80.254 137.284c-8.077 7.861-20.997 7.687-28.859-.39l-4.757-4.887c-.512-.526-.501-1.369.025-1.881l32.703-31.832c.257-.25.402-.594.402-.953s-.145-.703-.402-.953l-32.702-31.832c-.526-.512-.538-1.355-.025-1.881l4.757-4.887c7.861-8.077 20.782-8.251 28.859-.39l30.354 29.545c1.574 1.532 2.855 3.363 3.606 5.427 1.996 5.483.508 11.366-3.436 15.204z" fill="#f9f6f6"/></g></g></svg>