<svg id="Capa_1" enable-background="new 0 0 512 512" height="512" viewBox="0 0 512 512" width="512" xmlns="http://www.w3.org/2000/svg"><g><path d="m211.366 72.471h-33.08v-16.54c0-9.135 7.405-16.54 16.54-16.54 9.135 0 16.54 7.405 16.54 16.54z" fill="#dddaec"/><g><path d="m360.081 245.214h-330.511v-29.509c0-81.52 66.085-147.605 147.605-147.605h35.3c81.52 0 147.605 66.085 147.605 147.605v29.509z" fill="#f9f6f6"/><path d="m212.476 68.099h-24.076c81.52 0 147.605 66.085 147.605 147.605v29.509h24.075v-29.509c.001-81.52-66.084-147.605-147.604-147.605z" fill="#dddaec"/></g><path d="m368.013 279.138h-346.375c-11.95 0-21.638-9.688-21.638-21.638v-20.41c0-1.203.975-2.178 2.178-2.178h385.294c1.203 0 2.178.975 2.178 2.178v20.41c.001 11.95-9.687 21.638-21.637 21.638z" fill="#26457d"/><path d="m366.931 234.912v22.588c0 11.95-9.688 21.638-21.638 21.638h22.72c11.95 0 21.638-9.688 21.638-21.638v-20.41c0-1.203-.975-2.178-2.178-2.178z" fill="#21386b"/><path d="m347.262 375.207-45.362-12.711c-6.475-1.814-10.591-8.158-9.61-14.81l7.367-49.948c1.446-9.802-6.151-18.6-16.058-18.6-5.55 0-10.716 2.836-13.695 7.519l-29.369 46.163c-5.954 9.359-18.138 12.509-27.883 7.209l-108.796-59.176c-2.069-1.125-4.386-1.715-6.741-1.715-12.513 0-18.833 15.081-10.058 24.002l37.832 38.461c47.925 48.723 110.219 80.783 177.722 91.465l44.653 7.066 10.302-11.322v-45.649z" fill="#f1d0a5"/><path d="m325.107 369.872v66.755l22.155 3.506v-64.926l-22.112-6.196c-.022.285-.043.57-.043.861z" fill="#f1b986"/><path d="m398.461 453.453h-40.66c-5.82 0-10.538-4.718-10.538-10.538v-73.043c0-5.82 4.718-10.538 10.538-10.538h40.66z" fill="#f9f6f6"/><path d="m376.306 359.334h22.155v94.119h-22.155z" fill="#dddaec"/><path d="m509.103 472.609h-106.58c-2.243 0-4.062-1.819-4.062-4.062v-124.308c0-2.243 1.819-4.062 4.062-4.062h106.581c1.6 0 2.896 1.297 2.896 2.896v126.639c0 1.601-1.297 2.897-2.897 2.897z" fill="#80b4fb"/><path d="m489.845 340.177v132.432h19.259c1.6 0 2.896-1.297 2.896-2.896v-126.639c0-1.6-1.297-2.896-2.896-2.896h-19.259z" fill="#61a2f9"/><g><path d="m433.075 423.319c-4.268 0-7.726-3.459-7.726-7.726v-18.399c0-4.268 3.459-7.726 7.726-7.726s7.726 3.459 7.726 7.726v18.399c0 4.267-3.458 7.726-7.726 7.726z" fill="#f9f6f6"/></g></g></svg>