<svg id="Capa_1" enable-background="new 0 0 512 512" height="512" viewBox="0 0 512 512" width="512" xmlns="http://www.w3.org/2000/svg"><g><path d="m482.589 448.32h-453.177v-23.154c0-7.085 5.743-12.828 12.828-12.828h427.52c7.085 0 12.828 5.743 12.828 12.828v23.154z" fill="#26457d"/><path d="m469.76 412.338h-25.355c7.085 0 12.828 5.743 12.828 12.828v23.154h25.355v-23.154c.001-7.085-5.743-12.828-12.828-12.828z" fill="#21386b"/><path d="m434.079 412.338h-356.158v-343.815c0-6.817 5.526-12.343 12.343-12.343h331.472c6.817 0 12.343 5.526 12.343 12.343z" fill="#ffd064"/><path d="m421.736 56.18h-25.522c6.817 0 12.343 5.526 12.343 12.343v343.815h25.522v-343.815c.001-6.817-5.526-12.343-12.343-12.343z" fill="#ffc250"/><g><path d="m348.953 360.872c-8.798 8.564-22.873 8.374-31.437-.425l-5.394-5.542c-.441-.453-.431-1.178.022-1.618l36.066-35.106c.221-.215.346-.511.346-.82s-.125-.605-.346-.82l-36.066-35.106c-.453-.441-.463-1.166-.022-1.618l5.394-5.542c8.564-8.798 22.638-8.989 31.437-.425l33.065 32.184c1.714 1.669 3.11 3.663 3.928 5.911 2.174 5.973.553 12.381-3.743 16.562z" fill="#f9f6f6"/></g><g><path d="m504.5 455.82h-497c-4.143 0-7.5-3.357-7.5-7.5s3.357-7.5 7.5-7.5h497c4.143 0 7.5 3.357 7.5 7.5s-3.357 7.5-7.5 7.5z" fill="#95d6a4"/></g><path d="m277.939 114.764h-43.878c-4.061 0-7.353-3.292-7.353-7.353v-51.231h58.584v51.231c0 4.061-3.292 7.353-7.353 7.353z" fill="#26457d"/><path d="m263.934 56.18v51.231c0 4.061-3.292 7.353-7.353 7.353h21.359c4.061 0 7.353-3.292 7.353-7.353v-51.231z" fill="#21386b"/><g><g><path d="m146.854 346.662c-4.143 0-7.5-3.357-7.5-7.5v-54.898c0-4.143 3.357-7.5 7.5-7.5s7.5 3.357 7.5 7.5v54.898c0 4.143-3.358 7.5-7.5 7.5z" fill="#26457d"/></g><g><path d="m170.011 305.795c-1.904 0-3.809-.72-5.271-2.164l-17.887-17.665-17.887 17.665c-2.947 2.909-7.695 2.882-10.606-.065s-2.881-7.696.065-10.606l23.157-22.87c2.922-2.885 7.619-2.885 10.541 0l23.157 22.87c2.946 2.91 2.977 7.659.065 10.606-1.465 1.485-3.4 2.229-5.334 2.229z" fill="#26457d"/></g></g><g><g><path d="m221.055 346.662c-4.143 0-7.5-3.357-7.5-7.5v-54.898c0-4.143 3.357-7.5 7.5-7.5s7.5 3.357 7.5 7.5v54.898c0 4.143-3.358 7.5-7.5 7.5z" fill="#26457d"/></g><g><path d="m244.212 305.795c-1.904 0-3.809-.72-5.271-2.164l-17.887-17.665-17.887 17.665c-2.946 2.909-7.695 2.882-10.606-.065s-2.881-7.696.065-10.606l23.157-22.87c2.922-2.885 7.619-2.885 10.541 0l23.157 22.87c2.946 2.91 2.977 7.659.065 10.606-1.465 1.485-3.4 2.229-5.334 2.229z" fill="#26457d"/></g></g><g><path d="m221.055 379.999h-74.201c-4.143 0-7.5-3.357-7.5-7.5s3.357-7.5 7.5-7.5h74.201c4.143 0 7.5 3.357 7.5 7.5s-3.358 7.5-7.5 7.5z" fill="#26457d"/></g></g></svg>