<svg id="Capa_1" enable-background="new 0 0 511.999 511.999" height="512" viewBox="0 0 511.999 511.999" width="512" xmlns="http://www.w3.org/2000/svg"><g><g><path d="m78.476 417.959h-32.281c-4.204 0-7.611-3.407-7.611-7.611s3.407-7.612 7.611-7.612h24.67v-23.662c0-4.204 3.407-7.611 7.611-7.611s7.611 3.407 7.611 7.611v31.274c.001 4.204-3.407 7.611-7.611 7.611z" fill="#21386b"/></g><g><path d="m53.389 279.099h-13.956c-4.204 0-7.611-3.407-7.611-7.611s3.407-7.612 7.611-7.612h13.956c4.204 0 7.611 3.407 7.611 7.612s-3.407 7.611-7.611 7.611z" fill="#21386b"/></g><path d="m504.388 309.162c0-5.028-1.881-9.873-5.272-13.585l-13.962-15.278-102.554-36.147c-4.382 0-7.934-3.552-7.934-7.934l-41.318-64.843h-279.62c-6.214 0-11.251 5.037-11.251 11.251v199.514c0 3.912 3.171 7.083 7.083 7.083h437.289l.658-13.09c7.711 0 13.963-6.251 13.963-13.963z" fill="#80b4fb"/><path d="m503.085 381.121c.155-.333.295-.674.424-1.022.149-.403.28-.815.392-1.235.308-1.152.487-2.356.487-3.605v-66.098c0-3.142-.735-6.214-2.113-8.981-.828-1.661-1.887-3.212-3.159-4.604l-13.962-15.278-33.926-11.958 24.89 27.236c3.391 3.712 5.272 8.557 5.272 13.585v66.098c0 7.712-6.251 13.963-13.963 13.963h22.999c5.614 0 10.442-3.321 12.659-8.101z" fill="#61a2f9"/><path d="m391.623 177.951c-3.828-4.189-9.241-6.575-14.916-6.575h-43.358v100.99c0 4.382 3.552 7.934 7.934 7.934h143.872z" fill="#e4f6ff"/><path d="m368.625 177.951 93.531 102.348h22.998l-93.531-102.348c-3.828-4.189-9.241-6.575-14.916-6.575h-22.998c5.674-.001 11.088 2.385 14.916 6.575z" fill="#d3effb"/><path d="m418.282 249.335c-2.973-2.971-7.792-2.971-10.765 0-2.972 2.973-2.972 7.792 0 10.765l20.199 20.199h21.53z" fill="#21386b"/><g><path d="m405.978 269.251c-1.947 0-3.896-.743-5.383-2.229-2.972-2.973-2.972-7.792 0-10.765l13.843-13.843c2.973-2.971 7.792-2.971 10.765 0 2.972 2.973 2.972 7.792 0 10.765l-13.843 13.843c-1.486 1.485-3.435 2.229-5.382 2.229z" fill="#26457d"/></g><g><path d="m212.674 296.243c-8.674 8.443-22.55 8.255-30.993-.419l-5.191-5.333c-.505-.519-.494-1.348.025-1.853l35.292-34.352c.253-.247.396-.585.396-.939s-.143-.692-.396-.939l-35.292-34.353c-.519-.505-.53-1.334-.025-1.853l5.191-5.333c8.443-8.674 22.319-8.862 30.993-.419l32.598 31.729c1.69 1.645 3.066 3.612 3.873 5.828 2.144 5.888.545 12.206-3.69 16.328z" fill="#f9f6f6"/></g><g><path d="m504.388 360.375h-461.911c-4.204 0-7.611-3.407-7.611-7.611s3.407-7.612 7.611-7.612h461.911c4.204 0 7.611 3.407 7.611 7.612s-3.407 7.611-7.611 7.611z" fill="#5986cb"/></g><g><path d="m504.388 333.109h-13.876c-4.204 0-7.611-3.407-7.611-7.612s3.407-7.611 7.611-7.611h13.876c4.204 0 7.611 3.407 7.611 7.611s-3.407 7.612-7.611 7.612z" fill="#da4a54"/></g><circle cx="414.308" cy="392.195" fill="#26457d" r="52.366"/><path d="m414.308 339.828c-2.966 0-5.87.259-8.701.733 24.778 4.146 43.666 25.678 43.666 51.633 0 25.956-18.888 47.488-43.666 51.633 2.831.474 5.735.733 8.701.733 28.921 0 52.366-23.445 52.366-52.366s-23.445-52.366-52.366-52.366z" fill="#21386b"/><circle cx="414.308" cy="392.195" fill="#f9f6f6" r="17.401"/><path d="m414.308 374.793c-2.533 0-4.933.554-7.105 1.527 6.065 2.719 10.297 8.797 10.297 15.874s-4.232 13.155-10.297 15.874c2.171.973 4.571 1.527 7.105 1.527 9.61 0 17.401-7.791 17.401-17.401s-7.791-17.401-17.401-17.401z" fill="#dddaec"/><circle cx="153.448" cy="392.195" fill="#26457d" r="52.366"/><path d="m153.448 339.828c-2.966 0-5.87.259-8.701.733 24.778 4.146 43.666 25.678 43.666 51.633 0 25.956-18.888 47.488-43.666 51.633 2.831.474 5.735.733 8.701.733 28.921 0 52.366-23.445 52.366-52.366.001-28.921-23.444-52.366-52.366-52.366z" fill="#21386b"/><circle cx="153.448" cy="392.195" fill="#f9f6f6" r="17.401"/><path d="m153.448 374.793c-2.533 0-4.933.554-7.105 1.527 6.065 2.719 10.297 8.797 10.297 15.874s-4.232 13.155-10.297 15.874c2.171.973 4.571 1.527 7.105 1.527 9.61 0 17.401-7.791 17.401-17.401.001-9.61-7.79-17.401-17.401-17.401z" fill="#dddaec"/><path d="m360.665 215.274c-.866-6.323-6.268-11.036-12.651-11.036h-14.666v68.126c0 4.382 3.552 7.934 7.934 7.934h28.289z" fill="#26457d"/><g><path d="m283.885 396.834c-4.204 0-7.611-3.407-7.611-7.611v-217.847c0-4.204 3.407-7.611 7.611-7.611s7.612 3.407 7.612 7.611v217.847c-.001 4.204-3.408 7.611-7.612 7.611z" fill="#5986cb"/></g><circle cx="83.328" cy="150.767" fill="#ffd064" r="83.328"/><path d="m83.329 67.439c-3.908 0-7.747.29-11.511.81 40.57 5.61 71.817 40.405 71.817 82.518s-31.247 76.909-71.817 82.518c3.765.52 7.603.81 11.511.81 46.021 0 83.329-37.308 83.329-83.329s-37.308-83.327-83.329-83.327z" fill="#ffc250"/><path d="m93.492 143.167c-.995-.352-2.006-.716-3.02-1.088v-21.05c4.196.636 7.074 1.966 7.217 2.033 3.758 1.836 8.297.303 10.164-3.444 1.872-3.764.34-8.333-3.423-10.206-.364-.18-5.962-2.905-13.957-3.71v-2.319c0-4.204-3.407-7.611-7.611-7.611s-7.611 3.407-7.611 7.611v3.575c-9.215 2.603-15.243 9.995-16.886 18.713-1.547 8.21 1.137 16.168 7.002 20.769 2.6 2.039 5.744 3.911 9.884 5.84v27.055c-2.493-.499-4.58-1.523-7.704-3.565-3.518-2.301-8.237-1.315-10.536 2.203-2.301 3.517-1.315 8.235 2.203 10.536 6.082 3.978 10.571 5.594 16.037 6.184v3.459c0 4.204 3.407 7.611 7.611 7.611s7.611-3.407 7.611-7.611v-4.206c11.232-3.135 18.427-12.85 20.039-22.436 2.118-12.606-4.722-23.997-17.02-28.343zm-20.168-14.677c.144-.766.615-2.62 1.926-4.25v10.585c-2.084-1.536-2.362-4.024-1.926-6.335zm22.174 40.495c-.507 3.017-2.21 6.168-5.026 8.282v-18.83c5.564 3.007 5.411 8.258 5.026 10.548z" fill="#f9f6f6"/></g></svg>