<svg id="Capa_1" enable-background="new 0 0 512 512" height="512" viewBox="0 0 512 512" width="512" xmlns="http://www.w3.org/2000/svg"><g><g><path d="m42.827 412.051h-35.216c-4.204 0-7.611-3.407-7.611-7.611s3.408-7.612 7.611-7.612h27.604v-25.884c0-4.204 3.408-7.611 7.611-7.611s7.611 3.407 7.611 7.611v33.496c.002 4.203-3.406 7.611-7.61 7.611z" fill="#26457d"/></g><g><path d="m330.64 381.092h-302.994c-11.065 0-20.035-8.97-20.035-20.035v-36.67c0-2.275 1.844-4.119 4.119-4.119h318.91z" fill="#5986cb"/><path d="m290.911 320.268h39.729v60.824h-39.729z" fill="#4278c3"/></g><g><path d="m418.606 239.294-34.121-55.09h-64.445c-5.356 0-9.698 4.342-9.698 9.699v187.189h189.93l.192-4.066c4.116 0 7.453-3.337 7.453-7.453l4.083-75.194-83.517-45.208c-5.455 0-9.877-4.422-9.877-9.877z" fill="#80b4fb"/></g><path d="m492.053 283.582c.063 1.483.022 15.134.041 90.057 0 4.116-3.337 7.453-7.453 7.453h19.907c4.127 0 7.453-3.372 7.453-7.453v-79.26z" fill="#61a2f9"/><circle cx="413.635" cy="401.285" fill="#26457d" r="57.182"/><path d="m413.635 344.103c-3.238 0-6.409.283-9.501.8 27.056 4.527 47.681 28.039 47.681 56.382s-20.625 51.855-47.681 56.382c3.091.517 6.262.8 9.501.8 31.581 0 57.182-25.601 57.182-57.182s-25.601-57.182-57.182-57.182z" fill="#21386b"/><circle cx="413.635" cy="401.285" fill="#f9f6f6" r="19.002"/><path d="m413.635 382.284c-2.766 0-5.387.605-7.758 1.667 6.623 2.969 11.244 9.606 11.244 17.334s-4.621 14.365-11.244 17.334c2.371 1.063 4.992 1.667 7.758 1.667 10.494 0 19.001-8.507 19.001-19.002s-8.507-19-19.001-19z" fill="#dddaec"/><circle cx="121.953" cy="401.285" fill="#26457d" r="57.182"/><path d="m121.953 344.103c-3.238 0-6.409.283-9.501.8 27.056 4.527 47.681 28.039 47.681 56.382s-20.625 51.855-47.681 56.382c3.091.517 6.262.8 9.501.8 31.581 0 57.182-25.601 57.182-57.182s-25.601-57.182-57.182-57.182z" fill="#21386b"/><circle cx="121.953" cy="401.285" fill="#f9f6f6" r="19.002"/><path d="m121.953 382.284c-2.766 0-5.387.605-7.758 1.667 6.623 2.969 11.244 9.606 11.244 17.334s-4.621 14.365-11.244 17.334c2.371 1.063 4.992 1.667 7.758 1.667 10.494 0 19.001-8.507 19.001-19.002s-8.507-19-19.001-19z" fill="#dddaec"/><path d="m310.496 407.462h-66.863c-7.259 0-13.143-5.884-13.143-13.143v-13.226h93.149v13.226c0 7.258-5.884 13.143-13.143 13.143z" fill="#26457d"/><path d="m306.38 381.092v13.226c0 7.259-5.884 13.143-13.143 13.143h17.259c7.259 0 13.143-5.884 13.143-13.143v-13.226z" fill="#21386b"/><path d="m512 350.68h-14.82c-6.508 0-11.784-5.276-11.784-11.784 0-6.508 5.276-11.784 11.784-11.784h14.82z" fill="#da4a54"/><g><path d="m464.02 189.254c-1.7-3.113-4.964-5.05-8.512-5.05h-71.022v100.297c0 5.455 4.422 9.877 9.877 9.877h117.637v-9.503c0-5.098-1.281-10.115-3.724-14.589z" fill="#e4f6ff"/></g><path d="m512 284.876c0-5.098-1.281-10.115-3.724-14.589l-44.256-81.033c-1.7-3.113-4.964-5.05-8.512-5.05h-19.906c3.547 0 6.811 1.937 8.512 5.05l44.256 81.032c2.444 4.474 3.724 9.491 3.724 14.589v9.503h19.906z" fill="#d3effb"/><path d="m416.368 245.19c-.655-14.398-12.519-25.735-26.932-25.735h-4.95v65.047c0 5.455 4.422 9.877 9.877 9.877h24.244z" fill="#26457d"/><path d="m469.197 255.303c-2.973-2.971-7.792-2.971-10.765 0-2.972 2.973-2.972 7.792 0 10.765l28.311 28.311h21.53z" fill="#21386b"/><g><path d="m454.973 277.138c-1.947 0-3.896-.743-5.383-2.229-2.972-2.973-2.972-7.792 0-10.765l17.683-17.683c2.973-2.971 7.792-2.971 10.765 0 2.972 2.973 2.972 7.792 0 10.765l-17.683 17.683c-1.486 1.486-3.435 2.229-5.382 2.229z" fill="#26457d"/></g><g><path d="m345.893 267.416c-4.204 0-7.612-3.407-7.612-7.612v-26.445c0-4.204 3.407-7.611 7.612-7.611s7.611 3.407 7.611 7.611v26.445c.001 4.204-3.406 7.612-7.611 7.612z" fill="#f9f6f6"/></g><path d="m56.896 61.144h173.593v259.124h-173.593z" fill="#26457d"/><path d="m208.75 61.144h21.74v259.124h-21.74z" fill="#21386b"/><g><path d="m243.069 68.755h-198.752c-4.204 0-7.611-3.407-7.611-7.611s3.408-7.611 7.611-7.611h198.752c4.204 0 7.611 3.407 7.611 7.611s-3.407 7.611-7.611 7.611z" fill="#21386b"/></g><g><path d="m243.069 156.815h-198.752c-4.204 0-7.611-3.407-7.611-7.611s3.408-7.611 7.611-7.611h198.752c4.204 0 7.611 3.407 7.611 7.611s-3.407 7.611-7.611 7.611z" fill="#21386b"/></g><g><path d="m243.069 247.918h-198.752c-4.204 0-7.611-3.407-7.611-7.611s3.408-7.611 7.611-7.611h198.752c4.204 0 7.611 3.407 7.611 7.611s-3.407 7.611-7.611 7.611z" fill="#21386b"/></g><g><path d="m143.693 225.478c-12.988 0-23.555-10.567-23.555-23.555 0-8.82 7.342-37.869 23.555-37.869s23.555 29.05 23.555 37.869c0 12.988-10.567 23.555-23.555 23.555zm0-45.879c-3.445 2.899-8.332 15.688-8.332 22.324 0 4.595 3.738 8.332 8.332 8.332s8.332-3.737 8.332-8.332c0-6.636-4.888-19.425-8.332-22.324z" fill="#21386b"/></g></g></svg>