<svg id="Capa_1" enable-background="new 0 0 512 512" height="512" viewBox="0 0 512 512" width="512" xmlns="http://www.w3.org/2000/svg"><g><path d="m347.379 414.649-45.33-12.702c-6.47-1.813-10.584-8.153-9.603-14.8l7.361-49.912c1.445-9.795-6.146-18.587-16.047-18.587-5.546 0-10.708 2.834-13.685 7.514l-29.348 46.13c-5.95 9.352-18.126 12.5-27.863 7.204l-108.719-59.134c-2.067-1.124-4.383-1.713-6.736-1.713-12.504 0-18.82 15.07-10.051 23.985l37.805 38.434c47.891 48.688 110.141 80.725 177.596 91.4l44.622 7.061v-64.88z" fill="#f1d0a5"/><path d="m325.24 409.318v66.707l22.139 3.504v-64.88l-22.096-6.191c-.023.284-.043.57-.043.86z" fill="#f1b986"/><path d="m398.541 492.84h-40.631c-5.816 0-10.531-4.715-10.531-10.531v-72.991c0-5.816 4.715-10.531 10.531-10.531h40.632v94.053z" fill="#f9f6f6"/><path d="m376.402 398.787h22.139v94.053h-22.139z" fill="#dddaec"/><path d="m506.171 511.983h-103.571c-2.242 0-4.059-1.817-4.059-4.059v-124.22c0-2.242 1.817-4.059 4.059-4.059h103.57c3.219 0 5.829 2.61 5.829 5.829v120.68c.001 3.219-2.609 5.829-5.828 5.829z" fill="#80b4fb"/><path d="m489.86 379.645v132.338h16.31c3.219 0 5.829-2.61 5.829-5.829v-120.68c0-3.219-2.61-5.829-5.829-5.829z" fill="#61a2f9"/><g><path d="m433.132 462.728c-4.265 0-7.721-3.456-7.721-7.721v-18.386c0-4.265 3.456-7.721 7.721-7.721s7.721 3.456 7.721 7.721v18.386c-.001 4.265-3.457 7.721-7.721 7.721z" fill="#f9f6f6"/></g><path d="m340.037 306.668c0 6.617-5.364 11.981-11.981 11.981h-316.075c-6.617-.001-11.981-5.365-11.981-11.981v-294.67c0-6.617 5.364-11.981 11.981-11.981h316.075c6.617 0 11.981 5.364 11.981 11.981z" fill="#ffd064"/><path d="m303.885.017c6.508 0 11.784 5.276 11.784 11.784v306.847h12.386c6.617 0 11.981-5.364 11.981-11.981v-294.669c0-6.617-5.364-11.981-11.981-11.981h-24.17z" fill="#ffc250"/><g><path d="m258.763 269.512c-8.4 8.176-21.838 7.995-30.014-.406l-5.25-5.393c-.366-.376-.358-.977.018-1.343l34.641-33.719c.184-.179.287-.424.287-.681s-.104-.502-.287-.681l-34.641-33.719c-.376-.366-.384-.967-.018-1.343l5.25-5.393c8.176-8.4 21.614-8.582 30.014-.406l31.568 30.727c1.637 1.593 2.969 3.498 3.751 5.644 2.076 5.702.528 11.821-3.573 15.812z" fill="#f9f6f6"/></g><path d="m190.964 55.949h-41.892c-3.877 0-7.02-3.143-7.02-7.02v-48.912h55.932v48.912c0 3.877-3.143 7.02-7.02 7.02z" fill="#26457d"/><path d="m177.593.017v48.912c0 3.877-3.143 7.02-7.02 7.02h20.392c3.877 0 7.02-3.143 7.02-7.02v-48.912z" fill="#21386b"/><g><g><path d="m65.812 256.505c-4.265 0-7.721-3.456-7.721-7.721v-52.413c0-4.265 3.456-7.721 7.721-7.721s7.721 3.456 7.721 7.721v52.413c-.001 4.265-3.457 7.721-7.721 7.721z" fill="#26457d"/></g><g><path d="m87.921 217.488c-1.96 0-3.921-.742-5.426-2.228l-16.683-16.476-16.684 16.476c-3.036 2.998-7.924 2.966-10.919-.067-2.997-3.034-2.966-7.923.067-10.919l22.109-21.835c3.008-2.97 7.844-2.97 10.851 0l22.109 21.835c3.033 2.996 3.064 7.885.067 10.919-1.508 1.529-3.5 2.295-5.491 2.295z" fill="#26457d"/></g></g><g><g><path d="m136.655 256.505c-4.265 0-7.721-3.456-7.721-7.721v-52.413c0-4.265 3.456-7.721 7.721-7.721s7.721 3.456 7.721 7.721v52.413c0 4.265-3.457 7.721-7.721 7.721z" fill="#26457d"/></g><g><path d="m114.546 217.488c-1.993 0-3.983-.766-5.493-2.295-2.997-3.034-2.966-7.923.067-10.919l22.109-21.835c3.01-2.97 7.846-2.97 10.851 0l22.108 21.835c3.034 2.996 3.064 7.885.067 10.919-2.997 3.033-7.886 3.064-10.919.067l-16.682-16.476-16.683 16.476c-1.505 1.486-3.466 2.228-5.425 2.228z" fill="#26457d"/></g></g></g></svg>