<svg id="Capa_1" enable-background="new 0 0 511.999 511.999" height="512" viewBox="0 0 511.999 511.999" width="512" xmlns="http://www.w3.org/2000/svg"><g><path d="m29.041 101.932h455.971v265.248h-455.971z" fill="#f1cb86"/><path d="m29.041 101.932h455.971v42.993h-455.971z" fill="#e7a561"/><path d="m29.041 327.271h455.971v32.993h-455.971z" fill="#e7a561"/><path d="m-80.501 214.558h219.084v43.081h-219.084z" fill="#b16e3d" transform="matrix(0 1 -1 0 265.139 207.058)"/><path d="m7.5 126.556h43.081v18.369h-43.081z" fill="#934d36"/><path d="m7.5 327.271h43.081v18.369h-43.081z" fill="#934d36"/><path d="m146.458 214.558h219.084v43.081h-219.084z" fill="#b16e3d" transform="matrix(0 1 -1 0 492.098 -19.901)"/><path d="m234.459 126.556h43.081v18.369h-43.081z" fill="#934d36"/><path d="m234.459 327.271h43.081v18.369h-43.081z" fill="#934d36"/><path d="m373.416 214.558h219.084v43.081h-219.084z" fill="#b16e3d" transform="matrix(0 1 -1 0 719.056 -246.86)"/><path d="m461.418 126.556h43.081v18.369h-43.081z" fill="#934d36"/><path d="m461.418 327.271h43.081v18.369h-43.081z" fill="#934d36"/><path d="m34.33 403.721h57.276v32.303h-57.276z" fill="#26457d"/><path d="m75.551 403.721h16.055v32.303h-16.055z" fill="#21386b"/><path d="m228.388 403.721h57.276v32.303h-57.276z" fill="#26457d"/><path d="m269.609 403.721h16.055v32.303h-16.055z" fill="#21386b"/><path d="m422.446 403.721h57.276v32.303h-57.276z" fill="#26457d"/><path d="m463.667 403.721h16.055v32.303h-16.055z" fill="#21386b"/><g><path d="m504.499 443.524h-496.999c-4.142 0-7.5-3.357-7.5-7.5s3.358-7.5 7.5-7.5h496.999c4.143 0 7.5 3.357 7.5 7.5s-3.357 7.5-7.5 7.5z" fill="#95d6a4"/></g><path d="m504.499 126.556h-497v-52.455c0-3.107 2.519-5.626 5.626-5.626h485.748c3.107 0 5.626 2.519 5.626 5.626z" fill="#b16e3d"/><g><g><path d="m41.196 105.224c-4.142 0-7.5-3.357-7.5-7.5v-.416c0-4.143 3.358-7.5 7.5-7.5s7.5 3.357 7.5 7.5v.416c0 4.142-3.358 7.5-7.5 7.5z" fill="#934d36"/></g><g><path d="m257.026 105.224c-4.142 0-7.5-3.357-7.5-7.5v-.416c0-4.143 3.358-7.5 7.5-7.5s7.5 3.357 7.5 7.5v.416c-.001 4.142-3.358 7.5-7.5 7.5z" fill="#934d36"/></g><g><path d="m472.856 105.224c-4.143 0-7.5-3.357-7.5-7.5v-.416c0-4.143 3.357-7.5 7.5-7.5s7.5 3.357 7.5 7.5v.416c0 4.142-3.357 7.5-7.5 7.5z" fill="#934d36"/></g></g><path d="m498.874 403.721h-485.749c-3.107 0-5.626-2.519-5.626-5.626v-52.455h497v52.455c0 3.107-2.518 5.626-5.625 5.626z" fill="#b16e3d"/><g><g><path d="m41.196 382.388c-4.142 0-7.5-3.357-7.5-7.5v-.416c0-4.143 3.358-7.5 7.5-7.5s7.5 3.357 7.5 7.5v.416c0 4.142-3.358 7.5-7.5 7.5z" fill="#934d36"/></g><g><path d="m257.026 382.388c-4.142 0-7.5-3.357-7.5-7.5v-.416c0-4.143 3.358-7.5 7.5-7.5s7.5 3.357 7.5 7.5v.416c-.001 4.142-3.358 7.5-7.5 7.5z" fill="#934d36"/></g><g><path d="m472.856 382.388c-4.143 0-7.5-3.357-7.5-7.5v-.416c0-4.143 3.357-7.5 7.5-7.5s7.5 3.357 7.5 7.5v.416c0 4.142-3.357 7.5-7.5 7.5z" fill="#934d36"/></g></g></g></svg>