<svg id="Capa_1" enable-background="new 0 0 512 512" height="512" viewBox="0 0 512 512" width="512" xmlns="http://www.w3.org/2000/svg"><g><path d="m416.714 169.991 77.666 75.477c20.279 19.708 23.436 51.149 7.48 74.495l-36.709 53.709c-4.404 6.444-6.761 14.068-6.761 21.874v40.909h-58.15v-175.209-78.162z" fill="#f1d0a5"/><g><path d="m452.087 295.708c-2.028 0-4.052-.793-5.569-2.37l-67.546-70.222c-2.958-3.075-2.863-7.967.212-10.925 3.075-2.959 7.967-2.863 10.925.212l67.546 70.222c2.958 3.075 2.863 7.967-.212 10.925-1.499 1.442-3.429 2.158-5.356 2.158z" fill="#f1b986"/></g><path d="m95.286 169.991-77.666 75.477c-20.279 19.708-23.436 51.149-7.48 74.495l36.709 53.709c4.404 6.444 6.761 14.068 6.761 21.874v40.909h58.15v-175.209-78.162z" fill="#f1d0a5"/><g><path d="m59.378 296.403c-1.928 0-3.856-.716-5.355-2.158-3.075-2.958-3.17-7.849-.212-10.925l67.546-70.222c2.959-3.074 7.848-3.17 10.925-.212 3.075 2.958 3.17 7.849.212 10.925l-67.546 70.222c-1.518 1.576-3.542 2.37-5.57 2.37z" fill="#f1b986"/></g><path d="m494.38 245.468-77.666-75.477-13.695 10.885 66.466 64.592c20.279 19.708 23.436 51.149 7.48 74.495l-36.709 53.709c-4.404 6.444-6.761 14.068-6.761 21.874v40.909h24.896v-40.909c0-7.806 2.357-15.429 6.761-21.874l36.709-53.709c15.955-23.346 12.798-54.788-7.481-74.495z" fill="#f1b986"/><path d="m419.651 295.166c0 6.369-5.163 11.532-11.532 11.532h-304.238c-6.369 0-11.532-5.163-11.532-11.532v-283.634c0-6.369 5.163-11.532 11.532-11.532h304.238c6.369 0 11.532 5.163 11.532 11.532z" fill="#ffd064"/><path d="m384.853 0c6.265 0 11.343 5.079 11.343 11.343v295.355h11.923c6.369 0 11.532-5.163 11.532-11.532v-283.634c0-6.369-5.163-11.532-11.532-11.532z" fill="#ffc250"/><path d="m276.161 53.838h-40.323c-3.732 0-6.757-3.025-6.757-6.757v-47.081h53.838v47.08c0 3.732-3.026 6.758-6.758 6.758z" fill="#26457d"/><path d="m263.291 0v47.08c0 3.732-3.025 6.757-6.757 6.757h19.628c3.732 0 6.757-3.025 6.757-6.757v-47.08z" fill="#21386b"/><g><path d="m341.421 156.384c-8.085 7.87-21.02 7.695-28.89-.39l-5.095-5.235c-.329-.338-.322-.878.016-1.207l33.432-32.541c.165-.161.258-.381.258-.612 0-.23-.093-.451-.258-.612l-33.432-32.542c-.338-.329-.345-.869-.016-1.207l5.095-5.235c7.87-8.086 20.804-8.26 28.89-.39l30.386 29.577c1.576 1.534 2.858 3.367 3.61 5.432 1.998 5.489.508 11.378-3.44 15.22z" fill="#f9f6f6"/></g><g><path d="m188.044 130.297h-45.831c-4.268 0-7.726-3.459-7.726-7.726s3.459-7.726 7.726-7.726h45.831c4.268 0 7.726 3.459 7.726 7.726s-3.458 7.726-7.726 7.726z" fill="#26457d"/></g><g><path d="m229.251 161.076h-87.038c-4.268 0-7.726-3.459-7.726-7.726 0-4.268 3.459-7.726 7.726-7.726h87.038c4.268 0 7.726 3.459 7.726 7.726.001 4.267-3.458 7.726-7.726 7.726z" fill="#26457d"/></g><path d="m379.183 436.455-.927-44.69c-.148-6.36-1.291-12.658-3.389-18.665-5.892-16.872-2.555-35.595 8.802-49.393 2.391-2.905 2.765-6.975.943-10.266l-36.22-70.015c-3.718-7.188-2.305-15.961 3.484-21.617 7.309-7.142 19.038-6.961 26.123.405l67.546 70.222-17.513 70.164-9.115 73.854h-39.734z" fill="#f1d0a5"/><path d="m132.817 436.455.927-44.69c.148-6.36 1.291-12.658 3.389-18.665 5.892-16.872 2.555-35.595-8.802-49.393-2.391-2.905-2.765-6.975-.943-10.266l36.22-70.015c3.718-7.188 2.305-15.961-3.484-21.617-7.309-7.142-19.038-6.961-26.123.405l-67.546 70.222 17.513 70.164 9.115 73.854h39.734z" fill="#f1d0a5"/><path d="m163.608 243.426c3.718-7.188 2.305-15.961-3.484-21.617-6.395-6.249-16.174-6.891-23.265-2.021.871.596 1.711 1.258 2.491 2.021 5.788 5.656 7.202 14.429 3.484 21.617l-36.22 70.015c-1.822 3.291-1.448 7.362.943 10.267 11.357 13.798 14.694 32.521 8.802 49.393-2.097 6.007-3.241 12.304-3.389 18.664l-.927 44.69h20.774l.927-44.69c.148-6.36 1.291-12.658 3.389-18.664 5.892-16.872 2.555-35.595-8.802-49.393-2.391-2.905-2.765-6.975-.943-10.267z" fill="#f1b986"/><path d="m477.698 512h-113.727c-5.029 0-9.106-4.077-9.106-9.106v-57.333c0-5.029 4.077-9.106 9.106-9.106h113.727c5.029 0 9.106 4.077 9.106 9.106v57.333c0 5.029-4.077 9.106-9.106 9.106z" fill="#80b4fb"/><path d="m477.482 436.455h-20.577c5.149 0 9.322 3.982 9.322 8.895v57.755c0 4.913-4.174 8.895-9.322 8.895h20.577c5.149 0 9.322-3.982 9.322-8.895v-57.755c0-4.913-4.174-8.895-9.322-8.895z" fill="#61a2f9"/><path d="m148.029 512h-113.727c-5.029 0-9.106-4.077-9.106-9.106v-57.333c0-5.029 4.077-9.106 9.106-9.106h113.727c5.029 0 9.106 4.077 9.106 9.106v57.333c0 5.029-4.077 9.106-9.106 9.106z" fill="#80b4fb"/><path d="m147.813 436.455h-20.577c5.149 0 9.322 3.982 9.322 8.895v57.755c0 4.913-4.174 8.895-9.322 8.895h20.577c5.149 0 9.322-3.982 9.322-8.895v-57.755c0-4.913-4.174-8.895-9.322-8.895z" fill="#61a2f9"/></g></svg>