<svg id="Capa_1" enable-background="new 0 0 512 512" height="512" viewBox="0 0 512 512" width="512" xmlns="http://www.w3.org/2000/svg"><g><g><path d="m38.63 302.745c-1.977 0-3.955-.755-5.464-2.263l-30.278-30.278c-3.017-3.018-3.017-7.909 0-10.928 3.018-3.016 7.909-3.016 10.928 0l30.279 30.279c3.017 3.018 3.017 7.909 0 10.928-1.51 1.508-3.488 2.262-5.465 2.262z" fill="#26457d"/></g><path d="m508.367 473.109h-504.734c-2.007 0-3.633-1.627-3.633-3.633v-79.108c0-2.007 1.627-3.634 3.633-3.634h504.733c2.007 0 3.633 1.627 3.633 3.634v79.108c.001 2.007-1.626 3.633-3.632 3.633z" fill="#26457d"/><path d="m489.057 386.735v86.375h19.31c2.007 0 3.633-1.627 3.633-3.633v-79.108c0-2.007-1.627-3.633-3.633-3.633h-19.31z" fill="#21386b"/><path d="m29.463 346.486h453.073v40.248h-453.073z" fill="#f9f6f6"/><path d="m462.638 346.487h19.899v40.248h-19.899z" fill="#dddaec"/><path d="m508.366 346.486h-504.733c-2.007 0-3.633-1.627-3.633-3.633v-21.844c0-2.007 1.627-3.633 3.633-3.633h504.733c2.007 0 3.634 1.627 3.634 3.633v21.844c0 2.007-1.627 3.633-3.634 3.633z" fill="#26457d"/><path d="m489.057 317.375v29.112h19.31c2.007 0 3.633-1.627 3.633-3.633v-21.845c0-2.007-1.627-3.633-3.633-3.633h-19.31z" fill="#21386b"/><path d="m128.202 211.826h-105.657c-5.564 0-10.075-4.511-10.075-10.075v-79.515c0-5.564 4.511-10.075 10.075-10.075h105.657c5.564 0 10.075 4.511 10.075 10.075v79.515c0 5.565-4.511 10.075-10.075 10.075z" fill="#e4f6ff"/><path d="m128.202 112.162h-18.136c5.564 0 10.075 4.511 10.075 10.075v79.515c0 5.564-4.511 10.075-10.075 10.075h18.136c5.564 0 10.075-4.511 10.075-10.075v-79.515c0-5.565-4.511-10.075-10.075-10.075z" fill="#d3effb"/><path d="m62.95 317.375h-48.638c0-22.5 18.24-40.739 40.739-40.739h7.899z" fill="#21386b"/><path d="m62.95 211.826h24.848v105.549h-24.848z" fill="#f9f6f6"/><path d="m62.95 211.826h24.848v18.529h-24.848z" fill="#dddaec"/><path d="m328.141 317.375h-148.41c-4.859 0-8.799-3.939-8.799-8.799v-121.645c0-4.859 3.939-8.799 8.799-8.799h139.612c4.859 0 8.799 3.939 8.799 8.799v130.444z" fill="#ffd064"/><path d="m328.141 178.133h-26.926c4.859 0 8.799 3.939 8.799 8.799v121.645c0 4.859-3.939 8.799-8.799 8.799h26.926z" fill="#ffc250"/><path d="m262.361 222.747h-25.649c-2.019 0-3.655-1.637-3.655-3.655v-40.959h32.96v40.959c0 2.018-1.637 3.655-3.656 3.655z" fill="#26457d"/><path d="m253.776 178.133v40.959c0 2.019-1.637 3.655-3.655 3.655h12.241c2.019 0 3.655-1.637 3.655-3.655v-40.959z" fill="#21386b"/><g><path d="m284.824 299.442c-2.013 0-4.023-.781-5.537-2.337-2.977-3.057-2.91-7.95.147-10.926l9.041-8.802-9.041-8.801c-3.057-2.976-3.124-7.867-.147-10.926 2.976-3.057 7.867-3.125 10.926-.147l14.729 14.337c1.494 1.454 2.337 3.451 2.337 5.536s-.843 4.082-2.337 5.536l-14.729 14.338c-1.503 1.463-3.448 2.192-5.389 2.192z" fill="#f9f6f6"/></g><g><path d="m232.353 291.17h-32.437c-4.268 0-7.726-3.459-7.726-7.726s3.459-7.726 7.726-7.726h32.437c4.268 0 7.726 3.459 7.726 7.726s-3.459 7.726-7.726 7.726z" fill="#26457d"/></g><path d="m485.35 308.576c0 4.859-3.939 8.799-8.799 8.799h-148.41v-139.242h148.41c4.859 0 8.799 3.939 8.799 8.799z" fill="#ffd064"/><path d="m476.552 178.133h-18.128c4.859 0 8.799 3.939 8.799 8.799v121.645c0 4.859-3.939 8.799-8.799 8.799h18.128c4.859 0 8.799-3.939 8.799-8.799v-121.646c-.001-4.859-3.94-8.798-8.799-8.798z" fill="#ffc250"/><path d="m419.57 222.747h-25.649c-2.019 0-3.655-1.637-3.655-3.655v-40.959h32.96v40.959c0 2.018-1.637 3.655-3.656 3.655z" fill="#26457d"/><path d="m410.985 178.133v40.959c0 2.019-1.637 3.655-3.655 3.655h12.241c2.019 0 3.655-1.637 3.655-3.655v-40.959z" fill="#21386b"/><g><path d="m442.033 299.442c-2.013 0-4.023-.781-5.537-2.337-2.977-3.057-2.91-7.95.147-10.926l9.041-8.802-9.041-8.801c-3.057-2.976-3.124-7.867-.147-10.926 2.976-3.057 7.867-3.125 10.926-.147l14.729 14.337c1.494 1.454 2.337 3.451 2.337 5.536s-.843 4.082-2.337 5.536l-14.729 14.338c-1.503 1.463-3.448 2.192-5.389 2.192z" fill="#f9f6f6"/></g><g><path d="m389.561 291.17h-32.436c-4.268 0-7.726-3.459-7.726-7.726s3.459-7.726 7.726-7.726h32.436c4.268 0 7.726 3.459 7.726 7.726s-3.458 7.726-7.726 7.726z" fill="#26457d"/></g><path d="m406.746 169.334c0 4.859-3.939 8.799-8.799 8.799h-139.612c-4.859 0-8.799-3.939-8.799-8.799v-121.645c0-4.859 3.939-8.799 8.799-8.799h139.612c4.859 0 8.799 3.939 8.799 8.799z" fill="#f1cb86"/><path d="m397.947 38.89h-18.127c4.859 0 8.799 3.939 8.799 8.799v121.645c0 4.859-3.939 8.799-8.799 8.799h18.128c4.859 0 8.799-3.939 8.799-8.799v-121.645c-.001-4.859-3.941-8.799-8.8-8.799z" fill="#e7a561"/><path d="m340.966 83.505h-25.649c-2.019 0-3.655-1.637-3.655-3.655v-40.96h32.96v40.959c-.001 2.019-1.638 3.656-3.656 3.656z" fill="#26457d"/><path d="m332.38 38.89v40.959c0 2.019-1.637 3.655-3.655 3.655h12.241c2.019 0 3.655-1.637 3.655-3.655v-40.959z" fill="#21386b"/><g><path d="m363.428 160.199c-2.013 0-4.023-.781-5.537-2.337-2.977-3.057-2.91-7.95.147-10.926l9.041-8.802-9.041-8.801c-3.057-2.976-3.124-7.867-.147-10.926 2.976-3.057 7.868-3.125 10.926-.147l14.729 14.337c1.494 1.454 2.337 3.451 2.337 5.536s-.843 4.081-2.337 5.536l-14.729 14.338c-1.502 1.464-3.447 2.192-5.389 2.192z" fill="#f9f6f6"/></g><g><path d="m310.956 151.928h-32.436c-4.268 0-7.726-3.459-7.726-7.726s3.459-7.726 7.726-7.726h32.436c4.268 0 7.726 3.459 7.726 7.726s-3.458 7.726-7.726 7.726z" fill="#26457d"/></g><g><g><path d="m79.593 154.748h-33.412c-4.268 0-7.726-3.459-7.726-7.726s3.459-7.726 7.726-7.726h33.412c4.268 0 7.726 3.459 7.726 7.726s-3.458 7.726-7.726 7.726z" fill="#21386b"/></g><g><path d="m100.197 184.693h-54.016c-4.268 0-7.726-3.459-7.726-7.726s3.459-7.726 7.726-7.726h54.016c4.268 0 7.726 3.459 7.726 7.726s-3.459 7.726-7.726 7.726z" fill="#21386b"/></g></g></g></svg>