<svg id="Capa_1" enable-background="new 0 0 511.976 511.976" height="512" viewBox="0 0 511.976 511.976" width="512" xmlns="http://www.w3.org/2000/svg"><g><path d="m268.155 296.473v-131.112c0-6.721-5.449-12.17-12.17-12.17s-12.17 5.449-12.17 12.17v131.112z" fill="#f9f6f6"/><path d="m255.756 153.193c-6.699.123-11.941 5.871-11.941 12.571v51.333c2.49 1.111 4.978 2.338 7.464 3.683 2.979 1.612 6.528 1.701 9.575.221 2.434-1.183 4.868-2.285 7.301-3.307v-52.334c0-6.797-5.573-12.292-12.399-12.167z" fill="#dddaec"/><path d="m255.986 24.305c-101.323 0-183.892 85.801-187.553 169.749-.106 2.421 2.553 3.988 4.628 2.737 26.888-16.211 54.368-15.18 82.441 3.05 33.903-18.694 67.425-19.937 100.485 0 33.555-17.761 67.06-20.871 100.485 0 25.381-17.063 52.566-20.365 82.47-2.916 2.081 1.214 4.707-.344 4.604-2.752-3.59-83.986-86.189-169.868-187.56-169.868z" fill="#80b4fb"/><path d="m410.368 186.222c9.258 1.506 18.774 4.988 28.584 10.711 2.076 1.211 4.694-.359 4.591-2.76-3.588-83.986-86.188-169.868-187.558-169.868-5.491 0-10.923.267-16.294.757 90.662 8.271 162.894 84.343 170.677 161.16z" fill="#61a2f9"/><g><path d="m356.063 207.453c-4.204 0-7.612-3.407-7.612-7.612 0-40.863-10.344-83.244-28.381-116.274-17.924-32.825-41.282-51.651-64.085-51.651s-46.161 18.826-64.085 51.651c-18.037 33.031-28.381 75.411-28.381 116.274 0 4.204-3.408 7.612-7.612 7.612s-7.612-3.407-7.612-7.612c0-43.332 11.023-88.372 30.243-123.57 20.979-38.42 48.484-59.579 77.447-59.579s56.468 21.159 77.447 59.579c19.22 35.198 30.243 80.237 30.243 123.57 0 4.204-3.407 7.612-7.612 7.612z" fill="#5986cb"/></g><g><path d="m255.985 207.453c-4.204 0-7.612-3.407-7.612-7.612v-192.229c0-4.204 3.408-7.612 7.612-7.612s7.612 3.407 7.612 7.612v192.229c0 4.204-3.407 7.612-7.612 7.612z" fill="#5986cb"/></g><path d="m248.387 511.976h-120.57c-4.197 0-7.599-3.402-7.599-7.599v-105.053c0-4.197 3.402-7.599 7.599-7.599h120.57c4.197 0 7.599 3.402 7.599 7.599v105.054c0 4.196-3.402 7.598-7.599 7.598z" fill="#ffd064"/><path d="m248.387 391.725h-15.655c4.197 0 7.599 3.402 7.599 7.599v105.054c0 4.197-3.402 7.599-7.599 7.599h15.655c4.197 0 7.599-3.402 7.599-7.599v-105.054c0-4.197-3.402-7.599-7.599-7.599z" fill="#ffc250"/><path d="m199.177 430.254h-22.151c-1.743 0-3.157-1.413-3.157-3.157v-35.372h28.464v35.372c.001 1.744-1.412 3.157-3.156 3.157z" fill="#26457d"/><path d="m191.763 391.725v35.372c0 1.743-1.413 3.157-3.157 3.157h10.571c1.744 0 3.157-1.413 3.157-3.157v-35.372z" fill="#21386b"/><g><path d="m218.576 497.428c-1.983 0-3.964-.77-5.455-2.302-2.933-3.013-2.867-7.832.145-10.764l7.117-6.928-7.117-6.928c-3.012-2.932-3.077-7.751-.145-10.764 2.932-3.012 7.752-3.078 10.764-.145l12.721 12.382c1.472 1.432 2.302 3.4 2.302 5.454s-.831 4.022-2.302 5.454l-12.721 12.382c-1.48 1.441-3.396 2.159-5.309 2.159z" fill="#f9f6f6"/></g><g><path d="m173.262 490.284h-28.012c-4.204 0-7.612-3.408-7.612-7.612s3.408-7.612 7.612-7.612h28.012c4.204 0 7.612 3.408 7.612 7.612s-3.408 7.612-7.612 7.612z" fill="#26457d"/></g><path d="m384.154 511.976h-120.57c-4.197 0-7.599-3.402-7.599-7.599v-105.053c0-4.197 3.402-7.599 7.599-7.599h120.57c4.197 0 7.599 3.402 7.599 7.599v105.054c0 4.196-3.402 7.598-7.599 7.598z" fill="#ffd064"/><path d="m384.154 391.725h-15.655c4.197 0 7.599 3.402 7.599 7.599v105.054c0 4.197-3.402 7.599-7.599 7.599h15.655c4.197 0 7.599-3.402 7.599-7.599v-105.054c0-4.197-3.402-7.599-7.599-7.599z" fill="#ffc250"/><path d="m334.945 430.254h-22.151c-1.743 0-3.157-1.413-3.157-3.157v-35.372h28.464v35.372c0 1.744-1.413 3.157-3.156 3.157z" fill="#26457d"/><path d="m327.53 391.725v35.372c0 1.743-1.413 3.157-3.157 3.157h10.571c1.743 0 3.157-1.413 3.157-3.157v-35.372z" fill="#21386b"/><g><path d="m354.343 497.428c-1.983 0-3.964-.77-5.455-2.302-2.933-3.013-2.867-7.832.145-10.764l7.117-6.928-7.117-6.928c-3.012-2.932-3.077-7.751-.145-10.764 2.932-3.012 7.751-3.078 10.764-.145l12.721 12.382c1.472 1.432 2.302 3.4 2.302 5.454s-.831 4.022-2.302 5.454l-12.721 12.382c-1.481 1.441-3.396 2.159-5.309 2.159z" fill="#f9f6f6"/></g><g><path d="m309.028 490.284h-28.012c-4.204 0-7.612-3.408-7.612-7.612s3.407-7.612 7.612-7.612h28.012c4.204 0 7.612 3.408 7.612 7.612s-3.407 7.612-7.612 7.612z" fill="#26457d"/></g><path d="m323.869 384.127c0 4.197-3.402 7.599-7.599 7.599h-120.57c-4.197 0-7.599-3.402-7.599-7.599v-105.054c0-4.197 3.402-7.599 7.599-7.599h120.57c4.197 0 7.599 3.402 7.599 7.599z" fill="#f1cb86"/><path d="m316.271 271.474h-15.655c4.197 0 7.599 3.402 7.599 7.599v105.054c0 4.197-3.402 7.599-7.599 7.599h15.655c4.197 0 7.599-3.402 7.599-7.599v-105.054c-.001-4.197-3.403-7.599-7.599-7.599z" fill="#e7a561"/><path d="m267.061 310.003h-22.151c-1.743 0-3.157-1.413-3.157-3.157v-35.372h28.464v35.372c.001 1.744-1.413 3.157-3.156 3.157z" fill="#26457d"/><path d="m259.647 271.474v35.372c0 1.743-1.413 3.157-3.157 3.157h10.571c1.744 0 3.157-1.413 3.157-3.157v-35.372z" fill="#21386b"/><g><path d="m286.459 377.177c-1.983 0-3.964-.77-5.455-2.302-2.933-3.013-2.867-7.832.145-10.764l7.117-6.928-7.117-6.928c-3.012-2.932-3.077-7.751-.145-10.764 2.932-3.012 7.752-3.078 10.764-.145l12.721 12.382c1.472 1.432 2.302 3.4 2.302 5.454 0 2.055-.831 4.022-2.302 5.454l-12.721 12.382c-1.48 1.441-3.396 2.159-5.309 2.159z" fill="#f9f6f6"/></g><g><path d="m241.145 370.033h-28.012c-4.204 0-7.612-3.408-7.612-7.612s3.407-7.612 7.612-7.612h28.012c4.204 0 7.612 3.408 7.612 7.612s-3.408 7.612-7.612 7.612z" fill="#26457d"/></g></g></svg>