<svg id="Capa_1" enable-background="new 0 0 512 512" height="512" viewBox="0 0 512 512" width="512" xmlns="http://www.w3.org/2000/svg"><g><path d="m148.41 512h-139.611c-4.86 0-8.799-3.939-8.799-8.799v-121.645c0-4.859 3.939-8.799 8.799-8.799h139.611c4.859 0 8.799 3.939 8.799 8.799v121.645c0 4.86-3.939 8.799-8.799 8.799z" fill="#ffd064"/><path d="m148.41 372.758h-18.127c4.859 0 8.799 3.939 8.799 8.799v121.645c0 4.859-3.939 8.799-8.799 8.799h18.127c4.859 0 8.799-3.939 8.799-8.799v-121.646c0-4.859-3.939-8.798-8.799-8.798z" fill="#ffc250"/><path d="m91.429 417.372h-25.649c-2.019 0-3.655-1.637-3.655-3.655v-40.959h32.96v40.959c-.001 2.018-1.637 3.655-3.656 3.655z" fill="#26457d"/><path d="m82.844 372.758v40.959c0 2.019-1.637 3.655-3.655 3.655h12.241c2.019 0 3.655-1.637 3.655-3.655v-40.959z" fill="#21386b"/><g><path d="m113.891 494.066c-2.013 0-4.023-.782-5.538-2.337-2.976-3.058-2.909-7.95.148-10.927l9.042-8.8-9.042-8.802c-3.057-2.976-3.124-7.867-.147-10.926 2.976-3.057 7.867-3.125 10.926-.147l14.73 14.338c1.494 1.454 2.337 3.451 2.337 5.536s-.843 4.082-2.337 5.537l-14.73 14.337c-1.503 1.463-3.447 2.191-5.389 2.191z" fill="#f9f6f6"/></g><g><path d="m61.42 485.795h-32.436c-4.268 0-7.726-3.459-7.726-7.726s3.459-7.726 7.726-7.726h32.436c4.268 0 7.726 3.459 7.726 7.726s-3.458 7.726-7.726 7.726z" fill="#26457d"/></g><circle cx="447.938" cy="64.062" fill="#dd636e" r="64.062"/><path d="m447.938 0c-4.712 0-9.299.523-13.721 1.488 28.784 6.284 50.341 31.904 50.341 62.573s-21.557 56.289-50.341 62.573c4.422.965 9.009 1.488 13.721 1.488 35.38 0 64.062-28.681 64.062-64.062s-28.681-64.06-64.062-64.06z" fill="#da4a54"/><g><path d="m447.938 99.229c-19.391 0-35.167-15.777-35.167-35.168s15.776-35.167 35.167-35.167 35.168 15.776 35.168 35.167-15.776 35.168-35.168 35.168zm0-54.882c-10.87 0-19.714 8.844-19.714 19.714 0 10.871 8.844 19.715 19.714 19.715 10.871 0 19.715-8.844 19.715-19.715.001-10.87-8.844-19.714-19.715-19.714z" fill="#f9f6f6"/></g><path d="m362.216 216.525h-157.252c-30.417 0-55.074-24.658-55.074-55.074v-.375c0-30.417 24.658-55.074 55.074-55.074h129.229c1.485 0 2.689-1.204 2.689-2.689v-73.947c0-1.485-1.204-2.689-2.689-2.689h-129.229c-74.226 0-134.398 60.172-134.398 134.398v.375c0 74.226 60.172 134.398 134.398 134.398h156.416c30.223 0 55.444 24 55.905 54.22.469 30.758-24.415 55.93-55.069 55.93h-142.026c-1.485 0-2.689 1.204-2.689 2.689v73.947c0 1.485 1.204 2.689 2.689 2.689h140.549c74.163 0 135.448-59.451 135.875-133.613.427-74.467-60.029-135.185-134.398-135.185z" fill="#26457d"/><g fill="#21386b"><path d="m180.464 106.001c-30.417 0-55.074 24.658-55.074 55.074v.375c0 30.417 24.658 55.074 55.074 55.074h24.5c-30.417 0-55.074-24.658-55.074-55.074v-.375c0-30.417 24.658-55.074 55.074-55.074h129.229c1.485 0 2.689-1.204 2.689-2.689v-73.946c0-1.485-1.204-2.689-2.689-2.689h-21.811v79.324z"/><path d="m362.216 216.525h-24.5c74.369 0 134.825 60.718 134.397 135.185-.426 74.161-61.712 133.613-135.875 133.613h24.5c74.163 0 135.448-59.451 135.875-133.613.428-74.467-60.028-135.185-134.397-135.185z"/></g><g><g><path d="m310.987 72.818h-16.998c-4.268 0-7.726-3.459-7.726-7.726 0-4.268 3.459-7.726 7.726-7.726h16.998c4.268 0 7.726 3.459 7.726 7.726s-3.459 7.726-7.726 7.726z" fill="#f9f6f6"/></g><g><path d="m331.655 451.136h-33.929c-4.268 0-7.726-3.459-7.726-7.726s3.459-7.726 7.726-7.726h33.929c4.268 0 7.726 3.459 7.726 7.726s-3.459 7.726-7.726 7.726zm33.903-.413c-3.941 0-7.307-3.002-7.683-7.004-.399-4.249 2.72-8.016 6.969-8.415 10.398-.978 20.407-3.816 29.747-8.435 3.831-1.89 8.461-.323 10.351 3.501 1.891 3.825.325 8.459-3.5 10.35-11.04 5.46-22.867 8.813-35.152 9.968-.246.023-.49.035-.732.035zm59.496-29.372c-1.882 0-3.77-.684-5.258-2.066-3.126-2.905-3.305-7.794-.4-10.919 7.126-7.667 12.722-16.446 16.636-26.093 1.605-3.954 6.107-5.856 10.064-4.256 3.954 1.605 5.859 6.111 4.256 10.064-4.622 11.393-11.228 21.757-19.636 30.803-1.522 1.638-3.59 2.467-5.662 2.467zm24.926-61.497c-.055 0-.111-.001-.167-.002-4.267-.091-7.651-3.623-7.56-7.888.013-.609.019-1.219.019-1.83 0-9.859-1.661-19.521-4.937-28.716-1.432-4.019.666-8.439 4.686-9.871 4.017-1.431 8.44.667 9.871 4.686 3.869 10.864 5.832 22.27 5.832 33.901 0 .72-.008 1.441-.023 2.158-.089 4.21-3.529 7.562-7.721 7.562zm-22.256-62.492c-2.184 0-4.354-.921-5.882-2.712-6.786-7.955-14.86-14.534-23.998-19.553-3.739-2.054-5.106-6.751-3.051-10.492 2.053-3.738 6.747-5.108 10.492-3.051 10.783 5.923 20.309 13.684 28.314 23.068 2.77 3.246 2.382 8.123-.864 10.892-1.456 1.241-3.238 1.848-5.011 1.848zm-58.179-31.903c-.351 0-.705-.024-1.061-.072-3.865-.531-7.822-.801-11.76-.801h-21.073c-4.268 0-7.726-3.459-7.726-7.726 0-4.268 3.459-7.726 7.726-7.726h21.073c4.639 0 9.303.318 13.862.945 4.227.58 7.184 4.478 6.603 8.705-.531 3.87-3.844 6.675-7.644 6.675zm-160.043-.873c-3.437 0-6.912-.176-10.329-.525-4.244-.433-7.335-4.224-6.902-8.47s4.21-7.341 8.47-6.902c2.897.295 5.846.445 8.764.445h.027 24.333c4.268 0 7.726 3.459 7.726 7.726 0 4.268-3.459 7.726-7.726 7.726h-24.331c-.011 0-.022 0-.032 0zm92.22 0h-33.929c-4.268 0-7.726-3.459-7.726-7.726 0-4.268 3.459-7.726 7.726-7.726h33.929c4.268 0 7.726 3.459 7.726 7.726s-3.458 7.726-7.726 7.726zm-134.148-9.943c-1.17 0-2.358-.267-3.474-.83-10.981-5.539-20.772-12.964-29.1-22.065-2.88-3.148-2.664-8.035.485-10.915 3.147-2.879 8.035-2.663 10.915.485 7.059 7.714 15.356 14.006 24.659 18.699 3.81 1.922 5.34 6.568 3.419 10.378-1.359 2.694-4.08 4.248-6.904 4.248zm-44.783-48.972c-3.075 0-5.982-1.848-7.185-4.881-4.525-11.416-6.902-23.478-7.065-35.848-.056-4.267 3.357-7.771 7.624-7.827.034-.001.069-.001.104-.001 4.219 0 7.668 3.392 7.723 7.625.139 10.482 2.151 20.695 5.98 30.357 1.573 3.967-.368 8.457-4.335 10.029-.934.371-1.898.546-2.846.546zm-2.546-66.632c-.741 0-1.495-.108-2.24-.333-4.085-1.236-6.393-5.549-5.158-9.633 3.562-11.774 9.202-22.696 16.761-32.465 2.612-3.375 7.465-3.992 10.839-1.382 3.375 2.612 3.994 7.465 1.382 10.839-6.401 8.273-11.176 17.519-14.191 27.483-1.011 3.338-4.077 5.491-7.393 5.491zm40.589-52.508c-2.598 0-5.134-1.31-6.593-3.687-2.231-3.637-1.093-8.394 2.545-10.626 10.518-6.454 21.992-10.873 34.103-13.135 4.198-.774 8.23 1.982 9.013 6.177.784 4.195-1.982 8.23-6.176 9.013-10.247 1.914-19.957 5.654-28.859 11.116-1.26.774-2.655 1.142-4.033 1.142zm99.226-13.713h-33.929c-4.268 0-7.726-3.459-7.726-7.726 0-4.268 3.459-7.726 7.726-7.726h33.929c4.268 0 7.726 3.459 7.726 7.726s-3.458 7.726-7.726 7.726z" fill="#f9f6f6"/></g><g><path d="m263.599 451.136h-16.998c-4.268 0-7.726-3.459-7.726-7.726s3.459-7.726 7.726-7.726h16.998c4.268 0 7.726 3.459 7.726 7.726s-3.458 7.726-7.726 7.726z" fill="#f9f6f6"/></g></g></g></svg>