<svg id="Capa_1" enable-background="new 0 0 512 512" height="512" viewBox="0 0 512 512" width="512" xmlns="http://www.w3.org/2000/svg"><g><g><path d="m357.733 302.329h-334.226v-139.995c0-3.986 3.231-7.216 7.216-7.216h319.793c3.986 0 7.216 3.231 7.216 7.216v139.995z" fill="#80b4fb"/><path d="m350.517 155.118h-17.327c3.985 0 7.216 3.231 7.216 7.217v139.995h17.328v-139.996c-.001-3.985-3.232-7.216-7.217-7.216z" fill="#61a2f9"/></g><g><g><path d="m71.977 275.062c-4.143 0-7.5-3.357-7.5-7.5v-81.677c0-4.143 3.357-7.5 7.5-7.5s7.5 3.357 7.5 7.5v81.677c0 4.142-3.358 7.5-7.5 7.5z" fill="#f9f6f6"/></g><g><path d="m131.299 275.062c-4.143 0-7.5-3.357-7.5-7.5v-81.677c0-4.143 3.357-7.5 7.5-7.5s7.5 3.357 7.5 7.5v81.677c0 4.142-3.358 7.5-7.5 7.5z" fill="#f9f6f6"/></g><g><path d="m249.942 275.062c-4.143 0-7.5-3.357-7.5-7.5v-81.677c0-4.143 3.357-7.5 7.5-7.5s7.5 3.357 7.5 7.5v81.677c0 4.142-3.357 7.5-7.5 7.5z" fill="#f9f6f6"/></g><g><path d="m309.264 275.062c-4.143 0-7.5-3.357-7.5-7.5v-81.677c0-4.143 3.357-7.5 7.5-7.5s7.5 3.357 7.5 7.5v81.677c0 4.142-3.358 7.5-7.5 7.5z" fill="#f9f6f6"/></g></g><g><g><path d="m190.495 258.637c-6.718 6.539-17.466 6.394-24.005-.324l-3.93-4.038c-.441-.453-.431-1.178.022-1.618l27.147-26.424c.221-.215.346-.511.346-.82s-.125-.605-.346-.82l-27.147-26.425c-.453-.441-.463-1.166-.022-1.618l3.93-4.038c6.539-6.719 17.287-6.864 24.005-.324l25.249 24.576c1.309 1.274 2.375 2.797 3 4.514 1.66 4.561.422 9.454-2.858 12.647z" fill="#f9f6f6"/></g></g><g><path d="m395.244 325.91h-379.296c-4.666 0-8.449-3.783-8.449-8.449v-17.988c0-.632.512-1.145 1.145-1.145h386.6z" fill="#5986cb"/><path d="m370.257 298.329h24.988v27.581h-24.988z" fill="#4278c3"/></g><g><path d="m30.381 353.018h-22.881c-4.143 0-7.5-3.357-7.5-7.5s3.357-7.5 7.5-7.5h15.381v-22.108c0-4.143 3.357-7.5 7.5-7.5s7.5 3.357 7.5 7.5v29.607c0 4.143-3.358 7.501-7.5 7.501z" fill="#26457d"/></g><path d="m452.559 189.375h-67.314v-30.595c0-.876.778-1.547 1.645-1.418l43.654 6.485c12.649 1.879 22.015 12.739 22.015 25.528z" fill="#80b4fb"/><g><path d="m465.252 240.657c-3.28 0-5.938-2.659-5.938-5.938l-14.441-47.344h-59.628v138.535h112.833c3.547 0 6.423-2.875 6.423-6.423v-62.845z" fill="#f9f6f6"/></g><g fill="#dddaec"><path d="m486.228 319.488c0 3.547-2.875 6.422-6.421 6.423h18.271c3.547 0 6.423-2.875 6.423-6.423v-62.845l-18.272-7.442v70.287z"/><path d="m444.939 187.595-.067-.22h-1.761c.623 0 1.236.076 1.828.22z"/></g><path d="m467.607 190.486c-1.47-1.959-3.776-3.111-6.225-3.111h-16.51v63.329c0 3.28 2.659 5.938 5.938 5.938h53.69v-14.396c0-1.684-.547-3.323-1.558-4.671z" fill="#e4f6ff"/><path d="m502.943 237.576-35.335-47.09c-1.47-1.959-3.776-3.111-6.225-3.111h-16.51v.204c1.765.411 3.353 1.428 4.462 2.907l35.335 47.09c1.011 1.347 1.558 2.986 1.558 4.671v14.396h18.272v-14.396c0-1.684-.546-3.323-1.557-4.671z" fill="#d3effb"/><g><path d="m504.5 291.441h-11.033c-4.143 0-7.5-3.357-7.5-7.5s3.357-7.5 7.5-7.5h11.033c4.143 0 7.5 3.357 7.5 7.5s-3.357 7.5-7.5 7.5z" fill="#da4a54"/></g><circle cx="444.873" cy="328.001" fill="#26457d" r="28.882"/><path d="m444.873 299.119c-2.536 0-4.994.329-7.337.943 12.397 3.247 21.544 14.523 21.544 27.938s-9.147 24.691-21.544 27.938c2.343.614 4.802.943 7.337.943 15.951 0 28.882-12.931 28.882-28.882s-12.932-28.88-28.882-28.88z" fill="#21386b"/><circle cx="276.807" cy="328.001" fill="#26457d" r="28.882"/><path d="m276.807 299.119c-2.536 0-4.994.329-7.337.943 12.397 3.247 21.544 14.523 21.544 27.938s-9.147 24.691-21.544 27.938c2.343.614 4.802.943 7.337.943 15.951 0 28.882-12.931 28.882-28.882s-12.931-28.88-28.882-28.88z" fill="#21386b"/><circle cx="81.999" cy="328.001" fill="#26457d" r="28.882"/><path d="m81.999 299.119c-2.536 0-4.994.329-7.337.943 12.397 3.247 21.544 14.523 21.544 27.938s-9.147 24.691-21.544 27.938c2.343.614 4.802.943 7.337.943 15.951 0 28.882-12.931 28.882-28.882s-12.931-28.88-28.882-28.88z" fill="#21386b"/></g></svg>