<svg id="Capa_1" enable-background="new 0 0 512 512" height="512" viewBox="0 0 512 512" width="512" xmlns="http://www.w3.org/2000/svg"><g><path d="m482.589 448.188h-453.177v-23.154c0-7.085 5.743-12.828 12.828-12.828h427.52c7.085 0 12.828 5.743 12.828 12.828v23.154z" fill="#26457d"/><path d="m469.76 412.205h-25.355c7.085 0 12.828 5.743 12.828 12.828v23.154h25.355v-23.154c.001-7.084-5.743-12.828-12.828-12.828z" fill="#21386b"/><path d="m410.116 148.387c-1.191-1.788-.941-4.171.595-5.672l21.078-20.601c1.465-1.432 2.291-3.394 2.291-5.442v-51.044c0-5.247-4.332-9.459-9.577-9.312l-337.527 9.477c-5.041.142-9.054 4.269-9.054 9.312v79.657c0 2.44.851 4.804 2.406 6.684l32.587 39.402-33.802 51.366c-.777 1.181-1.191 2.564-1.191 3.978v10.206c0 2.449 1.238 4.731 3.291 6.066l18.457 12.006c1.984 1.29 2.7 3.854 1.672 5.986l-22.38 46.415c-.685 1.421-1.041 2.978-1.041 4.555v70.78h336.159l19.766-225.188c.151-1.723-.289-3.445-1.248-4.884z" fill="#ffd064"/><path d="m431.789 122.113c1.465-1.432 2.291-3.394 2.291-5.442v-51.043c0-5.247-4.332-9.459-9.577-9.312l-25.453.715c3.361 1.401 5.738 4.713 5.738 8.597v51.043c0 2.048-.826 4.01-2.291 5.442l-21.078 20.602c-1.537 1.502-1.787 3.884-.595 5.672l22.483 33.746c.959 1.439 1.399 3.162 1.248 4.884l-19.766 225.188h29.292l19.766-225.188c.151-1.723-.289-3.445-1.248-4.884l-22.483-33.746c-1.191-1.788-.941-4.171.595-5.672z" fill="#ffc250"/><g><path d="m348.953 360.739c-8.798 8.564-22.873 8.374-31.437-.425l-5.382-5.529c-.448-.46-.438-1.196.022-1.643l36.041-35.081c.225-.219.352-.519.352-.833s-.127-.614-.352-.833l-36.041-35.081c-.46-.448-.47-1.183-.022-1.643l5.382-5.529c8.564-8.798 22.638-8.989 31.437-.425l33.065 32.184c1.714 1.669 3.11 3.663 3.928 5.911 2.174 5.973.553 12.381-3.743 16.562z" fill="#f9f6f6"/></g><g><path d="m504.5 455.688h-497c-4.143 0-7.5-3.357-7.5-7.5s3.357-7.5 7.5-7.5h497c4.143 0 7.5 3.357 7.5 7.5s-3.357 7.5-7.5 7.5z" fill="#95d6a4"/></g><g><g><path d="m146.854 346.53c-4.143 0-7.5-3.357-7.5-7.5v-54.898c0-4.143 3.357-7.5 7.5-7.5s7.5 3.357 7.5 7.5v54.898c0 4.142-3.358 7.5-7.5 7.5z" fill="#26457d"/></g><g><path d="m170.011 305.662c-1.904 0-3.809-.72-5.271-2.164l-17.887-17.665-17.887 17.665c-2.946 2.909-7.695 2.882-10.606-.065s-2.881-7.696.065-10.606l23.157-22.87c2.922-2.885 7.619-2.885 10.541 0l23.157 22.87c2.946 2.91 2.977 7.659.065 10.606-1.465 1.485-3.4 2.229-5.334 2.229z" fill="#26457d"/></g></g><g><g><path d="m221.055 346.53c-4.143 0-7.5-3.357-7.5-7.5v-54.898c0-4.143 3.357-7.5 7.5-7.5s7.5 3.357 7.5 7.5v54.898c0 4.142-3.358 7.5-7.5 7.5z" fill="#26457d"/></g><g><path d="m244.212 305.662c-1.904 0-3.809-.72-5.271-2.164l-17.887-17.665-17.887 17.665c-2.947 2.909-7.695 2.882-10.606-.065s-2.881-7.696.065-10.606l23.157-22.87c2.922-2.885 7.619-2.885 10.541 0l23.157 22.87c2.946 2.91 2.977 7.659.065 10.606-1.465 1.485-3.4 2.229-5.334 2.229z" fill="#26457d"/></g></g><g><path d="m221.055 379.866h-74.201c-4.143 0-7.5-3.357-7.5-7.5s3.357-7.5 7.5-7.5h74.201c4.143 0 7.5 3.357 7.5 7.5s-3.358 7.5-7.5 7.5z" fill="#26457d"/></g><path d="m234.062 114.631h43.878c4.061 0 7.353-3.292 7.353-7.353v-47.053l-58.584 1.645v45.408c-.001 4.061 3.291 7.353 7.353 7.353z" fill="#26457d"/><path d="m266.552 60.751v46.527c0 4.061-3.292 7.353-7.353 7.353h18.74c4.061 0 7.353-3.292 7.353-7.353v-47.053z" fill="#21386b"/><g><path d="m143.235 224.559c-1.211 0-2.427-.293-3.535-.886l-30.322-16.211c-3.652-1.953-5.031-6.497-3.078-10.15 1.954-3.653 6.497-5.03 10.15-3.078l26.301 14.062 19.853-13.63c3.414-2.345 8.085-1.476 10.428 1.938 2.345 3.415 1.478 8.084-1.938 10.428l-23.612 16.211c-1.274.873-2.757 1.316-4.247 1.316z" fill="#ffc250"/></g><g><path d="m151.351 237.612c-2.507 0-4.957-1.257-6.378-3.544l-8.107-13.052c-2.186-3.519-1.104-8.143 2.414-10.328 3.517-2.186 8.141-1.105 10.328 2.414l8.107 13.052c2.186 3.519 1.104 8.143-2.414 10.328-1.232.764-2.6 1.13-3.95 1.13z" fill="#ffc250"/></g></g></svg>