<svg id="Capa_1" enable-background="new 0 0 512 512" height="512" viewBox="0 0 512 512" width="512" xmlns="http://www.w3.org/2000/svg"><g><g><path d="m477.486 168.231c-4.143 0-7.5-3.357-7.5-7.5v-28.496c0-4.143 3.357-7.5 7.5-7.5s7.5 3.357 7.5 7.5v28.496c0 4.142-3.357 7.5-7.5 7.5z" fill="#21386b"/></g><g><path d="m34.515 168.231c-4.143 0-7.5-3.357-7.5-7.5v-28.496c0-4.143 3.357-7.5 7.5-7.5s7.5 3.357 7.5 7.5v28.496c0 4.142-3.358 7.5-7.5 7.5z" fill="#21386b"/></g><g><path d="m376.585 335.691c0 8.659-7.044 15.703-15.703 15.703h-46.428c-4.143 0-7.5-3.357-7.5-7.5s3.357-7.5 7.5-7.5h46.428c.388 0 .703-.315.703-.703v-85.766c0-.388-.315-.703-.703-.703h-67.486c-4.143 0-7.5-3.357-7.5-7.5s3.357-7.5 7.5-7.5h67.486c8.659 0 15.703 7.044 15.703 15.703z" fill="#5986cb"/></g><g><path d="m205.047 343.894c0 4.143-3.357 7.5-7.5 7.5h-46.428c-8.659 0-15.703-7.044-15.703-15.703v-85.766c0-8.659 7.044-15.703 15.703-15.703h67.486c4.143 0 7.5 3.357 7.5 7.5s-3.357 7.5-7.5 7.5h-67.486c-.388 0-.703.315-.703.703v85.766c0 .388.315.703.703.703h46.428c4.142 0 7.5 3.357 7.5 7.5z" fill="#5986cb"/></g><g><g><path d="m292.448 297.638c-4.143 0-7.5-3.357-7.5-7.5v-45.137c0-4.143 3.357-7.5 7.5-7.5s7.5 3.357 7.5 7.5v45.137c0 4.142-3.357 7.5-7.5 7.5z" fill="#5986cb"/></g><g><path d="m219.553 297.638c-4.143 0-7.5-3.357-7.5-7.5v-45.137c0-4.143 3.357-7.5 7.5-7.5s7.5 3.357 7.5 7.5v45.137c0 4.142-3.358 7.5-7.5 7.5z" fill="#5986cb"/></g></g><g><path d="m471.507 212.373h-131.41c-4.143 0-7.5-3.357-7.5-7.5s3.357-7.5 7.5-7.5h129.89v-27.775c0-4.143 3.357-7.5 7.5-7.5s7.5 3.357 7.5 7.5v29.297c-.001 7.431-6.048 13.478-13.48 13.478z" fill="#26457d"/></g><g><path d="m171.904 212.373h-131.411c-7.432 0-13.479-6.047-13.479-13.479v-29.297c0-4.143 3.357-7.5 7.5-7.5s7.5 3.357 7.5 7.5v27.775h129.89c4.143 0 7.5 3.357 7.5 7.5s-3.357 7.501-7.5 7.501z" fill="#26457d"/></g><path d="m365.516 182.792h-219.032c-1.971 0-3.568-1.598-3.568-3.568v-41.366c0-16.013 12.981-28.993 28.993-28.993h168.182c16.013 0 28.993 12.981 28.993 28.993v41.366c.001 1.97-1.597 3.568-3.568 3.568z" fill="#80b4fb"/><path d="m340.091 108.864h-18.988c16.012 0 28.993 12.981 28.993 28.993v44.934h15.42c1.971 0 3.568-1.598 3.568-3.568v-41.365c.001-16.013-12.98-28.994-28.993-28.994z" fill="#61a2f9"/><path d="m336.814 220.956h-161.627c-7.336 0-13.283-5.947-13.283-13.283v-24.881h188.193v24.881c0 7.336-5.947 13.283-13.283 13.283z" fill="#5986cb"/><path d="m331.109 182.792v24.881c0 7.336-5.947 13.282-13.283 13.282h18.988c7.336 0 13.283-5.947 13.283-13.282v-24.881z" fill="#4278c3"/><g><path d="m262.858 156.471c-4.143 0-7.5-3.357-7.5-7.5v-6.286c0-4.143 3.357-7.5 7.5-7.5s7.5 3.357 7.5 7.5v6.286c0 4.142-3.357 7.5-7.5 7.5z" fill="#dd636e"/></g><g><path d="m293.656 156.471c-4.143 0-7.5-3.357-7.5-7.5v-6.286c0-4.143 3.357-7.5 7.5-7.5s7.5 3.357 7.5 7.5v6.286c0 4.142-3.357 7.5-7.5 7.5z" fill="#dd636e"/></g><g><path d="m324.454 156.471c-4.143 0-7.5-3.357-7.5-7.5v-6.286c0-4.143 3.357-7.5 7.5-7.5s7.5 3.357 7.5 7.5v6.286c0 4.142-3.357 7.5-7.5 7.5z" fill="#dd636e"/></g><path d="m303.395 248.52c0 1.087-.881 1.968-1.968 1.968h-90.854c-1.087 0-1.968-.881-1.968-1.968v-27.565h94.79z" fill="#26457d"/><path d="m283.903 220.955v29.532h17.524c1.087 0 1.968-.881 1.968-1.968v-27.565h-19.492z" fill="#21386b"/><path d="m315.4 403.136h-118.799c-4.135 0-7.487-3.352-7.487-7.487v-103.51c0-4.135 3.352-7.487 7.487-7.487h118.799c4.135 0 7.487 3.352 7.487 7.487v103.51c-.001 4.135-3.353 7.487-7.487 7.487z" fill="#ffd064"/><path d="m315.4 284.652h-15.425c4.135 0 7.487 3.352 7.487 7.487v103.51c0 4.135-3.352 7.487-7.487 7.487h15.425c4.135 0 7.487-3.352 7.487-7.487v-103.51c-.001-4.135-3.353-7.487-7.487-7.487z" fill="#ffc250"/><path d="m266.913 322.615h-21.825c-1.718 0-3.11-1.393-3.11-3.11v-34.853h28.046v34.853c-.001 1.717-1.393 3.11-3.111 3.11z" fill="#26457d"/><path d="m257.607 284.652v34.853c0 1.718-1.393 3.11-3.11 3.11h12.416c1.718 0 3.11-1.393 3.11-3.11v-34.853z" fill="#21386b"/><g><path d="m286.026 388.801c-1.954 0-3.905-.759-5.375-2.269-2.89-2.969-2.825-7.717.143-10.605l7.013-6.826-7.013-6.826c-2.968-2.889-3.032-7.637-.143-10.605s7.637-3.033 10.605-.143l12.534 12.2c1.45 1.411 2.269 3.35 2.269 5.374s-.818 3.963-2.269 5.374l-12.534 12.2c-1.457 1.419-3.345 2.126-5.23 2.126z" fill="#f9f6f6"/></g><g><path d="m241.378 381.762h-27.601c-4.143 0-7.5-3.357-7.5-7.5s3.357-7.5 7.5-7.5h27.601c4.143 0 7.5 3.357 7.5 7.5s-3.357 7.5-7.5 7.5z" fill="#26457d"/></g><path d="m495.159 179.598h-35.346c-2.149 0-3.891-1.742-3.891-3.891v-20.282c0-2.592 2.102-4.694 4.694-4.694h33.74c2.592 0 4.694 2.102 4.694 4.694v20.282c0 2.149-1.742 3.891-3.891 3.891z" fill="#5986cb"/><path d="m16.841 179.598h35.346c2.149 0 3.891-1.742 3.891-3.891v-20.282c0-2.592-2.101-4.694-4.694-4.694h-33.74c-2.592 0-4.694 2.102-4.694 4.694v20.282c.001 2.149 1.743 3.891 3.891 3.891z" fill="#5986cb"/><g><path d="m504.5 138.135h-54.027c-4.143 0-7.5-3.357-7.5-7.5s3.357-7.5 7.5-7.5h54.027c4.143 0 7.5 3.357 7.5 7.5s-3.357 7.5-7.5 7.5z" fill="#26457d"/></g><g><path d="m61.528 138.135h-54.028c-4.143 0-7.5-3.357-7.5-7.5s3.357-7.5 7.5-7.5h54.028c4.143 0 7.5 3.357 7.5 7.5s-3.357 7.5-7.5 7.5z" fill="#26457d"/></g></g></svg>