<svg id="Capa_1" enable-background="new 0 0 512 512" height="512" viewBox="0 0 512 512" width="512" xmlns="http://www.w3.org/2000/svg"><g><path d="m339.153 483.339c0 6.6-5.35 11.95-11.95 11.95h-315.253c-6.6 0-11.95-5.35-11.95-11.95v-293.904c0-6.6 5.35-11.95 11.95-11.95h315.254c6.6 0 11.95 5.35 11.95 11.95v293.904z" fill="#ffd064"/><path d="m303.096 177.485c6.491 0 11.754 5.262 11.754 11.754v306.05h12.354c6.6 0 11.95-5.35 11.95-11.95v-293.904c0-6.6-5.35-11.95-11.95-11.95z" fill="#ffc250"/><g><path d="m258.091 446.28c-8.378 8.155-21.781 7.974-29.936-.405l-5.062-5.2c-.461-.474-.451-1.232.023-1.693l34.188-33.278c.232-.225.362-.535.362-.858s-.131-.632-.362-.858l-34.188-33.278c-.474-.461-.484-1.219-.023-1.693l5.062-5.2c8.155-8.378 21.558-8.559 29.936-.404l31.486 30.647c1.633 1.589 2.962 3.488 3.741 5.629 2.071 5.687.527 11.79-3.564 15.771z" fill="#f9f6f6"/></g><path d="m190.468 233.272h-41.783c-3.867 0-7.002-3.135-7.002-7.002v-48.785h55.787v48.785c0 3.867-3.135 7.002-7.002 7.002z" fill="#26457d"/><path d="m177.131 177.485v48.785c0 3.867-3.135 7.002-7.002 7.002h20.339c3.867 0 7.002-3.135 7.002-7.002v-48.785z" fill="#21386b"/><g><g><path d="m65.641 433.333c-4.268 0-7.726-3.459-7.726-7.726v-52.277c0-4.268 3.459-7.726 7.726-7.726 4.268 0 7.726 3.459 7.726 7.726v52.277c0 4.267-3.459 7.726-7.726 7.726z" fill="#26457d"/></g><g><path d="m43.589 394.417c-1.994 0-3.986-.767-5.497-2.297-2.999-3.036-2.968-7.929.067-10.927l22.051-21.778c3.01-2.972 7.85-2.973 10.858-.001l22.052 21.778c3.036 2.999 3.067 7.89.068 10.927-3 3.037-7.891 3.067-10.926.068l-16.624-16.415-16.622 16.415c-1.503 1.487-3.466 2.23-5.427 2.23z" fill="#26457d"/></g></g><g><g><path d="m136.299 433.333c-4.268 0-7.726-3.459-7.726-7.726v-52.277c0-4.268 3.459-7.726 7.726-7.726 4.268 0 7.726 3.459 7.726 7.726v52.277c.001 4.267-3.458 7.726-7.726 7.726z" fill="#26457d"/></g><g><path d="m158.351 394.417c-1.962 0-3.924-.742-5.43-2.229l-16.622-16.415-16.622 16.415c-3.038 2.999-7.93 2.967-10.927-.067-2.999-3.036-2.968-7.929.067-10.927l22.051-21.778c3.01-2.972 7.849-2.972 10.859 0l22.051 21.778c3.035 2.998 3.066 7.89.067 10.927-1.508 1.529-3.501 2.296-5.494 2.296z" fill="#26457d"/></g></g><circle cx="381.942" cy="146.77" fill="#95d6a4" r="130.058"/><path d="m381.942 16.711c-4.237 0-8.425.21-12.558.606 65.936 6.318 117.501 61.86 117.501 129.453 0 67.592-51.564 123.134-117.501 129.453 4.133.396 8.321.606 12.558.606 71.829-.001 130.058-58.23 130.058-130.059 0-71.83-58.229-130.059-130.058-130.059z" fill="#78c2a4"/><g><path d="m370.175 189.025c-4.087 0-8.173-1.559-11.291-4.677l-38.409-38.409c-6.236-6.235-6.236-16.346 0-22.581 6.235-6.235 16.346-6.235 22.582 0l27.119 27.119 49.351-49.351c6.235-6.235 16.346-6.235 22.581 0 6.236 6.235 6.236 16.346 0 22.581l-60.642 60.642c-3.118 3.117-7.205 4.676-11.291 4.676z" fill="#f9f6f6"/></g></g></svg>