<svg id="Capa_1" enable-background="new 0 0 512 512" height="512" viewBox="0 0 512 512" width="512" xmlns="http://www.w3.org/2000/svg"><g><path d="m493.472 335.97h-240.965c-5.094 0-9.224-4.13-9.224-9.224v-317.522c0-5.094 4.13-9.224 9.224-9.224h240.964c5.094 0 9.224 4.13 9.224 9.224v317.522c.001 5.095-4.129 9.224-9.223 9.224z" fill="#f9f6f6"/><path d="m493.472 0h-21.58c5.094 0 9.224 4.13 9.224 9.224v317.522c0 5.094-4.13 9.224-9.224 9.224h21.58c5.094 0 9.224-4.13 9.224-9.224v-317.522c0-5.094-4.13-9.224-9.224-9.224z" fill="#dddaec"/><g><g><g><path d="m407.187 59.415h-125.935c-4.268 0-7.726-3.459-7.726-7.726s3.459-7.726 7.726-7.726h125.935c4.268 0 7.726 3.459 7.726 7.726s-3.458 7.726-7.726 7.726z" fill="#26457d"/></g><g><path d="m444.701 70.214c-2.15 0-4.203-.896-5.665-2.473l-11.014-11.877c-2.901-3.129-2.717-8.017.411-10.919 3.129-2.902 8.018-2.716 10.919.411l5.349 5.768 14.361-15.487c2.9-3.13 7.79-3.314 10.919-.411 3.129 2.901 3.313 7.79.411 10.919l-20.026 21.597c-1.462 1.576-3.515 2.472-5.665 2.472z" fill="#95d6a4"/></g></g><g><g><path d="m407.187 140.38h-125.935c-4.268 0-7.726-3.459-7.726-7.726 0-4.268 3.459-7.726 7.726-7.726h125.935c4.268 0 7.726 3.459 7.726 7.726 0 4.268-3.458 7.726-7.726 7.726z" fill="#26457d"/></g><g><path d="m444.701 151.178c-2.15 0-4.203-.896-5.665-2.473l-11.014-11.877c-2.901-3.129-2.717-8.017.411-10.919 3.129-2.902 8.018-2.716 10.919.411l5.349 5.768 14.361-15.486c2.9-3.13 7.79-3.314 10.919-.411 3.129 2.901 3.313 7.79.411 10.919l-20.026 21.596c-1.462 1.576-3.515 2.472-5.665 2.472z" fill="#95d6a4"/></g></g><g><g><path d="m407.187 221.345h-125.935c-4.268 0-7.726-3.459-7.726-7.726s3.459-7.726 7.726-7.726h125.935c4.268 0 7.726 3.459 7.726 7.726s-3.458 7.726-7.726 7.726z" fill="#26457d"/></g><g><path d="m444.701 232.143c-2.15 0-4.203-.896-5.665-2.473l-11.014-11.877c-2.901-3.129-2.717-8.017.411-10.919 3.129-2.903 8.018-2.717 10.919.411l5.349 5.768 14.361-15.487c2.9-3.13 7.79-3.314 10.919-.411 3.129 2.901 3.313 7.79.411 10.919l-20.026 21.597c-1.462 1.575-3.515 2.472-5.665 2.472z" fill="#95d6a4"/></g></g><g><g><path d="m407.187 302.309h-125.935c-4.268 0-7.726-3.459-7.726-7.726s3.459-7.726 7.726-7.726h125.935c4.268 0 7.726 3.459 7.726 7.726s-3.458 7.726-7.726 7.726z" fill="#26457d"/></g><g><path d="m444.701 313.108c-2.151 0-4.203-.896-5.666-2.473l-11.014-11.878c-2.901-3.129-2.716-8.018.412-10.92 3.129-2.9 8.017-2.716 10.92.412l5.348 5.769 14.361-15.487c2.9-3.13 7.79-3.314 10.919-.411 3.129 2.901 3.313 7.79.411 10.918l-20.026 21.597c-1.462 1.576-3.515 2.473-5.665 2.473z" fill="#95d6a4"/></g></g></g><path d="m336.606 500.468c0 6.369-5.163 11.532-11.532 11.532h-304.238c-6.369 0-11.532-5.163-11.532-11.532v-283.634c0-6.369 5.163-11.532 11.532-11.532h304.238c6.369 0 11.532 5.163 11.532 11.532z" fill="#ffd064"/><path d="m301.808 205.302c6.265 0 11.343 5.079 11.343 11.343v295.355h11.922c6.369 0 11.532-5.163 11.532-11.532v-283.634c0-6.369-5.163-11.532-11.532-11.532z" fill="#ffc250"/><g><path d="m258.376 464.703c-8.085 7.87-21.02 7.695-28.89-.39l-5.028-5.166c-.366-.376-.358-.978.018-1.344l33.292-32.405c.184-.179.287-.424.287-.681s-.104-.502-.287-.681l-33.292-32.405c-.376-.366-.384-.968-.018-1.344l5.028-5.165c7.87-8.086 20.804-8.26 28.89-.39l30.386 29.577c1.575 1.534 2.858 3.367 3.61 5.432 1.998 5.489.508 11.378-3.44 15.22z" fill="#f9f6f6"/></g><path d="m193.116 259.139h-40.323c-3.732 0-6.757-3.025-6.757-6.757v-47.08h53.838v47.08c0 3.732-3.026 6.757-6.758 6.757z" fill="#26457d"/><path d="m180.246 205.302v47.08c0 3.732-3.025 6.757-6.757 6.757h19.628c3.732 0 6.757-3.025 6.757-6.757v-47.08z" fill="#21386b"/><g><g><path d="m72.651 452.479c-4.268 0-7.726-3.459-7.726-7.726v-50.45c0-4.268 3.459-7.726 7.726-7.726 4.268 0 7.726 3.459 7.726 7.726v50.45c0 4.267-3.459 7.726-7.726 7.726z" fill="#26457d"/></g><g><path d="m93.932 414.922c-1.962 0-3.924-.741-5.429-2.228l-15.853-15.655-15.852 15.654c-3.035 2.998-7.928 2.969-10.926-.068-2.999-3.035-2.968-7.928.068-10.926l21.28-21.016c3.01-2.972 7.85-2.973 10.858-.001l21.282 21.016c3.036 2.999 3.067 7.89.069 10.927-1.511 1.531-3.504 2.297-5.497 2.297z" fill="#26457d"/></g></g><g><g><path d="m140.84 452.479c-4.268 0-7.726-3.459-7.726-7.726v-50.45c0-4.268 3.459-7.726 7.726-7.726 4.268 0 7.726 3.459 7.726 7.726v50.45c0 4.267-3.458 7.726-7.726 7.726z" fill="#26457d"/></g><g><path d="m162.122 414.922c-1.962 0-3.924-.741-5.429-2.228l-15.853-15.655-15.852 15.654c-3.035 2.998-7.929 2.969-10.926-.068-2.999-3.035-2.968-7.928.068-10.926l21.28-21.016c3.01-2.972 7.85-2.973 10.858-.001l21.282 21.016c3.036 2.999 3.067 7.89.069 10.927-1.511 1.531-3.504 2.297-5.497 2.297z" fill="#26457d"/></g></g></g></svg>