<svg id="Capa_1" enable-background="new 0 0 512 512" height="512" viewBox="0 0 512 512" width="512" xmlns="http://www.w3.org/2000/svg"><g><g><path d="m42.828 410.138h-35.217c-4.204 0-7.611-3.407-7.611-7.612s3.407-7.611 7.611-7.611h27.605v-25.884c0-4.204 3.407-7.612 7.611-7.612s7.611 3.407 7.611 7.612v33.496c.001 4.204-3.406 7.611-7.61 7.611z" fill="#26457d"/></g><g><path d="m258.213 255.624v-100.944c0-54.806-44.429-99.235-99.236-99.235-54.806 0-99.235 44.429-99.235 99.235v100.944c64.122 15.356 130.214 16.608 198.471 0z" fill="#e4f6ff"/></g><path d="m149.977 55.855c-.003 0-.006.001-.01.001 50.582 4.555 90.223 47.056 90.223 98.824v104.919c5.991-1.19 11.998-2.509 18.023-3.975v-100.944c0-57.926-49.593-104.076-108.236-98.825z" fill="#d3effb"/><g><path d="m330.641 379.18h-302.994c-11.065 0-20.035-8.97-20.035-20.035v-38.188c0-1.436 1.165-2.601 2.601-2.601h320.428z" fill="#5986cb"/><path d="m290.912 318.356h39.729v60.824h-39.729z" fill="#4278c3"/></g><g><path d="m404.135 262.676-19.649-80.383h-64.445c-5.356 0-9.698 4.342-9.698 9.698v187.189h188.355l2.098-8.68c4.116 0 7.453-3.337 7.453-7.453l3.751-70.58-97.988-19.914c-5.455 0-9.877-4.422-9.877-9.877z" fill="#95d6a4"/></g><path d="m512 292.467-19.907-4.046v83.305c0 4.116-3.337 7.453-7.453 7.453h19.907c4.116 0 7.453-3.337 7.453-7.453z" fill="#78c2a4"/><circle cx="413.636" cy="399.374" fill="#26457d" r="57.182"/><path d="m413.636 342.192c-3.238 0-6.409.283-9.501.8 27.056 4.527 47.681 28.039 47.681 56.382s-20.625 51.855-47.681 56.382c3.091.517 6.262.8 9.501.8 31.581 0 57.182-25.601 57.182-57.182s-25.602-57.182-57.182-57.182z" fill="#21386b"/><circle cx="413.636" cy="399.374" fill="#f9f6f6" r="19.002"/><path d="m413.636 380.372c-2.766 0-5.387.605-7.758 1.667 6.623 2.969 11.244 9.606 11.244 17.334s-4.621 14.365-11.244 17.334c2.371 1.063 4.992 1.667 7.758 1.667 10.494 0 19.001-8.507 19.001-19.002s-8.507-19-19.001-19z" fill="#dddaec"/><circle cx="121.953" cy="399.374" fill="#26457d" r="57.182"/><path d="m121.953 342.192c-3.238 0-6.409.283-9.501.8 27.056 4.527 47.681 28.039 47.681 56.382s-20.625 51.855-47.681 56.382c3.091.517 6.262.8 9.501.8 31.581 0 57.182-25.601 57.182-57.182s-25.601-57.182-57.182-57.182z" fill="#21386b"/><circle cx="121.953" cy="399.374" fill="#f9f6f6" r="19.002"/><path d="m121.953 380.372c-2.766 0-5.387.605-7.758 1.667 6.623 2.969 11.244 9.606 11.244 17.334s-4.621 14.365-11.244 17.334c2.371 1.063 4.992 1.667 7.758 1.667 10.494 0 19.001-8.507 19.001-19.002s-8.506-19-19.001-19z" fill="#dddaec"/><path d="m310.496 405.55h-66.863c-7.259 0-13.143-5.884-13.143-13.143v-13.227h93.149v13.226c0 7.259-5.884 13.144-13.143 13.144z" fill="#26457d"/><path d="m306.381 379.18v13.226c0 7.259-5.884 13.143-13.143 13.143h17.259c7.259 0 13.143-5.884 13.143-13.143v-13.226z" fill="#21386b"/><path d="m512 348.768h-14.82c-6.508 0-11.784-5.276-11.784-11.784 0-6.508 5.276-11.784 11.784-11.784h14.82z" fill="#da4a54"/><g><path d="m464.02 187.343c-1.7-3.113-4.964-5.05-8.511-5.05h-71.022v100.297c0 5.455 4.422 9.877 9.877 9.877h117.636v-9.503c0-5.098-1.281-10.115-3.724-14.589z" fill="#e4f6ff"/></g><path d="m508.276 268.375-44.256-81.033c-1.7-3.113-4.964-5.05-8.512-5.05h-19.906c3.547 0 6.811 1.937 8.512 5.05l44.256 81.032c2.444 4.474 3.724 9.491 3.724 14.589v9.503h19.906v-9.503c0-5.097-1.28-10.113-3.724-14.588z" fill="#d3effb"/><path d="m416.369 243.278c-.655-14.398-12.519-25.735-26.932-25.735h-4.95v65.047c0 5.455 4.422 9.877 9.877 9.877h24.244z" fill="#26457d"/><path d="m508.014 292.207-38.817-38.816c-2.973-2.971-7.792-2.971-10.765 0-2.972 2.973-2.972 7.792 0 10.765l28.312 28.311h21.505c-.079-.086-.152-.176-.235-.26z" fill="#21386b"/><g><path d="m454.973 275.227c-1.947 0-3.896-.743-5.383-2.229-2.972-2.973-2.972-7.792 0-10.765l17.683-17.683c2.973-2.971 7.792-2.971 10.765 0 2.972 2.973 2.972 7.792 0 10.765l-17.683 17.683c-1.486 1.485-3.434 2.229-5.382 2.229z" fill="#26457d"/></g><g><path d="m345.894 265.504c-4.204 0-7.612-3.407-7.612-7.611v-26.445c0-4.204 3.407-7.611 7.612-7.611s7.611 3.407 7.611 7.611v26.445c0 4.204-3.407 7.611-7.611 7.611z" fill="#f9f6f6"/></g><path d="m284.9 318.356h-251.845v-19.607c0-3.855 3.125-6.98 6.98-6.98h237.885c3.855 0 6.98 3.125 6.98 6.98z" fill="#26457d"/><path d="m277.92 291.769h-18.023c3.855 0 6.98 3.125 6.98 6.98v19.607h18.023v-19.607c0-3.855-3.125-6.98-6.98-6.98z" fill="#21386b"/><path d="m258.213 291.769v-36.145c-66.157-24.064-132.314-24.064-198.471 0v36.145z" fill="#b16e3d"/><path d="m240.191 249.67v42.1h18.023v-36.145c-6.008-2.186-12.016-4.167-18.023-5.955z" fill="#934d36"/><g><path d="m158.977 262.617c-4.204 0-7.611-3.407-7.611-7.612v-94.685c0-4.204 3.407-7.611 7.611-7.611s7.611 3.407 7.611 7.611v94.686c.001 4.204-3.407 7.611-7.611 7.611z" fill="#95d6a4"/></g><path d="m158.978 160.319h-18.681c-16.057 0-29.075-13.017-29.075-29.075v-16.986c0-.936.759-1.695 1.695-1.695h16.986c16.057 0 29.075 13.017 29.075 29.075z" fill="#95d6a4"/><path d="m158.978 141.638c0-16.057-13.017-29.074-29.075-29.074h-16.986c-.936 0-1.695.759-1.695 1.695v6.487h7.59c16.057 0 29.075 13.017 29.075 29.074v10.499h11.091z" fill="#78c2a4"/><path d="m158.978 160.319h18.681c16.057 0 29.075-13.017 29.075-29.075v-16.986c0-.936-.759-1.695-1.695-1.695h-16.986c-16.057 0-29.075 13.017-29.075 29.075z" fill="#95d6a4"/><path d="m197.004 112.564v9.129c0 16.057-13.017 29.074-29.075 29.074h-8.952v9.552h18.681c16.057 0 29.074-13.017 29.074-29.074v-16.986c0-.936-.759-1.695-1.695-1.695z" fill="#78c2a4"/></g></svg>