<svg id="Capa_1" enable-background="new 0 0 512 512" height="512" viewBox="0 0 512 512" width="512" xmlns="http://www.w3.org/2000/svg"><g><g><path d="m118.143 268.988c-4.268 0-7.726-3.459-7.726-7.726v-67.413c0-4.268 3.459-7.726 7.726-7.726 4.268 0 7.726 3.459 7.726 7.726v67.413c0 4.267-3.459 7.726-7.726 7.726z" fill="#f9f6f6"/></g><path d="m368.013 318.528h-346.375c-11.95 0-21.638-9.688-21.638-21.638v-20.221c0-1.307 1.06-2.367 2.367-2.367h384.918c1.307 0 2.367 1.06 2.367 2.367v20.221c-.001 11.95-9.689 21.638-21.639 21.638z" fill="#26457d"/><path d="m366.931 274.303v22.588c0 11.95-9.688 21.638-21.638 21.638h22.72c11.95 0 21.638-9.688 21.638-21.638v-20.221c0-1.307-1.06-2.367-2.367-2.367z" fill="#21386b"/><path d="m347.262 414.597-45.362-12.711c-6.475-1.814-10.591-8.158-9.61-14.81l7.367-49.948c1.446-9.802-6.151-18.6-16.058-18.6-5.55 0-10.716 2.836-13.695 7.519l-29.369 46.163c-5.954 9.359-18.138 12.509-27.883 7.209l-108.796-59.176c-2.069-1.125-4.386-1.715-6.741-1.715-12.513 0-18.833 15.081-10.058 24.002l37.832 38.461c47.925 48.723 110.219 80.783 177.722 91.465l44.653 7.066v-64.925z" fill="#f1d0a5"/><path d="m325.107 409.262v66.755l22.155 3.506v-64.926l-22.112-6.196c-.022.285-.043.571-.043.861z" fill="#f1b986"/><path d="m398.461 492.844h-40.66c-5.82 0-10.538-4.718-10.538-10.538v-73.043c0-5.82 4.718-10.538 10.538-10.538h40.66z" fill="#f9f6f6"/><path d="m376.306 398.724h22.155v94.119h-22.155z" fill="#dddaec"/><path d="m508.782 512h-106.259c-2.243 0-4.062-1.819-4.062-4.062v-124.308c0-2.243 1.819-4.062 4.062-4.062h106.259c1.777 0 3.218 1.441 3.218 3.218v125.995c0 1.778-1.441 3.219-3.218 3.219z" fill="#80b4fb"/><path d="m489.845 379.568v132.432h18.937c1.777 0 3.218-1.441 3.218-3.218v-125.996c0-1.777-1.441-3.218-3.218-3.218z" fill="#61a2f9"/><g><path d="m433.075 462.71c-4.268 0-7.726-3.459-7.726-7.726v-18.4c0-4.268 3.459-7.726 7.726-7.726s7.726 3.459 7.726 7.726v18.4c0 4.268-3.458 7.726-7.726 7.726z" fill="#f9f6f6"/></g><path d="m118.142 204.15c-22.804 0-41.29-18.486-41.29-41.29v-39.4c0-1.044.847-1.891 1.891-1.891h78.799c1.044 0 1.891.847 1.891 1.891v39.399c-.001 22.805-18.487 41.291-41.291 41.291z" fill="#dd636e"/><path d="m139.299 121.57v41.29c0 19.331-13.286 35.554-31.224 40.049 3.223.808 6.594 1.242 10.067 1.242 22.804 0 41.29-18.486 41.29-41.29v-39.401c0-1.044-.847-1.891-1.891-1.891h-18.242z" fill="#da4a54"/><path d="m155.923 274.303h-75.562v-13.793c0-5.274 4.276-9.55 9.55-9.55h56.462c5.274 0 9.55 4.276 9.55 9.55z" fill="#f9f6f6"/><path d="m146.373 250.96h-20.134c5.274 0 9.55 4.276 9.55 9.55v13.793h20.133v-13.793c.001-5.274-4.275-9.55-9.549-9.55z" fill="#dddaec"/><path d="m279.395 51.898v-27.63h-39.295v27.63c0 6.583-3.024 12.801-8.203 16.865-15.91 12.486-25.201 31.589-25.201 51.813v143.354c0 5.729 4.644 10.373 10.373 10.373h85.358c5.729 0 10.373-4.644 10.373-10.373v-143.354c0-20.224-9.291-39.327-25.201-51.813-5.179-4.064-8.204-10.282-8.204-16.865z" fill="#95d6a4"/><path d="m287.598 68.763c-5.179-4.064-8.203-10.282-8.203-16.865v-27.63h-15.846v27.63c0 6.583 3.024 12.801 8.203 16.865 15.91 12.486 25.201 31.589 25.201 51.813v143.354c0 5.729-4.644 10.373-10.373 10.373h15.846c5.729 0 10.373-4.644 10.373-10.373v-143.354c0-20.224-9.291-39.327-25.201-51.813z" fill="#78c2a4"/><path d="m206.696 155.02h106.103v64.3h-106.103z" fill="#dd636e"/><path d="m296.953 155.02h15.846v64.3h-15.846z" fill="#da4a54"/><path d="m285.858 24.268h-52.22c-1.76 0-3.187-1.427-3.187-3.187v-17.894c0-1.76 1.427-3.187 3.187-3.187h52.22c1.76 0 3.187 1.427 3.187 3.187v17.894c0 1.76-1.427 3.187-3.187 3.187z" fill="#26457d"/><path d="m285.858 0h-15.846c1.76 0 3.187 1.427 3.187 3.187v17.894c0 1.76-1.427 3.187-3.187 3.187h15.846c1.76 0 3.187-1.427 3.187-3.187v-17.894c0-1.76-1.427-3.187-3.187-3.187z" fill="#21386b"/></g></svg>