<svg id="Capa_1" enable-background="new 0 0 512 512" height="512" viewBox="0 0 512 512" width="512" xmlns="http://www.w3.org/2000/svg"><g><path d="m292.461 463.341c-13.352-39.833 37.77-81.353 57.342-130.173 36.547-91.165 1.765-129.142-23.186-186.23s-27.74-96.994-27.74-96.994c-63.049-13.119-125.368 3.467-172.448 40.212 34.817 13.309 20.788 59.59-.42 120.319-26.712 76.489 5.899 110.586 1.507 212.284-.087-.067-.171-.136-.258-.203 24.476 18.948 53.522 32.775 85.866 39.505 29.314 6.1 58.468 5.766 86.01-.015-2.215.465-4.439.901-6.673 1.295z" fill="#e4f6ff"/><g fill="#d3effb"><path d="m233.328 46.716c-.074.008-.148.017-.222.026 23.4 2.553 46.37 8.948 68.048 19.27-1.871-10.287-2.278-16.067-2.278-16.067-22.304-4.643-44.591-5.495-65.548-3.229z"/><path d="m233.453 465.262c19.314 2.114 39.01 1.584 59.002-1.941-1.393-4.163-2.074-8.345-2.169-12.551-17.997 7.389-37.105 12.334-56.833 14.492z"/></g><path d="m462.059 298.879c-18.071 86.846-87.259 149.956-169.598 164.462-13.352-39.833-15.001-92.341 4.57-141.16 36.547-91.166 12.242-107.104-12.709-164.192-24.951-57.089 14.554-108.045 14.554-108.045 113.804 23.68 186.863 135.132 163.183 248.935z" fill="#95d6a4"/><path d="m298.876 49.944s-3.318 4.284-7.421 11.748c91.458 37.979 146.036 136.659 125.118 237.187-14.9 71.605-64.552 127.068-127.67 152.465 1.07 4.108 2.257 8.114 3.558 11.997 82.339-14.505 151.527-77.615 169.598-164.462 23.68-113.803-49.379-225.255-163.183-248.935z" fill="#78c2a4"/><path d="m191.528 194.795c-26.712 76.489-59.622 126.266-64.013 227.964-61.812-47.698-94.547-128.059-77.574-209.633 10.561-50.754 38.588-93.391 76.487-122.97 34.818 13.309 86.308 43.909 65.1 104.639z" fill="#95d6a4"/><path d="m126.428 90.156c-2.591 2.023-5.132 4.112-7.629 6.255 32.665 15.722 68.936 45.724 50.546 98.384-25.031 71.676-55.504 119.897-62.853 209.363 6.564 6.636 13.58 12.857 21.023 18.6 4.391-101.698 37.301-151.475 64.013-227.964 21.208-60.729-30.282-91.329-65.1-104.638z" fill="#78c2a4"/><path d="m130.097 182h-122.384c-4.26 0-7.713-3.453-7.713-7.713v-106.634c0-4.26 3.453-7.713 7.713-7.713h122.384c4.26 0 7.713 3.453 7.713 7.713v106.634c0 4.26-3.454 7.713-7.713 7.713z" fill="#ffd064"/><path d="m130.097 59.94h-15.891c4.26 0 7.713 3.453 7.713 7.713v106.634c0 4.26-3.453 7.713-7.713 7.713h15.891c4.26 0 7.713-3.453 7.713-7.713v-106.634c0-4.26-3.454-7.713-7.713-7.713z" fill="#ffc250"/><path d="m80.147 99.049h-22.484c-1.77 0-3.204-1.435-3.204-3.204v-35.905h28.892v35.904c0 1.77-1.435 3.205-3.204 3.205z" fill="#26457d"/><path d="m69.53 59.94v35.904c0 1.77-1.435 3.204-3.204 3.204h13.821c1.77 0 3.204-1.435 3.204-3.204v-35.904z" fill="#21386b"/><g><path d="m99.837 167.232c-2.013 0-4.023-.782-5.537-2.337-2.976-3.058-2.91-7.95.148-10.927l7.224-7.03-7.224-7.032c-3.057-2.976-3.124-7.867-.147-10.926 2.977-3.056 7.868-3.125 10.926-.147l12.912 12.568c1.494 1.454 2.337 3.451 2.337 5.536s-.843 4.082-2.338 5.537l-12.912 12.567c-1.503 1.463-3.447 2.191-5.389 2.191z" fill="#f9f6f6"/></g><g><path d="m53.841 159.982h-28.433c-4.267 0-7.726-3.459-7.726-7.726s3.459-7.726 7.726-7.726h28.433c4.267 0 7.726 3.459 7.726 7.726s-3.459 7.726-7.726 7.726z" fill="#26457d"/></g><path d="m512 192.784c0 47.535-38.535 134.424-86.07 134.424s-86.07-86.889-86.07-134.424 38.535-86.07 86.07-86.07 86.07 38.534 86.07 86.07z" fill="#80b4fb"/><path d="m425.93 106.713c-3.71 0-7.358.261-10.944.717 42.364 5.38 75.126 41.529 75.126 85.354 0 43.828-32.758 121.109-75.126 132.898 3.584.997 7.237 1.526 10.944 1.526 47.535 0 86.07-86.889 86.07-134.424s-38.535-86.071-86.07-86.071z" fill="#61a2f9"/><circle cx="425.93" cy="189.276" fill="#f9f6f6" r="32.519"/><path d="m425.93 156.757c-3.08 0-6.057.438-8.881 1.238 13.641 3.866 23.638 16.402 23.638 31.281s-9.997 27.415-23.638 31.281c2.824.8 5.801 1.238 8.881 1.238 17.96 0 32.519-14.559 32.519-32.519-.001-17.959-14.56-32.519-32.519-32.519z" fill="#dddaec"/><g><g><path d="m97.938 237.668c-2.755 0-5.421-1.477-6.815-4.074-4.3-8.015-6.53-13.511-6.623-13.741-1.597-3.957.316-8.459 4.273-10.056 3.956-1.594 8.455.315 10.054 4.268.02.049 2.044 5.013 5.912 12.224 2.018 3.761.605 8.444-3.156 10.462-1.161.621-2.412.917-3.645.917z" fill="#f9f6f6"/></g><g><path d="m367.926 334.553c-2.241 0-4.464-.97-5.991-2.842-6.225-7.629-11.502-13.915-17.021-19.8-2.919-3.113-2.762-8.003.35-10.922 3.115-2.921 8.004-2.762 10.922.35 5.821 6.208 11.295 12.725 17.721 20.603 2.698 3.306 2.205 8.173-1.102 10.87-1.433 1.172-3.162 1.741-4.879 1.741zm-190.171-33.729c-.063 0-.127-.001-.192-.002-9.795-.238-19.477-2.524-28.775-6.792-3.878-1.781-5.579-6.367-3.798-10.245 1.779-3.878 6.365-5.577 10.245-3.799 7.38 3.388 15.019 5.2 22.704 5.387 4.266.104 7.64 3.647 7.536 7.912-.102 4.203-3.54 7.539-7.72 7.539zm153.051-4.306c-1.582 0-3.176-.484-4.55-1.488-6.945-5.07-13.947-8.803-21.407-11.409-4.028-1.406-6.153-5.814-4.745-9.842 1.407-4.028 5.814-6.152 9.842-4.745 8.918 3.115 17.233 7.537 25.424 13.518 3.447 2.516 4.2 7.35 1.683 10.796-1.514 2.071-3.864 3.17-6.247 3.17zm-126.959-.239c-3.151 0-6.111-1.942-7.257-5.073-1.466-4.007.594-8.445 4.601-9.91.726-.267 1.457-.545 2.19-.841 8.054-3.227 15.874-6.017 23.254-8.295 4.077-1.26 8.403 1.024 9.662 5.104 1.259 4.076-1.027 8.402-5.104 9.661-6.979 2.155-14.399 4.803-22.053 7.87-.876.352-1.76.691-2.639 1.012-.876.32-1.772.472-2.654.472zm50.936-15.265c-3.709 0-6.982-2.678-7.612-6.458-.701-4.208 2.142-8.189 6.351-8.891 9.91-1.65 19.428-2.291 28.133-1.915 4.264.185 7.569 3.791 7.385 8.053-.185 4.265-3.838 7.548-8.053 7.385-7.637-.332-16.073.244-24.925 1.72-.43.072-.857.106-1.279.106zm-124.81-1.078c-1.839 0-3.683-.652-5.159-1.977-6.559-5.888-12.898-12.922-18.843-20.904-2.548-3.423-1.84-8.264 1.582-10.812 3.423-2.549 8.263-1.839 10.812 1.582 5.332 7.162 10.975 13.432 16.772 18.635 3.176 2.851 3.439 7.735.588 10.911-1.526 1.7-3.635 2.565-5.752 2.565z" fill="#f9f6f6"/></g><g><path d="m394.525 366.009c-2.07 0-4.136-.827-5.657-2.462-3.128-3.36-6.333-6.967-9.799-11.027-2.771-3.244-2.385-8.122.86-10.892 3.244-2.772 8.123-2.385 10.892.86 3.321 3.889 6.381 7.334 9.356 10.53 2.907 3.124 2.732 8.013-.39 10.919-1.489 1.387-3.378 2.072-5.262 2.072z" fill="#f9f6f6"/></g></g></g></svg>