<svg id="Capa_1" enable-background="new 0 0 512 512" height="512" viewBox="0 0 512 512" width="512" xmlns="http://www.w3.org/2000/svg"><g><path d="m7.612 224.625h122.642v35.666h-122.642z" fill="#f9f6f6"/><path d="m113.772 224.625h16.481v35.666h-16.481z" fill="#dddaec"/><path d="m7.612 188.958h122.642v35.666h-122.642z" fill="#d0cee7"/><path d="m113.772 188.959h16.481v35.666h-16.481z" fill="#beb9dd"/><path d="m130.253 188.959h-122.641v-34.365c0-.718.582-1.301 1.301-1.301h121.341v35.666z" fill="#f9f6f6"/><path d="m113.772 153.293h16.481v35.666h-16.481z" fill="#dddaec"/><path d="m139.101 153.292h-121.34v-34.365c0-.718.582-1.301 1.301-1.301h120.04c.718 0 1.301.582 1.301 1.301v33.064c-.001.719-.583 1.301-1.302 1.301z" fill="#d0cee7"/><path d="m123.921 117.626v35.666h15.181c.718 0 1.301-.582 1.301-1.301v-33.064c0-.718-.582-1.301-1.301-1.301z" fill="#beb9dd"/><g><path d="m68.933 267.902c-4.204 0-7.611-3.407-7.611-7.612v-142.664c0-4.204 3.407-7.611 7.611-7.611s7.611 3.407 7.611 7.611v142.665c0 4.204-3.407 7.611-7.611 7.611z" fill="#dd636e"/></g><g><path d="m68.933 125.237h-14.716c-12.31 0-22.326-10.016-22.326-22.326 0-12.311 10.016-22.327 22.326-22.327 12.311 0 22.327 10.016 22.327 22.327v14.715c0 4.204-3.407 7.611-7.611 7.611zm-14.716-29.43c-3.917 0-7.103 3.187-7.103 7.104s3.186 7.103 7.103 7.103h7.104v-7.103c0-3.917-3.187-7.104-7.104-7.104z" fill="#dd636e"/></g><g><path d="m83.648 125.237h-14.715c-4.204 0-7.611-3.407-7.611-7.611v-14.715c0-12.311 10.016-22.327 22.327-22.327s22.327 10.016 22.327 22.327c-.001 12.31-10.017 22.326-22.328 22.326zm-7.104-15.223h7.104c3.917 0 7.104-3.186 7.104-7.103s-3.187-7.104-7.104-7.104-7.104 3.187-7.104 7.104z" fill="#dd636e"/></g><g><path d="m167.468 267.902h-159.857c-4.204 0-7.611-3.407-7.611-7.612s3.407-7.611 7.611-7.611h159.856c4.204 0 7.611 3.407 7.611 7.611s-3.406 7.612-7.61 7.612z" fill="#21386b"/></g><g><path d="m332.256 422.477h-51.827c-4.204 0-7.612-3.407-7.612-7.612s3.407-7.611 7.612-7.611h44.215v-23.714c0-4.204 3.407-7.611 7.612-7.611s7.611 3.407 7.611 7.611v31.325c0 4.205-3.407 7.612-7.611 7.612z" fill="#21386b"/></g><circle cx="446.499" cy="389.562" fill="#26457d" r="47.31"/><path d="m446.499 342.252c-3.036 0-6.001.297-8.877.844 21.884 4.156 38.433 23.374 38.433 46.467s-16.55 42.31-38.433 46.467c2.877.546 5.841.844 8.877.844 26.129 0 47.31-21.182 47.31-47.31.001-26.131-21.181-47.312-47.31-47.312z" fill="#21386b"/><circle cx="446.499" cy="389.562" fill="#f9f6f6" r="17.754"/><g><path d="m446.503 397.174c-2.197 0-4.378-.946-5.883-2.777l-30.051-36.541c-2.67-3.247-2.202-8.044 1.045-10.714 3.244-2.669 8.042-2.204 10.714 1.045l30.051 36.541c2.67 3.247 2.202 8.044-1.045 10.714-1.416 1.164-3.129 1.732-4.831 1.732z" fill="#dddaec"/></g><circle cx="141.46" cy="378.56" fill="#26457d" r="58.312"/><path d="m83.148 378.56c0-32.205 26.107-58.312 58.312-58.312s58.312 26.107 58.312 58.312c0 5.363-.739 10.551-2.094 15.483-.986.119-1.987.187-3.005.187h-109.378c-1.389-4.988-2.147-10.239-2.147-15.67z" fill="#21386b"/><path d="m400.516 356.305c4.388-22.361 22.204-40.848 46.301-44.738 29.421-4.75 57.791 14.742 63.957 43.899 1.821 8.612 1.558 17.165-.424 25.154-.171.689-.918 1.065-1.581.812-35.775-13.618-71.882-21.609-108.253-25.127z" fill="#5986cb"/><path d="m510.475 354.129c-6.613-27.963-33.713-46.621-62.189-42.78-4.837.653-9.429 1.895-13.725 3.634 27.341-1.267 52.238 17.603 57.723 45.266 1.045 5.272 1.297 10.514.87 15.615 5.212 1.745 10.417 3.59 15.615 5.567.664.252 1.41-.123 1.581-.812 2.085-8.402 2.268-17.427.125-26.49z" fill="#4278c3"/><circle cx="141.46" cy="378.56" fill="#f9f6f6" r="21.883"/><path d="m405.364 384.414 48.54-63.434c8.505-11.115 10.379-25.944 4.906-38.826l-40.139-101.674-17.906-15.301.442 124.476c.011 3.003-1.003 5.919-2.874 8.268l-34.375 43.159c-2.504 3.144-6.303 4.975-10.322 4.975h-80.134c-18.342 0-33.211-14.869-33.211-33.211 0-10.705 5.16-20.753 13.86-26.991l17.477-12.531c.975-.699 1.553-1.825 1.553-3.025v-10.01h-128.518c-13.162 0-25.032 7.919-30.086 20.072l-41.638 93.999h164.099c11.882 0 22.975 5.948 29.551 15.845 1.445 2.175 3.883 3.482 6.494 3.482h113.506c7.36.002 14.302-3.427 18.775-9.273z" fill="#80b4fb"/><g fill="#61a2f9"><path d="m235.593 285.856c-8.7 6.238-13.86 16.286-13.86 26.991 0 18.342 14.869 33.211 33.211 33.211h18.558c-18.342 0-33.211-14.869-33.211-33.211 0-10.705 5.16-20.753 13.86-26.991l17.477-12.531c.975-.699 1.553-1.825 1.553-3.025v-10.01h-18.558v6.285c0 3.538-1.705 6.859-4.581 8.921z"/><path d="m458.81 282.155-40.139-101.674-17.906-15.301.061 17.107 39.426 99.867c5.473 12.881 3.6 27.711-4.906 38.826l-48.54 63.434c-4.473 5.846-11.415 9.275-18.776 9.275h18.558c7.361 0 14.303-3.429 18.776-9.275l48.54-63.434c8.505-11.115 10.379-25.944 4.906-38.825z"/></g><path d="m273.181 260.291v-6.167c0-11.612-9.414-21.026-21.026-21.026h-78.513c-11.612 0-21.026 9.414-21.026 21.026v6.167z" fill="#26457d"/><path d="m252.155 233.098h-19.719c11.612 0 21.026 9.414 21.026 21.026v6.167h19.719v-6.167c0-11.612-9.414-21.026-21.026-21.026z" fill="#21386b"/><path d="m73.234 379.487h121.439c13.756 0 24.908-11.152 24.908-24.908 0-29.594-20.931-55.056-49.966-60.783l-34.785-6.86c-30.743-6.063-61.277 11.359-71.7 40.91l-8.795 24.936c-4.598 13.038 5.075 26.705 18.899 26.705z" fill="#5986cb"/><path d="m169.615 293.797-5.484-1.082c19.892 12.767 33.033 38.103 33.033 66.604 0 7.748-2.396 14.812-6.333 20.168h3.842c13.756 0 24.908-11.152 24.908-24.908 0-29.594-20.931-55.056-49.966-60.782z" fill="#4278c3"/><path d="m407.101 182.769h33.551v-50.326h-33.551c-13.897 0-25.163 11.266-25.163 25.163 0 13.897 11.266 25.163 25.163 25.163z" fill="#5986cb"/><path d="m424.714 132.443h15.938v50.326h-15.938z" fill="#4278c3"/><path d="m440.651 174.332h7.293c9.237 0 16.726-7.488 16.726-16.726 0-9.237-7.488-16.726-16.726-16.726h-7.293z" fill="#ffd064"/><g><g><path d="m156.94 351.258c-1.069 0-2.157-.227-3.191-.706-3.816-1.765-5.477-6.289-3.712-10.104l10.21-22.065c1.764-3.815 6.287-5.476 10.104-3.712 3.816 1.765 5.477 6.289 3.712 10.104l-10.21 22.065c-1.287 2.781-4.038 4.418-6.913 4.418z" fill="#80b4fb"/></g><g><path d="m130.249 351.258c-1.069 0-2.157-.227-3.191-.706-3.816-1.765-5.477-6.289-3.712-10.104l10.21-22.065c1.765-3.815 6.287-5.476 10.104-3.712 3.816 1.765 5.477 6.289 3.712 10.104l-10.21 22.065c-1.287 2.781-4.038 4.418-6.913 4.418z" fill="#80b4fb"/></g><g><path d="m103.557 351.258c-1.069 0-2.157-.227-3.191-.706-3.816-1.765-5.477-6.289-3.712-10.104l10.21-22.065c1.765-3.815 6.287-5.476 10.104-3.712 3.816 1.765 5.477 6.289 3.712 10.104l-10.21 22.065c-1.287 2.781-4.038 4.418-6.913 4.418z" fill="#80b4fb"/></g></g><g><path d="m386.663 364.851c-1.65 0-3.311-.533-4.708-1.634-3.301-2.603-3.867-7.389-1.265-10.69l42.077-53.369c2.603-3.302 7.388-3.868 10.69-1.265 3.301 2.603 3.867 7.388 1.265 10.69l-42.077 53.369c-1.502 1.905-3.731 2.899-5.982 2.899z" fill="#f9f6f6"/></g><g><path d="m415.607 158.697c-3.659 0-6.887-2.646-7.501-6.375l-6.707-40.703-29.468-12.706c-3.86-1.664-5.64-6.143-3.975-10.003 1.664-3.86 6.143-5.641 10.003-3.975l33.287 14.352c2.381 1.026 4.074 3.193 4.497 5.751l7.384 44.808c.683 4.148-2.125 8.064-6.273 8.748-.42.069-.836.103-1.247.103z" fill="#21386b"/></g><path d="m362.327 115.403h12.02c4.192 0 7.591-3.399 7.591-7.591v-25.093c0-4.192-3.399-7.591-7.591-7.591h-12.02c-.918 0-1.662.744-1.662 1.662v36.95c0 .918.744 1.663 1.662 1.663z" fill="#26457d"/><g><path d="m440.651 197.265c-4.204 0-7.611-3.407-7.611-7.611v-64.096c0-4.204 3.407-7.611 7.611-7.611s7.612 3.407 7.612 7.611v64.096c0 4.204-3.408 7.611-7.612 7.611z" fill="#5986cb"/></g></g></svg>