<svg width="213" height="213" viewBox="0 0 213 213" fill="none" xmlns="http://www.w3.org/2000/svg">
<path d="M213 106.5C213 165.318 165.318 213 106.5 213C47.6817 213 3.57954e-05 165.318 2.30598e-05 106.5C1.03242e-05 47.6817 47.6817 0 106.5 0C165.318 0 213 47.6817 213 106.5Z" fill="white"/>
<path d="M110.76 95.8491L146.971 95.8491L146.971 106.499L110.76 106.499L110.76 95.8491Z" fill="#1498D5"/>
<path d="M110.761 48.9891L125.671 48.9891L125.671 95.8491L110.76 95.8491L110.761 48.9891Z" fill="#1498D5"/>
<path d="M104.37 59.6391L68.1605 59.6391L68.1605 48.9891L104.37 48.9891L104.37 59.6391Z" fill="#1498D5"/>
<path d="M104.37 106.499L89.4605 106.499L89.4605 59.6391L104.37 59.6391L104.37 106.499Z" fill="#1498D5"/>
<path d="M64.3664 148.637L64.3664 123.073L58.5006 123.073L58.5006 153.359L78.5525 153.359L78.5525 148.637L64.3664 148.637Z" fill="#1498D5"/>
<path d="M97.9597 153.359L103.825 153.359L103.825 153.006C103.534 152.437 103.312 151.758 103.16 150.967C103.007 150.177 102.931 149.178 102.931 147.972L102.931 138.32C102.931 137.017 102.688 135.873 102.203 134.888C101.718 133.89 101.045 133.065 100.185 132.413C99.3256 131.761 98.3064 131.269 97.1276 130.936C95.9628 130.603 94.7009 130.437 93.3419 130.437C91.8304 130.437 90.4853 130.631 89.3065 131.019C88.1417 131.394 87.1571 131.907 86.3528 132.558C85.5347 133.21 84.9106 133.966 84.4808 134.826C84.0647 135.685 83.8567 136.594 83.8567 137.551L89.6394 137.551C89.6394 137.148 89.6948 136.781 89.8058 136.448C89.9306 136.115 90.1178 135.831 90.3674 135.595C90.6447 135.332 91.0053 135.131 91.449 134.992C91.8928 134.84 92.4197 134.763 93.0299 134.763C93.7232 134.763 94.3265 134.853 94.8396 135.034C95.3665 135.2 95.8033 135.443 96.15 135.762C96.4828 136.067 96.7324 136.434 96.8988 136.864C97.0652 137.28 97.1484 137.752 97.1484 138.279L97.1484 139.61L93.9243 139.61C92.2603 139.61 90.7834 139.762 89.4937 140.067C88.218 140.359 87.1433 140.789 86.2696 141.357C85.2989 141.981 84.5709 142.779 84.0855 143.749C83.6002 144.706 83.3575 145.809 83.3575 147.057C83.3575 148.027 83.5517 148.929 83.9399 149.761C84.3282 150.579 84.869 151.286 85.5624 151.882C86.2558 152.479 87.0809 152.943 88.0377 153.276C89.0084 153.609 90.0692 153.775 91.2202 153.775C91.9274 153.775 92.5861 153.706 93.1963 153.567C93.8064 153.442 94.3681 153.262 94.8812 153.026C95.3804 152.805 95.838 152.541 96.254 152.236C96.67 151.931 97.0375 151.605 97.3564 151.258C97.4258 151.66 97.509 152.042 97.6061 152.402C97.7031 152.763 97.821 153.082 97.9597 153.359ZM92.4475 149.303C91.9066 149.303 91.4282 149.241 91.0122 149.116C90.6101 148.977 90.2703 148.797 89.993 148.575C89.7156 148.339 89.5007 148.055 89.3481 147.722C89.2095 147.376 89.1401 147.001 89.1401 146.599C89.1401 146.086 89.2372 145.614 89.4313 145.184C89.6255 144.741 89.9236 144.359 90.3258 144.04C90.7279 143.735 91.2479 143.5 91.8858 143.333C92.5237 143.153 93.2934 143.063 94.1947 143.063L97.1484 143.063L97.1484 146.932C96.982 147.223 96.7532 147.514 96.462 147.805C96.1708 148.083 95.8241 148.332 95.422 148.554C95.0198 148.776 94.5691 148.956 94.0699 149.095C93.5707 149.234 93.0299 149.303 92.4475 149.303Z" fill="#1498D5"/>
<path d="M123.545 153.359L129.41 153.359L129.41 153.006C129.119 152.437 128.897 151.758 128.745 150.967C128.592 150.177 128.516 149.178 128.516 147.972L128.516 138.32C128.516 137.017 128.273 135.873 127.788 134.888C127.303 133.89 126.63 133.065 125.77 132.413C124.911 131.761 123.891 131.269 122.713 130.936C121.548 130.603 120.286 130.437 118.927 130.437C117.415 130.437 116.07 130.631 114.892 131.019C113.727 131.394 112.742 131.907 111.938 132.558C111.12 133.21 110.496 133.966 110.066 134.826C109.65 135.685 109.442 136.594 109.442 137.551L115.224 137.551C115.224 137.148 115.28 136.781 115.391 136.448C115.516 136.115 115.703 135.831 115.952 135.595C116.23 135.332 116.59 135.131 117.034 134.992C117.478 134.84 118.005 134.763 118.615 134.763C119.308 134.763 119.911 134.853 120.425 135.034C120.951 135.2 121.388 135.443 121.735 135.762C122.068 136.067 122.317 136.434 122.484 136.864C122.65 137.28 122.733 137.752 122.733 138.279L122.733 139.61L119.509 139.61C117.845 139.61 116.368 139.762 115.079 140.067C113.803 140.359 112.728 140.789 111.855 141.357C110.884 141.981 110.156 142.779 109.671 143.749C109.185 144.706 108.942 145.808 108.942 147.057C108.942 148.027 109.137 148.929 109.525 149.761C109.913 150.579 110.454 151.286 111.147 151.882C111.841 152.479 112.666 152.943 113.623 153.276C114.593 153.609 115.654 153.775 116.805 153.775C117.512 153.775 118.171 153.706 118.781 153.567C119.391 153.442 119.953 153.262 120.466 153.026C120.965 152.804 121.423 152.541 121.839 152.236C122.255 151.931 122.622 151.605 122.941 151.258C123.011 151.66 123.094 152.042 123.191 152.402C123.288 152.763 123.406 153.082 123.545 153.359ZM118.032 149.303C117.492 149.303 117.013 149.241 116.597 149.116C116.195 148.977 115.855 148.797 115.578 148.575C115.301 148.339 115.086 148.055 114.933 147.722C114.794 147.375 114.725 147.001 114.725 146.599C114.725 146.086 114.822 145.614 115.016 145.184C115.21 144.741 115.509 144.359 115.911 144.04C116.313 143.735 116.833 143.5 117.471 143.333C118.109 143.153 118.878 143.063 119.78 143.063L122.733 143.063L122.733 146.932C122.567 147.223 122.338 147.514 122.047 147.805C121.756 148.083 121.409 148.332 121.007 148.554C120.605 148.776 120.154 148.956 119.655 149.095C119.156 149.234 118.615 149.303 118.032 149.303Z" fill="#1498D5"/>
<path d="M143.534 144.061L149.92 153.359L157.013 153.359L147.341 140.234L155.827 130.853L148.88 130.853L142.661 137.675L140.913 139.672L140.913 121.409L135.131 121.409L135.131 153.359L140.913 153.359L140.913 146.495L143.534 144.061Z" fill="#1498D5"/>
</svg>
